<?xml version="1.0" encoding="utf-8"?>
<!-- Generator: Adobe Illustrator 21.1.0, SVG Export Plug-In . SVG Version: 6.00 Build 0)  -->
<svg version="1.1" id="Layer_1" xmlns="http://www.w3.org/2000/svg" xmlns:xlink="http://www.w3.org/1999/xlink" x="0px" y="0px"
	 viewBox="0 0 113.6 103.2" style="enable-background:new 0 0 113.6 103.2;" xml:space="preserve">
<style type="text/css">
	.st0{fill:none;}
	.st1{fill:#FFFFFF;}
	.st2{fill:#FF9900;}
	.st3{fill:#472E27;}
	.st4{fill:none;stroke:#472E27;stroke-width:2.5;stroke-linecap:round;stroke-linejoin:round;}
	.st5{fill:#2ECEB3;}
</style>
<title>step3</title>
<g id="Layer_2">
	<g id="Layer_1-2">
		<line class="st0" x1="71.3" y1="13.8" x2="74.2" y2="14.8"/>
		<rect x="8.9" y="33.3" class="st1" width="13.1" height="13.1"/>
		<rect x="8.9" y="12.9" class="st2" width="13.1" height="13.1"/>
		<rect x="8.9" y="36.9" class="st2" width="13.1" height="13.1"/>
		<path class="st3" d="M12.4,26.5c-0.4,0-0.7-0.2-0.9-0.5l-2-2.7c-0.5-0.7-0.5-1.6,0-2.2c0.3-0.5,0.9-0.6,1.4-0.3
			c0.1,0.1,0.3,0.2,0.3,0.3l1,1.4l3.6-5.6c0.2-0.5,0.8-0.7,1.3-0.5c0.1,0.1,0.3,0.2,0.4,0.3c0.5,0.6,0.6,1.5,0.2,2.2l-4.4,7
			C13.2,26.3,12.8,26.5,12.4,26.5L12.4,26.5z"/>
		<line class="st4" x1="28" y1="14.7" x2="89" y2="14.7"/>
		<line class="st4" x1="28" y1="21.2" x2="89" y2="21.2"/>
		<line class="st4" x1="28.1" y1="27.2" x2="47.5" y2="27.2"/>
		<line class="st4" x1="28" y1="38.7" x2="89" y2="38.7"/>
		<line class="st4" x1="28" y1="45.2" x2="89" y2="45.2"/>
		<line class="st4" x1="28.1" y1="51.2" x2="47.5" y2="51.2"/>
		<polygon class="st1" points="104.5,90.1 57.9,90.1 57.9,28 96.1,28 96.7,28 104.5,36.4 		"/>
		<path class="st3" d="M104.5,91.2H57.9c-0.6,0-1.1-0.5-1.1-1.1l0,0V28c0-0.6,0.5-1.1,1.1-1.1c0,0,0,0,0,0h38.3l0.6,0.1
			c0.3,0,0.5,0.1,0.7,0.3l7.9,8.4c0.2,0.2,0.3,0.5,0.3,0.7v53.7C105.6,90.7,105.1,91.2,104.5,91.2z M59,89.1h44.5V36.8l-7.3-7.8H59
			V89.1z"/>
		<polygon class="st1" points="96.9,28 96.1,36.7 104.1,36.7 		"/>
		<path class="st3" d="M104.1,37.8h-8.1c-0.6,0-1.1-0.5-1.1-1.1c0,0,0-0.1,0-0.1l0.9-8.6c0.1-0.6,0.6-1,1.2-1c0.3,0,0.5,0.2,0.7,0.4
			L105,36c0.4,0.5,0.3,1.1-0.1,1.5C104.7,37.7,104.4,37.8,104.1,37.8L104.1,37.8z M97.3,35.6h4.6l-4.1-4.9L97.3,35.6z"/>
		<path class="st3" d="M93.8,61.7H68.7c-0.6,0-1.1-0.5-1.1-1.1s0.5-1.1,1.1-1.1h25.1c0.6,0,1.1,0.5,1.1,1.1S94.4,61.7,93.8,61.7z"/>
		<path class="st3" d="M93.8,52.2H68.7c-0.6,0-1.1-0.5-1.1-1.1c0-0.6,0.5-1.1,1.1-1.1c0,0,0,0,0,0h25.1c0.6,0,1.1,0.5,1.1,1.1
			C94.9,51.7,94.4,52.2,93.8,52.2C93.8,52.2,93.8,52.2,93.8,52.2z"/>
		<path class="st3" d="M93.8,46.1H68.7c-0.6,0-1.1-0.5-1.1-1.1c0-0.6,0.5-1.1,1.1-1.1h25.1c0.6,0,1.1,0.5,1.1,1.1
			C94.8,45.6,94.4,46.1,93.8,46.1z"/>
		<path class="st3" d="M93.8,68.2H68.7c-0.6,0-1.1-0.5-1.1-1.1s0.5-1.1,1.1-1.1h25.1c0.6,0,1.1,0.5,1.1,1.1S94.4,68.2,93.8,68.2z"/>
		<path class="st3" d="M81.5,75.1H68.8c-0.6,0-1.1-0.5-1.1-1.1s0.5-1.1,1.1-1.1h12.7c0.6,0,1.1,0.5,1.1,1.1S82.1,75.1,81.5,75.1z"/>
		<rect x="87.3" y="73.8" class="st5" width="13.3" height="13.3"/>
		<path class="st3" d="M97.8,85.4c-0.8,0-1.6-0.3-2.2-0.9l-4.9-4.7c-1-1-1.1-2.6-0.1-3.7c0.1-0.1,0.1-0.1,0.2-0.2c1.2-1,3-1,4.2,0.1
			l2.6,2.5l8.6-9.7c1.1-1.2,2.9-1.3,4.2-0.4c1.2,0.8,1.4,2.5,0.6,3.7c-0.1,0.1-0.1,0.2-0.2,0.2l-10.8,12.1c-0.6,0.6-1.3,1-2.2,1
			L97.8,85.4z"/>
	</g>
</g>
</svg>
