<svg xmlns="http://www.w3.org/2000/svg" viewBox="0 0 335.73 303.83"><defs><style>.cls-1,.cls-10,.cls-15,.cls-2,.cls-27,.cls-3,.cls-4{fill:none;}.cls-1,.cls-2,.cls-3{stroke:#b2b2b2;}.cls-1,.cls-15,.cls-2,.cls-27,.cls-3,.cls-4{stroke-linecap:round;}.cls-1,.cls-10,.cls-2,.cls-3{stroke-miterlimit:10;}.cls-1,.cls-10,.cls-2,.cls-3,.cls-4{stroke-width:3px;}.cls-2{stroke-dasharray:1.95 8.77 1.95 8.77;}.cls-3{stroke-dasharray:1.95 8.77 1.95 8.77 1.95 8.77;}.cls-10,.cls-27,.cls-4{stroke:#472e27;}.cls-15,.cls-27,.cls-4{stroke-linejoin:round;}.cls-20,.cls-25,.cls-26,.cls-5{fill:#2eceb3;}.cls-19,.cls-5{opacity:0.6;}.cls-24,.cls-6{fill:#f90;}.cls-23,.cls-6{opacity:0.77;}.cls-7{fill:#ededed;}.cls-8{fill:#bcbcbc;}.cls-13,.cls-8{opacity:0.48;}.cls-13,.cls-14,.cls-9{fill:#fff;}.cls-11{fill:#472e27;}.cls-12,.cls-22{fill:#1e967f;}.cls-12,.cls-21{opacity:0.49;}.cls-14{opacity:0.07;}.cls-15{stroke:#be1e2d;}.cls-16{fill:#fafbfd;}.cls-17{fill:#f8c452;}.cls-18{fill:#b4bebf;}.cls-25{opacity:0.5;}.cls-26{opacity:0.58;}.cls-27{stroke-width:2px;}</style></defs><title>Asset 2</title><g id="Layer_2" data-name="Layer 2"><g id="Layer_1-2" data-name="Layer 1"><path class="cls-1" d="M23,165.33q0-.5,0-1"/><path class="cls-2" d="M23.28,155.57a143.48,143.48,0,0,1,2.15-16.91"/><path class="cls-3" d="M26.31,134.36a143.35,143.35,0,0,1,283.21,25.58"/><path class="cls-1" d="M309.61,164.33q0,.5,0,1"/><line class="cls-4" x1="105.04" y1="184.94" x2="102.79" y2="179.35"/><path class="cls-5" d="M210.48,93.58a8.75,8.75,0,1,0-14.12-10.32l-.73,1a38.9,38.9,0,0,0-25.52-9.55h0a38.9,38.9,0,0,0-25.52,9.55l-.73-1a8.75,8.75,0,0,0-14.12,10.32l4.07,5.56.05.07a38.73,38.73,0,0,0-2.85,14.6l-.63,40.54h78.21l.63-40.54a38.73,38.73,0,0,0-2.85-14.6l.05-.07Z"/><polygon class="cls-6" points="220.83 174.12 118.69 174.12 125.98 154 214.08 154 220.83 174.12"/><path class="cls-4" d="M126.41,151.12V110.94a38.69,38.69,0,0,1,2.85-14.6l-.05-.06-4.06-5.57a8.75,8.75,0,0,1,14.12-10.33l.72,1a39.59,39.59,0,0,1,11.68-7,38.87,38.87,0,0,1,39.36,7l.73-1a8.75,8.75,0,1,1,14.12,10.33l-4.06,5.57-.05.06a38.69,38.69,0,0,1,2.85,14.6v40.17"/><rect class="cls-7" x="155.98" y="126.86" width="12.27" height="18.66"/><rect class="cls-7" x="168.24" y="126.86" width="12.27" height="18.66"/><rect class="cls-8" x="174.06" y="127.23" width="3.91" height="15.85" rx="1.75" ry="1.75"/><rect class="cls-9" x="155.51" y="127.34" width="3.71" height="9.91" rx="1.75" ry="1.75"/><polygon class="cls-10" points="165.45 168.1 182.73 151.12 148.18 151.12 165.45 168.1"/><rect class="cls-4" x="154.91" y="126.86" width="11.31" height="15.9"/><rect class="cls-4" x="166.22" y="126.86" width="11.31" height="15.9"/><rect class="cls-11" x="159.2" y="113.48" width="14.05" height="8.22" rx="3.87" ry="3.87"/><polyline class="cls-4" points="166.22 120.9 166.22 126.86 184.07 126.86 146.96 126.86"/><circle class="cls-11" cx="150.65" cy="110.03" r="2.88"/><circle class="cls-11" cx="182.1" cy="110.03" r="2.88"/><path class="cls-5" d="M242,199a10.3,10.3,0,0,0-3-3.65l-.12-.09a9.9,9.9,0,0,0,3.25-6.12A9.68,9.68,0,0,0,242,186a9.9,9.9,0,0,0-16.6-5.27,42.25,42.25,0,0,1-12-8.81l-87.77,0a50.41,50.41,0,0,1-12,8.78A9.9,9.9,0,0,0,97,186a9.68,9.68,0,0,0-.09,3.14,9.9,9.9,0,0,0,3.25,6.12l-.12.09A10.3,10.3,0,0,0,97,199,10.48,10.48,0,0,0,107.78,214a10.38,10.38,0,0,0,5-2.07l9.65-9.13,7.2-7.09,0,1.64v8l.22,0A13.26,13.26,0,0,0,131,231.35l32.69,5.4a13.12,13.12,0,0,0,5.83-.36,13.12,13.12,0,0,0,5.83.36l32.69-5.4a13.26,13.26,0,0,0,1.15-25.92l.22,0v-8l0-1.64,7.2,7.09L226.2,212a10.38,10.38,0,0,0,5,2.07A10.48,10.48,0,0,0,242,199Zm-135.52-8.2a3.26,3.26,0,1,1,3-3.68A3.38,3.38,0,0,1,106.46,190.76ZM236.41,188a3.51,3.51,0,1,1-3-3.68A3.38,3.38,0,0,1,236.41,188Z"/><polygon class="cls-6" points="168.28 167.45 154.31 197.23 168.48 206.67 186.92 198.48 168.28 167.45"/><polygon class="cls-4" points="165.56 166.44 149.97 195.41 165.56 203.42 181.25 196.16 165.56 166.44"/><circle class="cls-10" cx="145" cy="109.73" r="11.9"/><circle class="cls-10" cx="187.76" cy="109.73" r="11.9"/><line class="cls-10" x1="156.9" y1="109.73" x2="176.34" y2="109.73"/><rect class="cls-12" x="197.92" y="120.05" width="3.71" height="17.03" rx="1.75" ry="1.75"/><polygon class="cls-4" points="216.52 170.2 114.38 170.2 121.68 151.12 209.77 151.12 216.52 170.2"/><rect class="cls-12" x="197.92" y="139.34" width="3.71" height="8.1" rx="1.75" ry="1.75"/><rect class="cls-12" x="195" y="214.5" width="3.71" height="17.03" rx="1.75" ry="1.75" transform="translate(378.74 -12.37) rotate(79.13)"/><path class="cls-5" d="M183.55,234.45s12.83,35.77,14.4,48.08c1.47,11.62-12.9,21.3-28.67,21.3h0c-15.77,0-30.14-9.68-28.67-21.3C142.18,270.2,155,234.38,155,234.38"/><rect class="cls-12" x="172.33" y="267.73" width="3.93" height="28.34" rx="1.75" ry="1.75" transform="translate(449.83 97.71) rotate(87.97)"/><rect class="cls-12" x="150.28" y="278.29" width="3.71" height="8.1" rx="1.75" ry="1.75" transform="translate(428.89 120.28) rotate(87.97)"/><rect class="cls-12" x="173.15" y="259.29" width="3.93" height="21.66" rx="1.75" ry="1.75" transform="translate(438.85 85.52) rotate(87.97)"/><rect class="cls-12" x="156.32" y="267.27" width="3.71" height="6.19" rx="1.75" ry="1.75" transform="translate(422.76 102.69) rotate(87.97)"/><rect class="cls-12" x="172" y="250.04" width="3.93" height="15.96" rx="1.75" ry="1.75" transform="translate(425.65 75) rotate(87.97)"/><rect class="cls-12" x="159.63" y="255.83" width="3.71" height="4.56" rx="1.75" ry="1.75" transform="translate(413.7 87.56) rotate(87.97)"/><rect class="cls-12" x="174.63" y="245.83" width="3.71" height="4.56" rx="1.75" ry="1.75" transform="translate(418.17 62.93) rotate(87.97)"/><rect class="cls-12" x="206.63" y="212.83" width="3.71" height="4.56" rx="1.75" ry="1.75" transform="translate(416.06 -0.88) rotate(87.97)"/><path class="cls-4" d="M179.55,232.45s12.83,35.77,14.4,48.08c1.47,11.62-12.9,21.3-28.67,21.3h0c-15.77,0-30.14-9.68-28.67-21.3C138.18,268.2,151,232.38,151,232.38"/><rect class="cls-13" x="142.61" y="110.64" width="3.71" height="7.62" rx="1.75" ry="1.75"/><rect class="cls-13" x="181.48" y="101.85" width="3.71" height="16.03" rx="1.75" ry="1.75"/><rect class="cls-13" x="186.25" y="110.64" width="3.71" height="7.62" rx="1.75" ry="1.75"/><rect class="cls-14" x="164.52" y="112.41" width="3.71" height="7.62" rx="1.75" ry="1.75" transform="translate(50.15 282.6) rotate(-90)"/><path class="cls-15" d="M220.55,128.49"/><path class="cls-15" d="M220.55,128.49"/><path class="cls-4" d="M210.78,170.33c3.75,3.92,6.29,4.6,11.19,7.16"/><path class="cls-4" d="M206,202.2v-8l0-1.64,7.2,7.09,9.65,9.13a10.38,10.38,0,0,0,5,2.07,10.48,10.48,0,0,0,10.79-15.07,10.3,10.3,0,0,0-3-3.65l-.12-.09a9.9,9.9,0,0,0,3.25-6.12,9.68,9.68,0,0,0-.09-3.14,9.9,9.9,0,0,0-16.6-5.27"/><path class="cls-4" d="M204.95,202A13.32,13.32,0,0,1,215.5,212.9h0a13.31,13.31,0,0,1-10.93,15.25l-32.69,5.4a13.31,13.31,0,0,1-15.25-10.93h0a13.31,13.31,0,0,1,10.93-15.25l23.43-3.7"/><ellipse class="cls-4" cx="229.5" cy="184.34" rx="3.25" ry="3.5" transform="translate(16.78 387.82) rotate(-82.5)"/><line class="cls-4" x1="231.05" y1="181.44" x2="233.3" y2="175.85"/><path class="cls-4" d="M126.14,202.2v-8l0-1.64-7.2,7.09-9.65,9.13a10.38,10.38,0,0,1-5,2.07,10.48,10.48,0,0,1-10.79-15.07,10.3,10.3,0,0,1,3-3.65l.12-.09a9.9,9.9,0,0,1-3.25-6.12,9.68,9.68,0,0,1,.09-3.14,9.9,9.9,0,0,1,16.6-5.27,36.53,36.53,0,0,0,10.34-7.33"/><path class="cls-4" d="M136,202.66l28.53,4.71a14.43,14.43,0,0,1,1.51.34"/><path class="cls-4" d="M166.05,233.2a13.15,13.15,0,0,1-5.84.35l-32.69-5.4a13.32,13.32,0,0,1-11.11-13.09,13.12,13.12,0,0,1,.18-2.16,13.31,13.31,0,0,1,9.61-10.64"/><ellipse class="cls-4" cx="102.59" cy="184.34" rx="3.5" ry="3.25" transform="translate(-23.18 14.97) rotate(-7.5)"/><line class="cls-4" x1="101.04" y1="181.44" x2="98.79" y2="175.85"/><line class="cls-5" x1="248.5" y1="296.63" x2="250.74" y2="291.04"/><line class="cls-5" x1="118.48" y1="296.63" x2="116.23" y2="291.04"/><line class="cls-4" x1="156.83" y1="219.38" x2="168.7" y2="217.25"/><line class="cls-4" x1="158.83" y1="227.38" x2="170.7" y2="225.25"/><g id="_Group_" data-name="&lt;Group&gt;"><g id="_Group_2" data-name="&lt;Group&gt;"><polygon id="_Path_" data-name="&lt;Path&gt;" class="cls-16" points="53.97 95.76 80.97 78.11 61.17 47.83 52.75 46.4 30.99 60.63 53.97 95.76"/><path id="_Compound_Path_" data-name="&lt;Compound Path&gt;" class="cls-11" d="M81.56,79l-27,17.65-1.5-.31-23-35.14.31-1.5L52.15,45.49l.77-.16,8.42,1.43.72.48,19.8,30.28ZM54.28,94.26,79.47,77.79l-19-29L53,47.54,32.49,60.94Z"/></g><g id="_Group_3" data-name="&lt;Group&gt;"><path id="_Path_2" data-name="&lt;Path&gt;" class="cls-17" d="M90.8,68.66h0A3,3,0,0,1,88,71.88h0l-.41-6h0A3,3,0,0,1,90.8,68.66Z"/><path id="_Compound_Path_2" data-name="&lt;Compound Path&gt;" class="cls-11" d="M90.88,71.56A4.09,4.09,0,0,1,88.06,73l-1.17-1-.41-6,1-1.15a4.12,4.12,0,0,1,4.41,3.81h0A4.09,4.09,0,0,1,90.88,71.56ZM89,70.42a1.94,1.94,0,0,0-.22-3.24Z"/><rect id="_Rectangle_" data-name="&lt;Rectangle&gt;" class="cls-5" x="75.81" y="60.33" width="6.05" height="18.29" transform="translate(14.9 152.87) rotate(-93.91)"/><path id="_Compound_Path_3" data-name="&lt;Compound Path&gt;" class="cls-11" d="M89.25,71.8l-1,1.15L70,74.2l-1.15-1-.41-6,1-1.15,18.25-1.25,1.15,1ZM70.92,72,87,70.86,86.75,67l-16.09,1.1Z"/><g id="_Group_4" data-name="&lt;Group&gt;"><polygon id="_Path_3" data-name="&lt;Path&gt;" class="cls-11" points="69.51 67.08 62.58 70.59 69.92 73.12 69.51 67.08"/><path id="_Compound_Path_4" data-name="&lt;Compound Path&gt;" class="cls-11" d="M71,73l-1.43,1.1-7.34-2.53-.14-2L69,66.12l1.57.89ZM65.35,70.4l3.38,1.17-.19-2.78Z"/></g></g><g id="_Group_5" data-name="&lt;Group&gt;"><g id="_Group_6" data-name="&lt;Group&gt;"><rect id="_Path_4" data-name="&lt;Path&gt;" class="cls-11" x="44.31" y="62.62" width="15.93" height="2.16" transform="translate(-26.34 39) rotate(-33.18)"/></g><g id="_Group_7" data-name="&lt;Group&gt;"><rect id="_Path_5" data-name="&lt;Path&gt;" class="cls-11" x="42.03" y="59.14" width="15.93" height="2.16" transform="translate(-24.81 37.18) rotate(-33.18)"/></g><g id="_Group_8" data-name="&lt;Group&gt;"><rect id="_Path_6" data-name="&lt;Path&gt;" class="cls-11" x="46.59" y="66.11" width="15.93" height="2.16" transform="translate(-27.88 40.81) rotate(-33.18)"/></g></g><polygon id="_Path_7" data-name="&lt;Path&gt;" class="cls-18" points="61.17 47.83 52.75 46.4 55.92 51.26 61.17 47.83"/><path id="_Compound_Path_5" data-name="&lt;Compound Path&gt;" class="cls-11" d="M61.76,48.73l-5.24,3.43L55,51.85,51.84,47l1.09-1.66,8.42,1.43Zm-5.52,1,2-1.33L55,47.88Z"/></g><g id="_Group_9" data-name="&lt;Group&gt;"><g id="_Group_10" data-name="&lt;Group&gt;"><path id="_Path_8" data-name="&lt;Path&gt;" class="cls-11" d="M48.31,186.49h0a3,3,0,0,1-4,1.45h0l2.58-5.48h0A3,3,0,0,1,48.31,186.49Z"/><path id="_Compound_Path_6" data-name="&lt;Compound Path&gt;" class="cls-11" d="M47,189l-.06,0a4,4,0,0,1-3.09-.15l-.5-1.36L45.93,182l1.34-.49a4,4,0,0,1,2,5.38h0A4,4,0,0,1,47,189Zm-1.28-1.77a2,2,0,0,0,.53-.11,2.07,2.07,0,0,0,1.14-1h0a2,2,0,0,0,.07-1.54,2,2,0,0,0-.25-.48Z"/></g><circle id="_Path_9" data-name="&lt;Path&gt;" class="cls-16" cx="13.5" cy="170.05" r="12.49" transform="translate(-146.62 111.24) rotate(-65.29)"/><path id="_Compound_Path_7" data-name="&lt;Compound Path&gt;" class="cls-11" d="M18.28,182.67a13.5,13.5,0,1,1,.86-24.89h0a13.5,13.5,0,0,1-.86,24.89ZM9.44,159.32a11.47,11.47,0,1,0,8.86.3A11.44,11.44,0,0,0,9.44,159.32Z"/><g id="_Group_11" data-name="&lt;Group&gt;" class="cls-19"><path id="_Path_10" data-name="&lt;Path&gt;" class="cls-20" d="M22.44,174.25a10.07,10.07,0,1,1-4.82-13.4A10.08,10.08,0,0,1,22.44,174.25Z"/></g><rect id="_Rectangle_2" data-name="&lt;Rectangle&gt;" class="cls-18" x="25.49" y="174.03" width="2.83" height="4.65" transform="translate(-144.11 125.57) rotate(-64.78)"/><path id="_Compound_Path_8" data-name="&lt;Compound Path&gt;" class="cls-11" d="M29.33,179.06l-1.35.48-4.21-2-.48-1.35,1.2-2.56,1.35-.49,4.21,2,.48,1.35Zm-3.78-2.9,2.38,1.12.34-.72-2.38-1.12Z"/><rect id="_Rectangle_3" data-name="&lt;Rectangle&gt;" class="cls-6" x="34.17" y="172.01" width="6.05" height="18.48" transform="translate(-142.63 137.68) rotate(-64.78)"/><path id="_Compound_Path_9" data-name="&lt;Compound Path&gt;" class="cls-11" d="M45.19,188.36l-1.35.49L27.12,181l-.49-1.35,2.58-5.48,1.35-.49,16.72,7.88.48,1.35ZM28.9,179.57l14.89,7,1.72-3.64-14.89-7Z"/><g id="_Group_12" data-name="&lt;Group&gt;" class="cls-21"><g id="_Group_13" data-name="&lt;Group&gt;"><path id="_Path_11" data-name="&lt;Path&gt;" class="cls-22" d="M16,164.1a6.41,6.41,0,0,0-8,2.22l-1.68-1.14a8.43,8.43,0,0,1,10.53-2.93Z"/></g></g></g><path id="_Path_12" data-name="&lt;Path&gt;" class="cls-16" d="M177.76,29.84a10.78,10.78,0,1,0-21.55,0V33.5h21.55Z"/><path id="_Compound_Path_10" data-name="&lt;Compound Path&gt;" class="cls-11" d="M177.76,34.65H156.21l-1.15-1.15V29.84a11.92,11.92,0,1,1,23.85,0V33.5Zm-20.4-2.3h19.26v-2.5a9.63,9.63,0,0,0-19.26,0Z"/><g id="_Group_14" data-name="&lt;Group&gt;" class="cls-23"><path id="_Path_13" data-name="&lt;Path&gt;" class="cls-24" d="M157.51,24.71a10.73,10.73,0,0,0-1.3,5.13V33.5h21.55V29.84a10.73,10.73,0,0,0-1.3-5.13Z"/></g><g id="_Group_15" data-name="&lt;Group&gt;"><path id="_Compound_Path_11" data-name="&lt;Compound Path&gt;" class="cls-11" d="M177.76,34.65H156.21l-1.15-1.15V29.84a12,12,0,0,1,1.44-5.68l1-.6h19l1,.6a11.93,11.93,0,0,1,1.44,5.68V33.5Zm-20.4-2.3h19.26v-2.5a9.65,9.65,0,0,0-.86-4H158.22a9.67,9.67,0,0,0-.86,4Z"/></g><path id="_Path_14" data-name="&lt;Path&gt;" class="cls-16" d="M156.21,8.29a10.78,10.78,0,1,0,21.55,0V4.64H156.21Z"/><path id="_Compound_Path_12" data-name="&lt;Compound Path&gt;" class="cls-11" d="M167,20.22A11.94,11.94,0,0,1,155.06,8.29V4.64l1.15-1.15h21.55l1.15,1.15V8.29A11.94,11.94,0,0,1,167,20.22ZM157.36,5.79v2.5a9.63,9.63,0,1,0,19.26,0V5.79Z"/><g id="_Group_16" data-name="&lt;Group&gt;"><path id="_Path_15" data-name="&lt;Path&gt;" class="cls-24" d="M158.84,15.26a10.77,10.77,0,0,0,16.29,0Z"/></g><g id="_Group_17" data-name="&lt;Group&gt;"><path id="_Compound_Path_13" data-name="&lt;Compound Path&gt;" class="cls-11" d="M167,20.13A11.92,11.92,0,0,1,158,16l.87-1.9h16.29L176,16A11.92,11.92,0,0,1,167,20.13Zm-5-3.72a9.61,9.61,0,0,0,10.08,0Z"/></g><path id="_Path_16" data-name="&lt;Path&gt;" class="cls-25" d="M176.42,30.26h-2.3a8.07,8.07,0,0,0-4-7l1.15-2A10.37,10.37,0,0,1,176.42,30.26Z"/><path id="_Path_17" data-name="&lt;Path&gt;" class="cls-20" d="M177.69,4.64H156.28a1.75,1.75,0,0,1-1.75-1.75h0a1.75,1.75,0,0,1,1.75-1.74h21.41a1.75,1.75,0,0,1,1.75,1.74h0A1.75,1.75,0,0,1,177.69,4.64Z"/><path id="_Compound_Path_14" data-name="&lt;Compound Path&gt;" class="cls-11" d="M177.69,5.79H156.28a2.89,2.89,0,1,1,0-5.79h21.41a2.89,2.89,0,1,1,0,5.79ZM156.28,2.3a.6.6,0,0,0,0,1.2h21.41a.6.6,0,0,0,0-1.2Z"/><path id="_Path_18" data-name="&lt;Path&gt;" class="cls-20" d="M177.69,37H156.28a1.75,1.75,0,0,1-1.75-1.74h0a1.75,1.75,0,0,1,1.75-1.75h21.41a1.75,1.75,0,0,1,1.75,1.75h0A1.75,1.75,0,0,1,177.69,37Z"/><path id="_Compound_Path_15" data-name="&lt;Compound Path&gt;" class="cls-11" d="M177.69,38.14H156.28a2.89,2.89,0,0,1,0-5.79h21.41a2.89,2.89,0,0,1,0,5.79Zm-21.41-3.49a.6.6,0,1,0,0,1.19h21.41a.6.6,0,0,0,0-1.19Z"/><circle class="cls-26" cx="171.43" cy="13.74" r="1.77"/><path class="cls-20" d="M292.28,57.74,270.66,45.43,247.82,58l8.41,4.59V76.83c0,1.54,1.32,2.36,2.79,2.79a40.13,40.13,0,0,0,10.78,1.71,49.16,49.16,0,0,0,11.91-1.71c1.46-.48,2.79-1.26,2.79-2.79V62.21Z"/><polygon class="cls-27" points="292.05 57.28 270.14 69.88 247.59 57.56 270.43 44.97 292.05 57.28"/><path class="cls-27" d="M284.28,61.75V76.36c0,1.54-1.34,2.31-2.79,2.79a49.36,49.36,0,0,1-11.92,1.7,40.18,40.18,0,0,1-10.78-1.7c-1.48-.43-2.79-1.26-2.79-2.79V62.16"/><line class="cls-27" x1="288.89" y1="59.45" x2="288.89" y2="85.75"/><rect class="cls-5" x="284.61" y="156.42" width="50.12" height="30.58" rx="3" ry="3"/><rect class="cls-27" x="284.61" y="156.42" width="50.12" height="30.58" rx="1" ry="1"/><rect class="cls-27" x="301.33" y="147.33" width="16.45" height="9.23" rx="3" ry="3"/><line class="cls-27" x1="284.62" y1="168.92" x2="333.63" y2="168.92"/><rect class="cls-24" x="306.28" y="164.68" width="7.96" height="8.05" rx="3" ry="3"/><rect class="cls-27" x="306.28" y="164.68" width="7.96" height="8.05" rx="3" ry="3"/><rect class="cls-12" x="311.9" y="174.09" width="2.34" height="16.7" rx="1.17" ry="1.17" transform="translate(130.62 495.51) rotate(-90)"/><rect class="cls-12" x="326.43" y="178.47" width="2.34" height="7.94" rx="1.17" ry="1.17" transform="translate(145.16 510.05) rotate(-90)"/></g></g></svg>