<svg xmlns="http://www.w3.org/2000/svg" viewBox="0 0 360.39 138.79"><defs><style>.cls-1{fill:#4dc0ac;}.cls-1,.cls-6{opacity:0.6;}.cls-2{fill:#f8991d;opacity:0.77;}.cls-3{fill:#fff;}.cls-4{fill:#482f27;}.cls-5{fill:none;stroke:#482f27;stroke-miterlimit:10;stroke-width:3px;}.cls-6{fill:#ededee;}.cls-7{opacity:0.55;}.cls-8{fill:#bcbcbc;}</style></defs><title>beavver-print</title><g id="Layer_2" data-name="Layer 2"><g id="Layer_2-2" data-name="Layer 2"><path class="cls-1" d="M144,75.88a6.2,6.2,0,0,0-.84-2.49l.35.08c-.54-.73-1.1-1.45-1.66-2.16l-.86-.51-1.87-.5a.89.89,0,0,0-.92.25,5.31,5.31,0,0,0-.92.1,9.06,9.06,0,0,0-.53-1.32l.29,0A6.61,6.61,0,0,1,135.6,68a65,65,0,0,0-15.31-.57,3.35,3.35,0,0,1-1.09-.06,59.4,59.4,0,0,1-9.86,0,24.79,24.79,0,0,0,1.78-5.8,24,24,0,0,0,2-5,.9.9,0,0,0,.19,0c4.55-1.65,5.58-10.63,4.89-14.71-.57-3.38-3.11-3.81-4.81-2.35a32.75,32.75,0,0,0-.88-3.29,1,1,0,0,0,.83-.21,17.88,17.88,0,0,0,5.8-8,.86.86,0,0,0,0-.54c1.46-5.16.28-11-4.41-14.22a14.31,14.31,0,0,0-13.23-1.05c-4,1.57-5.06,4.27-4.34,7.72a34.09,34.09,0,0,0-5.56-1.74,35.9,35.9,0,0,0-10.89-.76,14.78,14.78,0,0,1-1.85-1.87A20.09,20.09,0,0,0,77,12.87a1.42,1.42,0,0,0-.52-.4c-1.73-2.26-3.62-4.32-6.72-4.92C63.91,6.43,58,11,54.57,15.25c-3.3,4.09-5.43,10.43-1.62,14.93a10.7,10.7,0,0,0,4.82,3.16c-5,9.25-6.65,20.11-11.13,29.61-.25.37-.51.74-.75,1.12a1.4,1.4,0,0,0-.31.5,78,78,0,0,0-12.22,38.15,1.39,1.39,0,0,0,.34.94,12.58,12.58,0,0,0-3.65,8l-1.08-2a1.52,1.52,0,0,0-1.9-1.45c-9.52,2.29-15.19,10.47-20.13,18.31a1.52,1.52,0,0,0,1.69,2.2,43.16,43.16,0,0,0,9.53-3.85,39.11,39.11,0,0,0,31.08,13.92c10.73-.33,23-5.53,26.51-16.36a19.86,19.86,0,0,1,5.28,1.8,46.68,46.68,0,0,1,7.88,5.65c1.41,1.14,3.08,3,5,3.31,3.61.65,7-4.21,9.27-6.32L118.39,113a1.51,1.51,0,0,0-.66-2.51,28.26,28.26,0,0,0-17,.92,28.38,28.38,0,0,0-3-3.21,2.9,2.9,0,0,0,1,.16,1.47,1.47,0,0,0,.82-.26,1.58,1.58,0,0,0,.81,0l.33-.07a1.54,1.54,0,0,0,1.1-1.45c.29-3.19-1.5-7.26-2.48-10.24-.54-1.63-1.14-3.24-1.77-4.83,6,2.87,12.29,5.5,19.07,4.31,7.75-1.36,15.44-5.6,22-9.81a1,1,0,0,0,.45-.74C141.87,82.85,144.41,79.82,144,75.88Z"/><path class="cls-2" d="M144,75.88a6.2,6.2,0,0,0-.84-2.49l.35.08c-.54-.73-1.1-1.45-1.66-2.16l-.86-.51-1.87-.5a.89.89,0,0,0-.92.25,5.31,5.31,0,0,0-.92.1,9.06,9.06,0,0,0-.53-1.32l.29,0A6.61,6.61,0,0,1,135.6,68a65,65,0,0,0-15.31-.57,3.35,3.35,0,0,1-1.09-.06,59.4,59.4,0,0,1-9.86,0l.1-.25a21.78,21.78,0,0,1-3,0,13.77,13.77,0,0,1-6-.68,15.88,15.88,0,0,1-7.83-3,32.43,32.43,0,0,1-6.46-2.12,1.91,1.91,0,0,1-2,.59c-7.9-1.88-16.34-4.57-24.49-4.24a89.82,89.82,0,0,1-12.18,3.38q-.38.89-.8,1.77c-.25.37-.51.74-.75,1.12a1.4,1.4,0,0,0-.31.5,78,78,0,0,0-12.22,38.15,1.39,1.39,0,0,0,.34.94,12.58,12.58,0,0,0-3.65,8l-1.08-2a1.52,1.52,0,0,0-1.9-1.45c-9.52,2.29-15.19,10.47-20.13,18.31a1.52,1.52,0,0,0,1.69,2.2,43.16,43.16,0,0,0,9.53-3.85,39.11,39.11,0,0,0,31.08,13.92c10.73-.33,23-5.53,26.51-16.36a19.86,19.86,0,0,1,5.28,1.8,46.68,46.68,0,0,1,7.88,5.65c1.41,1.14,3.08,3,5,3.31,3.61.65,7-4.21,9.27-6.32L118.39,113a1.51,1.51,0,0,0-.66-2.51,28.26,28.26,0,0,0-17,.92,28.38,28.38,0,0,0-3-3.21,2.9,2.9,0,0,0,1,.16,1.47,1.47,0,0,0,.82-.26,1.58,1.58,0,0,0,.81,0l.33-.07a1.54,1.54,0,0,0,1.1-1.45c.29-3.19-1.5-7.26-2.48-10.24-.54-1.63-1.14-3.24-1.77-4.83,6,2.87,12.29,5.5,19.07,4.31,7.75-1.36,15.44-5.6,22-9.81a1,1,0,0,0,.45-.74C141.87,82.85,144.41,79.82,144,75.88Zm-12,7.24A4.9,4.9,0,0,1,128,86a3.13,3.13,0,0,1-3.08-2.54,4,4,0,0,1,1.36-3.7,8.68,8.68,0,0,1,.25-2,16.41,16.41,0,0,1-1.56,1.85,1.94,1.94,0,0,1-.55,1,10.22,10.22,0,0,1-2.13,1.69,1.91,1.91,0,0,1-1.49.2h0a2.06,2.06,0,0,1-2.49-1.41,6.86,6.86,0,0,1-.08-3.2,7.56,7.56,0,0,1,2.28-6c.89-1.44,2.25-2.79,3.83-2.91.78-.77,1.84-.86,3.41.29,1.78,1.32,1.53,3.43.75,5.27a5,5,0,0,1,.8-.53A5.47,5.47,0,0,1,130.86,73a2.81,2.81,0,0,1,1.43-.23,2.86,2.86,0,0,1,3.4,2.55,6.16,6.16,0,0,1-1.27,4.48A7.8,7.8,0,0,1,132,83.11Z"/><path class="cls-3" d="M102.8,60.24c-.89-1-2.3-1-3.52-.69l-.06,0a1.55,1.55,0,0,0-2.49.64,1.51,1.51,0,0,0,.13,2.46c0,.2.09.41.13.62s0,.34.07.51A1.46,1.46,0,0,0,96.78,65a2.81,2.81,0,0,0,5.51-1.13l0-.13.09,0a2.24,2.24,0,0,0,1-1.76A2.55,2.55,0,0,0,102.8,60.24Z"/><path class="cls-3" d="M38.92,122.77c-8.22-2.1-8.69-12.95-5.66-18.62,1.5-2.81-3.26-5.27-4.77-2.45-4.59,8.59-3,22.67,9,25.74C40.87,128.31,42.33,123.64,38.92,122.77Z"/><path class="cls-3" d="M117.37,69.39c-8,.56-15,1.85-22.28-2.29a58.06,58.06,0,0,0-18.82-7c-6.13-1.13-12.5-2.09-18.73-1.35-6.77.81-12.18,4-17.55,8-2,1.53,0,5,2,3.45,5.89-4.43,11.64-7.54,19.19-7.72a70.74,70.74,0,0,1,20.78,3c6.08,1.75,10.86,5.82,16.76,7.83s12.66.52,18.64.1C119.93,73.21,119.95,69.21,117.37,69.39Z"/><path class="cls-4" d="M154.43,73.37c-3.5,1.6-8.59-.08-12.14-.74-3.34-.62-6.64-1.42-9.92-2.33a.89.89,0,0,0-.92.25,5.31,5.31,0,0,0-.92.1,9.06,9.06,0,0,0-.53-1.32c1.29.15,2.59.31,3.88.44,5.72.57,14.33,2.75,19.6-.22a1,1,0,0,0-1-1.73c-2.9,1.63-7,.81-10.12.62q-5.18-.31-10.35-.87c-7.11-.77-14.17-1.93-21.17-3.38-1.26-.26-1.79,1.67-.53,1.93q2.72.56,5.45,1.06c-4.4.25-8.79.7-13.16.25a24.79,24.79,0,0,0,1.78-5.8,24,24,0,0,0,2-5,.9.9,0,0,0,.19,0c4.55-1.65,5.58-10.63,4.89-14.71-.57-3.38-3.11-3.81-4.81-2.35a32.75,32.75,0,0,0-.88-3.29,1,1,0,0,0,.83-.21,17.88,17.88,0,0,0,5.8-8,.86.86,0,0,0,0-.54c1.46-5.16.28-11-4.41-14.22a14.31,14.31,0,0,0-13.23-1.05c-4,1.57-5.06,4.27-4.34,7.72a34.09,34.09,0,0,0-5.56-1.74A35.9,35.9,0,0,0,74,17.48a14.78,14.78,0,0,1-1.85-1.87,20.09,20.09,0,0,0-1.92-2.74,1.42,1.42,0,0,0-.52-.4C68,10.21,66.12,8.14,63,7.55,57.18,6.43,51.27,11,47.84,15.25c-3.3,4.09-5.43,10.43-1.62,14.93A10.7,10.7,0,0,0,51,33.33c-5,9.25-6.65,20.11-11.13,29.61-.25.37-.51.74-.75,1.12a1.4,1.4,0,0,0-.31.5,78,78,0,0,0-12.22,38.15,1.39,1.39,0,0,0,.34.94,12.58,12.58,0,0,0-3.65,8l-1.08-2a1.52,1.52,0,0,0-1.9-1.45C10.82,110.48,5.15,118.66.21,126.5a1.52,1.52,0,0,0,1.69,2.2,43.16,43.16,0,0,0,9.53-3.85,39.11,39.11,0,0,0,31.08,13.92c10.73-.33,23-5.53,26.51-16.36a19.86,19.86,0,0,1,5.28,1.8,46.68,46.68,0,0,1,7.88,5.65c1.41,1.14,3.08,3,5,3.31,3.61.65,7-4.21,9.27-6.32L111.66,113a1.51,1.51,0,0,0-.66-2.51,28.26,28.26,0,0,0-17,.92,28.38,28.38,0,0,0-3-3.21,2.9,2.9,0,0,0,1,.16,1.47,1.47,0,0,0,.82-.26,1.58,1.58,0,0,0,.81,0L94,108a1.54,1.54,0,0,0,1.1-1.45c.29-3.19-1.5-7.26-2.48-10.24-.54-1.63-1.14-3.24-1.77-4.83,6,2.87,12.29,5.5,19.07,4.31,7.75-1.36,15.44-5.6,22-9.81a1,1,0,0,0,.45-.74c2.81-2.43,5.35-5.47,4.91-9.4a6.2,6.2,0,0,0-.84-2.49c3.43.81,6.88,1.49,10.38,2,3,.42,5.85,1,8.66-.27C156.61,74.56,155.59,72.84,154.43,73.37Zm-35.18,2A7.08,7.08,0,0,1,122,70.46a1.53,1.53,0,0,0,.52-.6c1.39-.05,2.78.06,4.17.12l.09-.39c2.65,3.3.49,8-2.47,10.59a17,17,0,0,1-3.2,2.19,1.4,1.4,0,0,0-.72-.41C118.24,81.44,119,76.78,119.25,75.34Zm-4.41-5.24c1.17-.07,2.33-.13,3.5-.15a12.73,12.73,0,0,0-2.26,6.6c-.24,2.54-.27,5.76,1.68,7.4l-2.62,1.11,0,0C111.23,81.65,113.08,74.54,114.84,70.1Zm-2.17.13c-1.82,5-3.18,11.79.53,15.69-3.36,1.51-6.52,2.91-10.4,2.67s-7.37-1.8-11-2.92A78.15,78.15,0,0,0,52.91,84a1.25,1.25,0,0,0-1,1c-3.21.75-5.31.85-4.89-2.93A32.47,32.47,0,0,1,49.13,75a50.68,50.68,0,0,1,8.2-14.57,1.08,1.08,0,0,0,.16-.27c14-2.23,28.79,2.31,41.22,9.93a1.33,1.33,0,0,0,1.37.07A55.47,55.47,0,0,0,112.67,70.24ZM88.44,105.75c.21.26.41.51.61.76a38.15,38.15,0,0,0-6.47-4l.06-.09c.18-.33.34-.66.51-1a4.34,4.34,0,0,0,.43.72C84.78,103.66,87.09,104.12,88.44,105.75Zm8.92-46a43.58,43.58,0,0,0,4.53.2c-.09.17-.2.33-.29.49a1.4,1.4,0,0,1,.44,1.1,12.77,12.77,0,0,1-.71,3.67,1.68,1.68,0,0,1-.61.84,1.59,1.59,0,0,1-2,.42,8.08,8.08,0,0,1-1.38-.93l-.2.17h0L97,65.6A21.16,21.16,0,0,0,97.37,59.7Zm12.15-17.27a10.14,10.14,0,0,1,.13,1.94,17.72,17.72,0,0,1-.34,3.5c-.29,1.49-1,4.65-2.26,6.14a36.59,36.59,0,0,0,.18-11.44C108.83,41,109.6,40.93,109.51,42.43Zm-1.43-25.11c4.17,4.69,1.56,13.05-3.45,16A25.51,25.51,0,0,0,94.15,21.81a1.59,1.59,0,0,0,0-.16C90.8,13.12,103.77,12.47,108.09,17.32ZM53.6,35.67a18.85,18.85,0,0,1,1.34-4.83c-.06-.26-.13-.52-.18-.78a7.13,7.13,0,0,1-2,.41l0,.06-.15,0-.28,0A1.61,1.61,0,0,1,51,29.93c-3-1.4-4.86-4.13-3.26-8.79s7.13-9.82,12-10.5c3.58-.49,5.92,1.48,8.08,4a1.61,1.61,0,0,0,.24.4,15.54,15.54,0,0,1,3.23,6.82c.4,1.89,3.29,1.09,2.89-.8,0-.19-.09-.37-.14-.56a17.2,17.2,0,0,1,3.31,0s0-.06,0-.09h.42c11.74.44,22.45,6.34,25.53,18.21a36.27,36.27,0,0,1,1.1,12.23c-2-.88-4.94-.81-5.77,1.17-.59,1.41.5,2.61,1.75,3.07a6.32,6.32,0,0,0,2,.35,21,21,0,0,1-.2,2.33,1,1,0,0,0-.16.18A41.58,41.58,0,0,1,91.2,56.65a1,1,0,0,0-.53,1.93,44.1,44.1,0,0,0,4.68.89,19.55,19.55,0,0,1-.16,5.14c-16-8.35-34.87-11.44-51.31-3.29C47.21,53.19,49.58,43.56,53.6,35.67ZM41.39,66.15a42.62,42.62,0,0,1,13.23-5.47A57.86,57.86,0,0,0,45,81.56c-.34,1.38-1.54,4.13-.3,5.46,1.49,1.6,6.07.3,7.8-.1a.94.94,0,0,0,.24-.11,1.51,1.51,0,0,0,.93.09,75.56,75.56,0,0,1,28-.57,78,78,0,0,0,.48,9.59c0,.15,0,.32,0,.48-.21.46-.43.91-.65,1.37-8.55-2.37-17.2-4.69-26.1-5.2s-17,1.34-25.28,4A75,75,0,0,1,41.39,66.15Zm39.3,33.44c-.21.42-.42.84-.64,1.26a1.61,1.61,0,0,0-.14.39c-1.57-.66-3.17-1.24-4.79-1.76a4.54,4.54,0,0,0,.3-1.32Q78.06,98.86,80.69,99.59ZM30,98.75C38.3,96,46.63,94.05,55.5,94.56a95.06,95.06,0,0,1,17.92,3.08,2.88,2.88,0,0,1-.22,1.26A74.17,74.17,0,0,0,64.74,97a69.19,69.19,0,0,0-35,3.43C29.83,99.9,29.89,99.32,30,98.75Zm9.76,37A36.21,36.21,0,0,1,12.87,121.9a1.51,1.51,0,0,0-1.82-.23,40.44,40.44,0,0,1-6,2.84c3.69-5.54,8-10.78,14.42-12.94.38,1.84,1.27,3.42,3.42,3.73a1.61,1.61,0,0,0,.6,0,16.87,16.87,0,0,0,3,7c7.46,10.21,16.94,4.4,26.73,1.6A38.81,38.81,0,0,1,66,122C62.28,132.16,49.73,136.23,39.72,135.75Zm51.57-23c-.68,1,.63,2.77,2.1,2.1a24.91,24.91,0,0,1,14-2l-8.91,8.12-5.54,5c-.85.77-2.95,3.55-4.16,3.79-3.29.65-8.74-5.7-11.47-7.34a23.86,23.86,0,0,0-9.35-3.26c-8.15-1-16.18,1.78-23.73,4.49-5.59,2-10.38,2.68-14.63-2.38-4-4.77-5.09-12.22.38-16.37a1.57,1.57,0,0,0,.6-1.56A66.8,66.8,0,0,1,61,99.54C71.47,100.68,84.33,104.22,91.28,112.74Zm-.36-12.57a2.29,2.29,0,0,1,.19.93,19.09,19.09,0,0,1,1,4.24h0c-.69,0-2-2.38-2.55-3-.86-.86-2-1.19-2.81-1.94-2.6-2.29-2.21-9.28-2-13.53L85,87l.79.19h0a2.25,2.25,0,0,1,1.79,2.6c.1-.57.29,1,.37,1.3.26,1.06.57,2.1.9,3.14A59,59,0,0,0,90.92,100.17Zm21.34-7c-7.88,2.14-14.59-.6-21.62-4a1,1,0,0,0-.76-.05c-.14-.32-.26-.65-.4-1,7,2.15,13.85,5,21.17,2.12,4.23-1.66,9.37-3.4,13.47-6.17a4.67,4.67,0,0,0,2.24,2.93A59.79,59.79,0,0,1,112.26,93.2Zm22.19-13.32c-1.17,2.28-3.34,3.91-5.31,5.45a1.07,1.07,0,0,0-.16.16l-.31.19a2.75,2.75,0,0,1-2.7-2.3.87.87,0,0,0-.24-.46A16.3,16.3,0,0,0,129,79.4a10.74,10.74,0,0,0,1.88-6.77C135,71.66,135.94,77,134.45,79.88Z"/><path class="cls-4" d="M98.59,42.88a67.89,67.89,0,0,1-13.75-6.62c-1.64-1-3.15,1.57-1.51,2.59a70.74,70.74,0,0,0,10.14,5.24c-3.83,1.24-7.55,2.85-11.28,4.39-1.76.73-1,3.63.8,2.89,5.12-2.12,10.19-4.36,15.6-5.61C100.12,45.41,99.9,43.33,98.59,42.88Z"/><path class="cls-4" d="M69.32,35.14c-.29-1.25-2.22-.72-1.93.53A3.65,3.65,0,0,1,67,38.39a2.3,2.3,0,0,1-1,1c-.87.39-1.62-.2-1.65-1.21-.07-2,1.37-4.23,2.39-5.81.7-1.08-1-2.09-1.73-1-1.52,2.34-4.82,8.45-.7,10.11C68,42.9,69.94,37.83,69.32,35.14Z"/><path class="cls-4" d="M70.8,46.83c0,.37-.15,1.37-.69,1.17-.83-.3-.13-1.9.07-2.37a1,1,0,0,0-.36-1.37,1,1,0,0,0-1.37.36c-.74,1.74-1.3,4.44,1,5.29,2,.72,3.27-1.35,3.31-3.08A1,1,0,0,0,70.8,46.83Z"/><path class="cls-4" d="M44.19,4.07c-1.7-1.83-6.11-5.7-8.73-3.32-2.77,2.52,1.91,6.58,4,7.57,1.16.54,2.17-1.18,1-1.73A7.78,7.78,0,0,1,38.14,5c-.52-.54-2.36-2.7-.62-2.89.85-.09,2,.7,2.61,1.13a13.77,13.77,0,0,1,2.64,2.26C43.65,6.43,45.07,5,44.19,4.07Z"/><path class="cls-4" d="M38.4,19.05a8.58,8.58,0,0,1-2.55-.72c-.66-.36-1.47-1.18-1.16-2,.44-1.19,2.35-.72,3.14-.26a1,1,0,0,0,1-1.73c-1.88-1.12-5.07-1.14-6,1.24a3.54,3.54,0,0,0,1,3.72A7.43,7.43,0,0,0,37.86,21C39.12,21.21,39.66,19.29,38.4,19.05Z"/><path class="cls-4" d="M22.42,5.27c1-.37,2.37.81,3.06,1.41,1,.83,2.39-.57,1.41-1.41C25.64,4.18,24,3,22.27,3.26A3.17,3.17,0,0,0,19.65,6c-.59,3.64,3,5.23,5.93,6a1,1,0,0,0,.53-1.93c-1.59-.42-3.93-.94-4.43-2.78A1.57,1.57,0,0,1,22.42,5.27Z"/><path class="cls-4" d="M172.5,30.27a63.15,63.15,0,0,0-18.62-7.74.82.82,0,0,0-.94-.78,128.68,128.68,0,0,0-37,9.22,1.64,1.64,0,0,1-.33.26,32.26,32.26,0,0,0-4.8,3.37h0a1,1,0,0,0,1.19.24l.06,0a50.29,50.29,0,0,1,18.26,6.86,1,1,0,0,0,1,0,63.35,63.35,0,0,1,34.94-10.33,1.72,1.72,0,0,1,.37-.07c2.11-.15,4.21-.29,6.32-.37A.94.94,0,0,0,172.5,30.27Zm-32,4.15c-2.56,1.09-4.9,2.56-7.4,3.74-2.88,1.37-4,.32-6.8-1a49.55,49.55,0,0,0-11-3.77,125.81,125.81,0,0,1,36.31-9.48.9.9,0,0,0,.45.25,61.52,61.52,0,0,1,14.64,5.18A64.58,64.58,0,0,0,140.52,34.43Z"/><path class="cls-4" d="M165.63,38.52l-27,.58a1,1,0,0,0,0,2l23.36-.5-6,3.7a1,1,0,0,0-.35.39c-1.89,1.21-8.3.54-10.14.56q-4.84,0-9.67-.18c-6-.26-12.16-.5-17.75-2.73a32.57,32.57,0,0,0,6.5-1,1,1,0,0,0-.53-1.93,30.54,30.54,0,0,1-10.17.83c-1.28-.11-1.28,1.89,0,2l.25,0a.87.87,0,0,0,.48.65c6.83,3.62,14.62,3.88,22.2,4.18q6.77.26,13.54,0c2.26-.07,5.23.48,7-1.23a.93.93,0,0,0,.09-.13l8.75-5.39A1,1,0,0,0,165.63,38.52Z"/><path class="cls-4" d="M156.62,48a82.76,82.76,0,0,1-42.42-3.38c-1.22-.43-1.74,1.51-.53,1.93a84.8,84.8,0,0,0,43.48,3.38C158.42,49.7,157.88,47.77,156.62,48Z"/><path class="cls-4" d="M157.12,51.36c-5.7,3.44-15.17,2.41-21.62,2.28a147.33,147.33,0,0,1-22.94-2.34c-1.26-.22-1.8,1.7-.53,1.93a150.64,150.64,0,0,0,25.42,2.44c6.42,0,15,.87,20.69-2.58A1,1,0,0,0,157.12,51.36Z"/><path class="cls-4" d="M154.2,58.86c0,.83-18.64.22-20.14.12a143.45,143.45,0,0,1-21.35-3.24c-1.25-.28-1.79,1.64-.53,1.93,5,1.14,44.34,7.77,44,1.19C156.14,57.58,154.14,57.57,154.2,58.86Z"/><path class="cls-4" d="M156.35,62l-.23-.37c-.67-1.09-2.4-.09-1.73,1-.62-1-9.2.62-10.55.73-3.54.28-7.08.46-10.63.45a61.17,61.17,0,0,1-22-3.86c-1.2-.46-1.72,1.47-.53,1.93C118.8,65,127.26,66,135.87,65.83c4.44-.09,8.87-.46,13.29-.91,2.13-.22,5.55.25,7-1.67A1,1,0,0,0,156.35,62Z"/><circle class="cls-5" cx="87.26" cy="42.87" r="9.28"/><path class="cls-4" d="M106.65,45.71A12.42,12.42,0,0,0,96.57,43c-1,.15-.88,1.29-.24,1.75a.94.94,0,0,0,1,1.05,14.77,14.77,0,0,1,8.21,2.38c.92.59,1.78-.57,1.36-1.35A.8.8,0,0,0,106.65,45.71Z"/><path class="cls-6" d="M86.26,46.93l-.88-8.83c-.19-1.9-3.19-1.92-3,0l.88,8.83C83.45,48.83,86.45,48.85,86.26,46.93Z"/><path class="cls-6" d="M89.45,41.91a1.55,1.55,0,0,0-1.5-1.5c-.73,0-1.61.69-1.5,1.5l.49,3.65a1.55,1.55,0,0,0,1.5,1.5c.73,0,1.61-.69,1.5-1.5Z"/><g class="cls-7"><rect class="cls-8" x="194.09" y="74.61" width="37.68" height="53.77"/><polygon class="cls-8" points="211.94 35.21 209.99 38.57 223.84 46.57 194.09 46.57 194.09 50.45 231.77 50.45 231.77 46.57 231.61 46.57 211.94 35.21"/><polygon class="cls-8" points="358.44 59.61 347.35 66.02 347.35 54.57 360.39 47.04 358.44 43.68 347.35 50.08 347.35 46.57 309.68 46.57 309.68 128.38 347.35 128.38 347.35 70.5 360.39 62.97 358.44 59.61"/><rect class="cls-8" x="233.04" y="38.68" width="75.36" height="6.7"/><rect class="cls-8" x="279.95" y="30.95" width="28.45" height="6.7"/><path class="cls-8" d="M259.64,100.1h0v17.23h48.33v1H259.59v4.76H308.4V100.22C308.13,100.22,281.09,100.12,259.64,100.1Z"/><path class="cls-8" d="M233,99.22c.41,0,2.62-.14,26.6-.12,21.44,0,48.45.12,48.76.12V46.57H233Zm7.67-49.91h28.45V56H240.72Zm2,24.07.15-.2h57.33l1.95,3.7-.88.46-1.66-3.16H243.31c-.84,1.11-2.1,2.81-2.27,3.15l-.89-.45C240.44,76.3,242.44,73.67,242.67,73.37Z"/><path class="cls-8" d="M259.59,128h-1V100.1c-20.14,0-25,.05-25.49.12l-.06-.5v28.67H308.4v-4.3H259.59Z"/></g></g></g></svg>