<?xml version="1.0" encoding="utf-8"?>
<!-- Generator: Adobe Illustrator 21.1.0, SVG Export Plug-In . SVG Version: 6.00 Build 0)  -->
<svg version="1.1" id="Layer_1" xmlns="http://www.w3.org/2000/svg" xmlns:xlink="http://www.w3.org/1999/xlink" x="0px" y="0px"
	 viewBox="0 0 330.6 118.1" style="enable-background:new 0 0 330.6 118.1;" xml:space="preserve">
<style type="text/css">
	.st0{opacity:0.6;fill:#4DC0AC;enable-background:new    ;}
	.st1{fill:#BCBCBC;}
	.st2{opacity:0.77;fill:#F8991D;enable-background:new    ;}
	.st3{fill:#FFFFFF;}
	.st4{fill:#EDEDEE;}
	.st5{opacity:0.55;fill:#EB3724;enable-background:new    ;}
	.st6{fill:#482F27;}
	.st7{opacity:0.6;}
	.st8{opacity:0.55;fill:#BCBCBC;enable-background:new    ;}
</style>
<title>beavver-computer</title>
<g id="Layer_2">
	<g id="Layer_2-2">
		<path class="st0" d="M228.2,113.8c-1.2-0.2-2.3-0.5-3.4-0.8c-0.1,0.2-0.2,0.5-0.4,0.7c1.4,0.3,2.7,0.6,4.1,0.9
			C228.4,114.3,228.3,114,228.2,113.8z"/>
		<path class="st0" d="M170.5,61.8c0.1,1.5,0.4,3,0.8,4.5c0.1,0.3,0.3,0.5,0.4,0.8l0.1-0.3l0,0c0.1,0.4,0.2,0.8,0.4,1.2
			c3.5,7.1,9,13,15.8,17c0.7,0.3,1,1,1,1.7c1.5,0.1,2.9,0.3,4.3,0.8c-0.9-0.2-1.8,0-2.6,0.6c-0.2,0.1-0.4,0.1-0.6,0.2l-0.4,0.1
			c-0.5,0-1.1,0-1.6,0c-0.5,0.4-1.1,0.5-1.7,0.3c-3.3,0.9-5.3,4.1-4.8,7.4c0,0.3,0.1,0.6,0.2,0.9c-0.9,2.2-0.8,4.4,1.2,6
			c2.5,2,7.5,1.1,10.4,0.5c1.9-0.3,3.8-1.1,5.4-2.2c1.4,0.2,2.8-0.4,3.8-1.5c1.4-1.5,2.1-3.6,1.8-5.6c1.8-0.9,3.5-1.9,5.2-2.9
			l3.9,5.2c0.9,1.4,1.9,2.6,3.1,3.8c-0.4,0-0.9,0.1-1.4,0.1c1.1,0.1,2.2-0.1,3.3,0.1c1.1-1.1,2.5-1.9,4-2.4c4.5-1.4,10-1.4,14.6-0.8
			c0.9,0.1,1.7,0.5,2.4,1c0.6,0.2,1,0.4,1.6,0.6c0.2,0.1,0.4,0.2,0.6,0.4c-0.9-5.8-0.6-11.9-1.3-17.6c-0.8-6-2.3-13.9,1.2-19.4
			c0-4.4,0.7-8.8,2.1-13.1c0.1-0.2,0.1-0.3,0.2-0.5c1.2-4.2,5-6.1,9.3-6.2c-0.3-1.3-0.6-2.6-1.1-3.8c9.8-6.9,8.7-19.5-0.1-26.9
			c-3.6-3.1-8.2-5.5-13.1-4.4c-4.5,1-7.8,4.4-9.7,8.4c-4.8-2-10-2.9-15.2-2.8c-2.6,0.2-5.2,0.8-7.7,1.8c-5-9-17.8-14.4-26.5-7.6
			c-5,4-6.2,11.1-4.6,17c1.2,4.1,3.7,9.5,7.6,12.2c-3.3,5.3-6.1,10.8-8.6,16.5c-1.2,2.8-2.2,5.7-3.2,8.6
			C170.8,61.5,170.6,61.6,170.5,61.8z"/>
		<path class="st1" d="M214.5,100.8c0.7-0.5,2.2-0.5,3-0.6c5.7-0.8,11.5,0,17.2,0.2l0,0c0.1,0.2,0.1,0.4,0.1,0.6
			c-2.2,0.2-4.4,0.3-6.6,0.1c-0.2-0.1-0.4-0.1-0.6,0c-1.3-0.1-2.6-0.2-3.9-0.2c-1.7-0.1-5.9-0.8-7.2,0.5c-2.2,2-0.2,4,1.6,4.8
			c0,0.4,0.3,0.7,0.7,0.8c6,0.8,12,0.8,18,0c0.7-0.1,0.8-0.7,0.7-1.2c0.3-0.3,0.5-0.8,0.4-1.3c-0.1-0.9-0.2-1.8-0.3-2.7
			c0-0.1,0-0.2,0-0.3c-1.1-9.5-1.5-19.1-1.2-28.7c0.2-5.2,0.5-10.4,1.1-15.6c0.4-4.2,0.6-9.1,3.6-11.9c26.4-5.1,53.6-3.6,79.2,4.6
			l0,0c3.8,4,2.8,13.4,2.8,18.7c0,5.7-0.2,11.5-0.6,17.1c-0.4,5.6-0.8,11.2-1.5,16.8c-0.4,3-1.1,6.9-3.7,8.4c-2.5,1.4-7-0.1-9.6-0.5
			c-19.5-3-39.2-4-58.9-2.8c-1.7,0.1-1.2,3,0.4,2.9c13.1-0.8,26.2-0.6,39.3,0.5c6.3,0.5,12.6,1.3,18.9,2.3c3.6,0.6,8,2.1,11.4,0
			c0,3.3-7.1,2.5-8.2,2.5l-6.8-0.1c-3.9-0.1-7.9-0.2-11.8-0.2c-7.9-0.2-15.7-0.4-23.6-0.7c-16.1-0.6-32.1-1.4-48.2-2.4
			c-2-2-3.8-4.2-5.5-6.4C213.3,104.5,211.5,103,214.5,100.8z"/>
		<path class="st2" d="M163.1,91.7c0,2,0.1,4,0.3,5.9c0.2,0.2,0.4,0.4,0.7,0.5l0.3,0.1c0.4,0.3,0.9,0.5,1.4,0.6
			c0.9,0.3,1.8,0.5,2.8,0.7c4.5,1.4,9.1,2.4,13.8,2.9c-0.4-0.7-0.7-1.4-0.9-2.1c-0.1-0.3-0.1-0.7-0.2-1c-0.4-0.6-0.7-1.2-0.8-1.9
			c-0.3-1.2,0.1-2.5,0.9-3.4c0.3-1.8,0.9-3.5,1.9-5c0.5-0.7,1.4-1,2.2-0.7c1.5-1.3,3.5-1.9,5.4-1.6c0.6,0.2,1.1,0.6,1.3,1.2
			c1,0.1,2,0.4,2.9,0.9c2,0.6,3.7,1.6,5.2,3c1.5,0.7,2.7,1.8,3.6,3.2c0.5,0.3,0.8,0.9,0.8,1.5c0,1-0.8,1.9-1.8,1.9
			c-0.5,0-2.1,1.4-2.8,1.7c-1.5,0.6-3,1-4.6,1.1c-0.9,0.1-1.8,0.2-2.8,0.2c-0.9,0.3-1.9,0.4-2.9,0.3c-0.1,0.1-0.1,0.1-0.2,0.2
			c-0.4,0.4-0.9,0.8-1.3,1.2c2.4,0.2,4.3,0.4,5.2,0.5c8.2,0.9,16.4,1.4,24.6,1.4c-0.2-0.3-0.4-0.7-0.6-1.1c-1.5-4.6,4.3-5.8,7.5-5.4
			c0.3,0,0.7,0.1,1,0.2c0.9-0.2,1.7-0.3,2.6-0.2c3.5-1.3,7.3-1.5,10.9-0.4c0-0.1-0.1-0.1-0.2-0.2c0.8-0.5,1.1-1.6,0.7-2.5
			c0-0.2,0-0.4,0-0.5c-0.1-0.5-0.2-1-0.4-1.4c0.1-0.9,0.1-1.7,0.1-2.4c0.2-3.2,0.2-6.3,0.2-9.5c0-0.1,0-0.3,0-0.4
			c1.2-1.1,0.1-3.7-2-3.4c-1.3,0.2-2.7,0.3-4,0.5c-0.9,0-1.8,0-2.7,0c-0.9,0.9-2.1,1.4-3.4,1.2c-4-0.2-8-0.9-11.9-1.8l0,0
			c-4.6-0.6-9.2-1.3-13.7-2.2c-3.7-0.6-7.3-1.5-10.8-2.7c-4.3-2.3-7.8-5.3-11.5-8.3c-2.7-1.5-5.3-3.1-7.8-4.9
			c-0.3,0.1-0.5,0.2-0.7,0.4h-0.1c-0.8,1.6-1.5,3.1-2.2,4.7c-0.1,0.3-0.2,0.6-0.3,0.9s-0.2,0.6-0.3,0.9c-3.3,7.8-5.1,16.2-5.4,24.7
			C163.2,91.4,163.1,91.6,163.1,91.7z"/>
		<path class="st3" d="M224.5,97.4c0.1-0.1,0.3-0.3,0.4-0.4l7.4-10.2c1.6-2.1-2-4.1-3.4-2l-5.7,7.9c-0.4,0.2-0.8,0.5-1,0.9l-0.1,0.2
			c0.2,0.3,0.4,0.6,0.5,0.8c0.3,0.5,0.6,0.9,0.9,1.4c0.1,0.2,0.1,0.1,0.1,0.1l0,0l0.1,0.1l0.1,0.1c0.4,0.2,0.2,0.2,0,0
			c-0.2-0.1-0.3-0.1-0.5-0.2C223.8,96.2,224.3,96.7,224.5,97.4z"/>
		<path class="st4" d="M216.2,68.6l15.9,1.1l2.6-11.4c-0.7-0.1-1.4-0.2-2.1-0.2c-0.3,0.6-0.9,1.1-1.6,1c-2,0.1-3.9-0.1-5.9-0.4
			c-0.6-0.1-1-0.5-1.2-1.1l-7.1-0.3L216.2,68.6z"/>
		<path class="st1" d="M219.2,66.3c0.5,0.2,1.1,0,1.3-0.5c0.1-0.1,0.1-0.1,0.2-0.2l0.1-0.2c0.1-0.1,0.1-0.3,0.1-0.4
			c0.4-1.2,0.7-2.4,1-3.7c0.2-1,0.6-1.9-0.1-2.8c-0.3-0.3-0.8-0.4-1.2-0.2c-0.9,0.5-0.9,1.9-1.1,2.8l-0.9,4.1
			C218.6,65.7,218.8,66.1,219.2,66.3z"/>
		<path class="st3" d="M230.9,66.3c0.4,0.3,1.1,0.2,1.4-0.2c1.2-2,2.2-4.2,2.9-6.4c0.4-1.2-1.5-1.8-1.9-0.5c-0.7,2.1-1.6,4.1-2.8,6
			C230.3,65.5,230.5,66,230.9,66.3z"/>
		<path class="st5" d="M264.5,79.3c-0.2,0.3-0.1,0.8,0.2,1c2.7,1.7,5.4,3.2,8.2,4.7c-0.8,0.5-1.5,1.1-2.2,1.7
			c-0.5,0.4,0,1.2,0.5,1.2l7.9,0.8c0.5,0.2,1.1,0.3,1.7,0.2h0.2c-0.3,2.1-0.6,4.4-0.1,5.8c0,0.1,0.1,0.2,0.2,0.3
			c0.3,0.3,0.7,0.3,1,0L282,95c0.3-0.3,0.3-0.7,0-1c-0.2-1.4,0.3-3.7,0.5-5l2.1,0.1h0.1c0.1,0,0.2,0,0.2,0l8.2-0.8
			c0.5-0.1,1-0.8,0.5-1.2c-0.7-0.6-1.4-1.2-2.2-1.7c2.8-1.5,5.5-3,8.2-4.7c0.1-0.1,0.2-0.2,0.3-0.3c0.1-0.4-0.1-0.8-0.4-0.9
			c-1.9-0.4-3.8-0.4-5.6-0.2c0.9-1.6,1.7-3.3,2.4-5c0.2-0.5-0.2-1.3-0.8-1.1c-1,0.4-2,0.9-2.9,1.5c0.1-1.2,0.1-2.4,0-3.7
			c0-0.2-0.1-0.3-0.2-0.5c-0.3-0.3-0.7-0.3-1,0c-1.4,1.2-2.7,2.5-3.8,4c0.1-3.2,0.2-6.6-1.2-9.6c-0.1-0.1-0.1-0.2-0.3-0.3
			c-0.3-0.2-0.8-0.1-1,0.3c-0.4,0.9-0.7,1.8-1,2.7c-0.4-1.4-0.8-2.7-1.3-4c-0.1-0.2-0.3-0.4-0.5-0.5c-0.4-0.1-0.8,0.1-0.9,0.5
			c-0.1,0.3-0.2,0.6-0.3,0.9l0,0l0,0c-0.3,0.9-0.6,1.8-0.9,2.7c-0.3-0.9-0.6-1.8-1-2.7c-0.1-0.1-0.1-0.2-0.3-0.3
			c-0.3-0.2-0.8-0.1-1,0.3c-1.4,2.9-1.4,6.3-1.2,9.6c-1.1-1.5-2.4-2.8-3.8-4c-0.1-0.1-0.3-0.2-0.5-0.2c-0.4,0-0.7,0.3-0.8,0.7
			c-0.1,1.2-0.1,2.4,0,3.7c-0.9-0.6-1.9-1.1-2.9-1.5c-0.7-0.2-1,0.5-0.8,1.1c0.7,1.7,1.5,3.4,2.4,5c-1.9-0.2-3.8-0.2-5.6,0.2
			C264.7,79.1,264.5,79.2,264.5,79.3z"/>
		<path class="st6" d="M170.4,93.9c1.7-10.6,4.4-21,8-31.1l0,0c2.6,9.8,9.5,17.1,17.3,23.5c-5.4-1.5-11.4-0.6-14.7,4.6
			c-3,4.8-1.5,11.8,4.1,13.9c2.9,1.1,5.9,0.3,8.6-0.7c2.4-1,4.6-2.2,7.2-2.7c1.3-0.2,2.7-0.2,3.8-0.9c4-2.5,2-5.8-0.8-8.6
			c1.4,0.4,3,0.1,5.2-0.9c2.4-1,4.7-2.3,7-3.7l3.9,5.2c1,1.5,2.1,2.9,3.4,4.1c0.5,0.3,1,0.3,1.5,0c1.6-0.9,2.7-2.6,3.9-3.9l4.7-5.1
			l0.1-0.1l3.4,2.2c1.1,0.7,2.6,1.8,4.1,2.6c-0.3-1.2-0.5-2.5-0.7-3.8c-2.2-1.2-4.5-3.1-6-4l-5.4-3.3c3.6,0.1,7.2-0.1,10.8-0.5
			c0-1,0-2,0-3.1c-8.2,0.9-16.8,0.2-24.6-0.4c-13.1-1-27.1-4.8-34.3-16.6c-0.1-0.5-0.2-1.1-0.3-1.7c0-0.3-0.2-0.6-0.4-0.8
			c0.7-1.8,1.6-3.7,1.8-4.4c1-2.7,2.1-5.4,3.4-8c1.6-3.3,3.3-6.5,5.1-9.7c0.7-1.8,1.4-3.7,2.2-5.5l0,0c-0.3-0.3-0.7-0.5-1.2-0.5
			c-4.4-2.5-7.2-10.3-7.4-14.3c-0.3-5.1,2.2-10.4,7.3-12.1c7.2-2.3,15.3,1.8,18.8,8.1L210,12c0.5,0.9,0.9,1.8,1.2,2.8l0.2-0.1
			c0.5,1.6,0.7,3.2,0.5,4.9c0,0,0,0.1,0,0.1c0,0.1,0,0.1,0,0.2c0,0,0,0.1,0,0.1c-0.2,1.9,2.8,1.9,3,0c0.2-2.2,0-4.4-0.7-6.5
			c2.9-1.2,6.1-1.7,9.2-1.6c4.2,0.3,8.3,1.3,12.1,2.9c0.2,0.1,0.4,0.2,0.7,0.3c4.3,1.8,8.3,4.4,11.7,7.7c5.1,5,8.4,11.4,9.6,18.4
			c0.9-0.1,1.8-0.2,2.7-0.2h0.2c-0.4-2.2-0.9-4.3-1.6-6.4c9.8-6.9,8.7-19.5-0.1-26.9c-3.6-3.1-8.2-5.5-13.1-4.4
			c-4.5,1-7.8,4.4-9.7,8.4c-4.8-2-10-2.9-15.2-2.8c-2.6,0.2-5.2,0.8-7.7,1.8c-5-9-17.8-14.4-26.5-7.6c-5,4-6.2,11.1-4.6,17
			c1.2,4.1,3.7,9.5,7.6,12.2c-3.3,5.3-6.1,10.8-8.6,16.5c-1.2,2.8-2.2,5.7-3.2,8.6c-0.3,0.2-0.6,0.5-0.7,0.8
			c-4.3,11.3-7.5,23-9.4,34.9C167.2,95,170.1,95.8,170.4,93.9z M238.5,12.9c3.9-8.1,12.9-8,19.1-2c6.2,6,7,15.4-0.2,20.8
			c-2.2-5.1-5.6-9.5-9.8-13C244.8,16.4,241.8,14.4,238.5,12.9z M218.5,85.6c1.8-1.3,3.5-2.7,5.1-4.2l7.3,4.4l-3.5,3.8
			c-1,1.3-2.1,2.5-3.2,3.7c-1-1.2-1.9-2.5-2.7-3.8L218.5,85.6z M183.9,92.1c3.1-4.3,8.5-4.1,12.9-2.2c0.1,0.2,0.2,0.4,0.4,0.5
			c1.4,1,8.5,5.3,5.4,7.8c-0.6,0.5-2.7,0.3-3.4,0.5c-2.8,0.7-5.2,2.5-8,3.3C184.8,103.8,179.8,97.8,183.9,92.1L183.9,92.1z
			 M195.9,82.6c-4.6-3.7-8.5-8.2-11.6-13.3c7.4,6.5,17.4,9.6,27.4,10.6c2.7,0.3,5.4,0.6,8.3,0.8c-2.9,2.4-6,4.5-9.3,6.2
			c-4.1,2.1-6.1,2.6-9.9-0.4C199.1,85.3,197.5,84,195.9,82.6L195.9,82.6z"/>
		<path class="st6" d="M266.8,78.9c-0.2,0.4-0.1,0.8,0.3,1c2.8,1.7,5.6,3.3,8.5,4.8c-0.8,0.5-1.6,1.1-2.3,1.7
			c-0.5,0.5,0,1.2,0.5,1.3l8.5,0.9c1,0.1,0.9-1.4,0-1.5l-6.7-0.7c0.6-0.4,1.2-0.8,1.8-1.1c0.1-0.1,0.2-0.1,0.2-0.2
			c0.2-0.4,0.1-0.8-0.2-1c-2.6-1.3-5.2-2.8-7.8-4.3c1.6-0.1,3.1,0,4.6,0.3c0.2,0,0.4,0,0.5-0.1c0.4-0.2,0.5-0.7,0.3-1
			c-0.9-1.6-1.7-3.2-2.5-4.8c0.8,0.4,1.5,0.9,2.1,1.5c0.2,0.2,0.4,0.2,0.7,0.2c0.4-0.1,0.7-0.5,0.6-0.9c-0.1-1.2-0.1-2.3,0-3.5
			c1.5,1.5,2.9,3.1,4,4.8c0.1,0.2,0.4,0.4,0.6,0.4c0.4,0,0.8-0.3,0.8-0.7c-0.1-3.1-0.5-6.8,0.3-9.9c0.4,1.2,0.7,2.4,1,3.6
			c0,0.1,0.1,0.2,0.2,0.3c0.3,0.3,0.8,0.4,1.1,0.1c0.3-1.7,0.8-3.4,1.3-5.1l0,0c0.1,0.3,0.2,0.7,0.3,1c0.4,1.4,0.8,2.7,1,4.1
			c0.1,0.2,0.3,0.4,0.5,0.5c0.4,0.1,0.8-0.1,0.9-0.5c0.3-1.2,0.6-2.4,1-3.6c0.9,3.1,0.5,6.8,0.3,9.9c0,0.3,0.1,0.5,0.4,0.6
			c0.4,0.2,0.8,0.1,1-0.2c1.1-1.8,2.5-3.4,4-4.8c0,1.2-0.1,2.4-0.2,3.6c-0.1,0.2,0,0.5,0.2,0.7c0.3,0.3,0.8,0.3,1.1,0
			c0.6-0.6,1.3-1.2,2.1-1.6c-0.8,1.6-1.6,3.2-2.5,4.8c-0.1,0.2-0.1,0.4-0.1,0.5c0.1,0.4,0.5,0.6,0.9,0.5c1.5-0.4,3.1-0.5,4.7-0.3
			c-2.6,1.5-5.1,3-7.8,4.3c-0.1,0.1-0.2,0.1-0.2,0.2c-0.2,0.4-0.1,0.8,0.2,1c0.6,0.3,1.2,0.7,1.8,1.1l-6.7,0.7c-0.9,0.1-1,1.6,0,1.5
			l8.5-0.9c0.5-0.1,1.1-0.8,0.5-1.3c-0.7-0.6-1.5-1.2-2.3-1.7c2.9-1.5,5.7-3.1,8.5-4.8c0.2-0.1,0.3-0.3,0.3-0.4
			c0.1-0.4-0.1-0.8-0.5-0.9c-1.9-0.4-3.9-0.5-5.9-0.2c0.9-1.7,1.7-3.4,2.5-5.2c0.2-0.5-0.1-1.3-0.8-1.1c-1.1,0.4-2.1,0.9-3,1.5
			c0.1-1.3,0.1-2.5,0-3.8c0-0.2-0.1-0.4-0.2-0.5c-0.3-0.3-0.8-0.3-1.1,0c-1.5,1.3-2.8,2.6-4,4.2c0.1-3.4,0.2-6.9-1.3-9.9
			c-0.1-0.1-0.1-0.2-0.2-0.2c-0.4-0.2-0.8-0.1-1,0.2c-0.4,0.9-0.8,1.8-1.1,2.8c-0.4-1.4-0.8-2.8-1.4-4.1c-0.1-0.2-0.3-0.4-0.5-0.5
			c-0.4-0.1-0.8,0.1-0.9,0.5c-0.1,0.3-0.2,0.6-0.3,0.9l0,0l0,0c-0.3,0.9-0.6,1.8-0.9,2.8c-0.3-0.9-0.7-1.9-1.1-2.8
			c-0.1-0.1-0.1-0.2-0.2-0.2c-0.4-0.2-0.8-0.1-1,0.2c-1.5,3-1.4,6.6-1.3,9.9c-1.2-1.5-2.5-2.9-4-4.2c-0.1-0.1-0.3-0.2-0.5-0.2
			c-0.4,0-0.8,0.3-0.8,0.7c-0.1,1.3-0.1,2.5,0,3.8c-0.9-0.6-1.9-1.2-3-1.5c-0.7-0.2-1.1,0.6-0.8,1.1c0.8,1.8,1.6,3.5,2.5,5.2
			c-2-0.3-3.9-0.2-5.9,0.2C267,78.6,266.8,78.7,266.8,78.9z"/>
		<path class="st6" d="M284.2,85.9c-0.1,2.5-1.3,6.7-0.5,9c0,0.1,0.1,0.2,0.2,0.3c0.3,0.3,0.8,0.3,1.1,0l0.1-0.1
			c0.3-0.3,0.3-0.7,0-1c-0.3-1.5,0.4-4,0.5-5.4c0.1-1.4,0.1-2.8,0.2-4.2c0.1-3.3,0-6.6-0.2-9.9c0-1-1.5-1-1.5,0
			C284.3,78.3,284.3,82.1,284.2,85.9z"/>
		<path class="st6" d="M216.2,105c2,3,4.3,5.9,6.9,8.5c0,0.5,0.4,0.9,0.8,1c1,0.1,2,0.2,3,0.3v-0.1c19.6,1.2,39.2,2.1,58.8,2.7
			c10.4,0.3,20.8,0.6,31.2,0.7c3.9,0,11.4-0.9,9-7.6c2.1-3,2.5-7.3,2.9-11c0.8-6.9,1.3-13.9,1.6-20.9c0.2-6.8,0.3-13.6,0-20.4
			c-0.2-4.5-0.7-8.6-3.8-11.6c-0.2-0.3-0.6-0.4-0.9-0.3c-25.8-8.2-53.2-9.8-79.7-4.7c-0.4-0.1-0.8,0-1.1,0.2
			c-2.7,2.1-3.8,5.3-4.4,8.8c-0.9,5.8-1.4,11.6-1.6,17.4c-0.4,9.6-0.2,19.1,0.7,28.7c-4.7-0.2-9.5-0.6-14.2-0.4
			c-2.8,0.1-7.9,0.1-10.1,2.6C213.5,100.9,214.8,102.9,216.2,105z M219.6,99.9c0.7-0.5,2.2-0.5,3-0.6c5.6-0.8,11.5,0,17.2,0.2l0,0
			c0.1,0.2,0.1,0.4,0.1,0.6c-2.2,0.2-4.4,0.3-6.6,0.1c-0.2-0.1-0.4-0.1-0.6,0c-1.3-0.1-2.6-0.2-3.9-0.2c-1.7-0.1-5.9-0.8-7.2,0.5
			c-2.2,2-0.2,4,1.6,4.8c0,0.4,0.3,0.7,0.7,0.8c6,0.8,12,0.8,18,0c0.6-0.1,0.8-0.7,0.6-1.2c0.3-0.3,0.5-0.8,0.4-1.3
			c-0.1-0.9-0.2-1.8-0.3-2.7c0-0.1,0-0.2,0-0.3c-1.1-9.5-1.5-19.1-1.2-28.7c0.2-5.2,0.5-10.5,1.1-15.6c0.4-4.2,0.6-9.1,3.6-11.9
			c26.4-5.1,53.6-3.6,79.2,4.6l0,0c3.8,4,2.8,13.4,2.8,18.7c0,5.7-0.2,11.5-0.6,17.1s-0.8,11.2-1.5,16.8c-0.4,3-1.1,6.9-3.7,8.4
			c-2.5,1.4-7-0.1-9.6-0.5c-19.5-3-39.3-4-59-2.8c-1.7,0.1-1.2,3,0.4,2.9c13.1-0.8,26.2-0.6,39.3,0.5c6.3,0.5,12.6,1.3,18.9,2.3
			c3.6,0.6,8,2.1,11.4,0c0,3.3-7.1,2.5-8.2,2.5l-6.8-0.1c-3.9-0.1-7.9-0.2-11.8-0.2c-7.9-0.2-15.7-0.4-23.6-0.7
			c-16.1-0.6-32.1-1.4-48.2-2.4c-2-2-3.8-4.2-5.5-6.4C218.4,103.6,216.6,102.1,219.6,99.9z M232.8,102.3l2.1,2.4c-1.1,0-2.3,0-3.4,0
			c-0.1-0.1-0.1-0.2-0.2-0.3c-0.8-0.6-1.4-1.4-1.8-2.3L232.8,102.3z M235.3,102.4c1.6,0,3.3-0.1,4.9-0.3c0.1,0.6,0.1,1.3,0.2,1.9
			c0,0.1,0,0.2,0,0.2c-1.2,0.1-2.4,0.2-3.7,0.3c0-0.3,0-0.5-0.2-0.7L235.3,102.4z M228.8,104.6c-1.3-0.1-2.6-0.2-3.9-0.3
			c-0.1-0.3-0.3-0.5-0.6-0.5c-1.8-1.4-1.7-2,0.2-1.7c1,0,1.9,0,2.9,0C227.7,102.9,228.2,103.8,228.8,104.6L228.8,104.6z"/>
		<path class="st6" d="M245.7,108.2l3.1,0.5c1.1,0.2,1.3-1.8,0.2-2l-3.1-0.5C244.8,106,244.6,108,245.7,108.2z"/>
		<path class="st6" d="M215,43.7c0.1,0.1,0.2,0.2,0.3,0.2c0.1,0.1,0.2,0.1,0.2,0.2c0.4,0.3,1,0.3,1.5,0.2c0.1,0,0.2,0,0.2,0
			c1.2-0.3,2-1.5,1.7-2.7c-0.2-0.9-1.1-1.6-2-1.6c-0.9,0-1.7,0.5-2.1,1.3c-0.1,0.1-0.1,0.1-0.1,0.2c0,0.1-0.1,0.2-0.1,0.3
			C214.4,42.3,214.5,43.1,215,43.7z"/>
		<path class="st6" d="M237.7,43.7c0.1,0.1,0.2,0.2,0.3,0.2c0.1,0.1,0.2,0.1,0.2,0.2c0.4,0.3,1,0.3,1.5,0.2c0.1,0,0.2,0,0.2,0
			c1.2-0.3,2-1.5,1.7-2.7c-0.2-0.9-1.1-1.6-2-1.6c-0.9,0-1.8,0.5-2.2,1.3c-0.1,0.1-0.1,0.1-0.1,0.2c0,0.1-0.1,0.2-0.1,0.3
			C237.1,42.3,237.2,43.1,237.7,43.7z"/>
		<path class="st6" d="M213.1,55.6c1.7,1.1,3.6,2,5.5,2.7c-0.6,2.6-1,5.3-1.3,8c0,0.5,0.3,0.9,0.7,1c1.4,0.2,2.7,0.4,4.1,0.5
			c0.1,0.1,0.3,0.2,0.5,0.2c2.2,0.2,4.4,0.3,6.6,0.3c1.1,0.1,2.2-0.1,3.2-0.6c2.2-1.5,3.2-6,3.9-8.5c0.9-0.3,1.8-0.6,2.6-1
			c1.2-0.6,0.2-2.3-1-1.7c-2.7,1.2-5.6,1.8-8.6,1.7c0.1-1.8,0.2-3.6,0.3-5.4h3.4c2.7,0,3.1-3.6,1.3-4.7c-0.3-0.3-0.7-0.6-1.1-0.7
			c-3-0.5-6.1-0.5-9.1,0.1c-0.2,0-0.5,0.1-0.7,0.2h-0.1c-3.2,0-3.2,5,0,5h4.4c-0.1,1.8-0.1,3.6-0.3,5.4c-2.3-0.2-4.7-0.6-6.9-1.2
			c-0.2-0.2-0.5-0.3-0.8-0.3c-1.9-0.6-3.8-1.5-5.5-2.6C213.1,53.1,212.1,54.9,213.1,55.6z M226.6,66.5c0.3-0.6,0.5-1.4,0.7-1.9
			l1.8-4.4c1.7,0,3.4-0.1,5-0.4c-0.6,2.3-1.4,5.4-3.2,6.3C229.6,66.5,228.1,66.7,226.6,66.5z M219.5,65.6c0.3-2.2,0.6-4.4,1.1-6.6
			c2.1,0.6,4.3,1,6.4,1.2l-1.1,2.7l-0.6,1.5c-0.1,0.2-0.3,1-0.5,1.4c-0.2,0-0.3,0.1-0.5,0.3C222.7,66,221.1,65.8,219.5,65.6
			L219.5,65.6z"/>
		<path class="st6" d="M201.3,39.4c-1.3,6.7,3,13.2,9.7,14.5c6.7,1.3,13.2-3,14.5-9.7c1.6-0.7,3.5-0.5,5,0.5c0.9,5.1,4.9,9.1,9.9,10
			c0.4-1.1,1-2,1.7-2.9c-5-0.3-8.9-4.5-8.8-9.5c0.1-5.1,4.4-9.2,9.5-9c5.1,0.1,9.2,4.4,9,9.5c0,0.2,0,0.3,0,0.5
			c0.7-0.4,1.4-0.8,2.1-1.1c0.3-0.1,0.7-0.2,1-0.2c-0.2-5.6-4.2-10.3-9.6-11.5c-6.7-1.5-13.3,2.6-14.8,9.3c-1.6-0.9-3.4-1-5.1-0.4
			c-1.1-5.7-6-9.8-11.8-9.9C207.7,29.2,202.4,33.4,201.3,39.4z M204.2,41.5C204.2,41.5,204.2,41.5,204.2,41.5c0.1-5.2,4.4-9.2,9.5-9
			s9.1,4.4,9,9.5c-0.1,5.1-4.4,9.1-9.5,9C208.1,50.8,204.1,46.6,204.2,41.5z"/>
		<g class="st7">
			<path class="st4" d="M214.8,46.9c-0.1,2.6,3.9,2.6,4,0l0.6-10.5c0.2-2.6-3.8-2.6-4,0L214.8,46.9z"/>
			<path class="st4" d="M210.5,39.7v4.9c0,2.6,4,2.6,4,0v-4.9C214.5,37.1,210.5,37.1,210.5,39.7z"/>
			<path class="st4" d="M248.4,41.2l0.1-3.9c0.1-2.6-3.9-2.6-4,0l-0.2,4.9l0,0c0.7-0.4,1.4-0.7,2.2-0.8
				C247.2,41.3,247.8,41.2,248.4,41.2z"/>
		</g>
		<path class="st8" d="M68.6,70.6c0.5,1.2,1,2.4,1.5,3.6c-1.3-1-2.2-2.3-2.9-3.8c-0.7-1.4-2.8-1.7-4-1c-1.3,0.9-1.8,2.6-1,4
			c0.6,1.4,1.4,2.6,2.4,3.7h-0.5l0,0c-2.9,0-5.2,2.3-5.2,5.2v19.9l0,0c0,2.9,2.3,5.2,5.2,5.2h29.7l0,0c2.9,0,5.2-2.3,5.2-5.2V82.4
			l0,0c0-2.9-2.3-5.2-5.2-5.2h-5.4c2.5-1.8,4.6-4.2,6-6.9c0.7-0.7,1.2-1.7,1.1-2.7c0.1-1.8-1-3.4-2.7-3.9c-1.3-0.4-2.7,0-3.6,1.1
			c-1.1,0.5-2.1,1-3.2,1.7c0.2-0.7,0.3-1.4,0.4-2.2c3.9-0.7,7.9-3.5,10.6-5.7c4.8-4.1,8.2-9.7,9.5-15.9c1-4.6-6-6.5-7-1.9
			c-0.8,3.9-2.6,7.6-5.3,10.6l-0.1,0.1c0.7-1.7,1.2-3.4,1.7-5.2c0.9-3.6-4.7-5.2-5.6-1.5c-0.3,1.4-0.8,2.8-1.4,4.1l-0.1,0.3
			c-0.2,0-0.4,0-0.6,0c0.1-1.6-1-2.9-2.5-3.3c3.6-2.4,6.4-5.8,7.8-9.9c1.3-3.5-4.3-5-5.6-1.5c-0.9,2.3-2.4,4.4-4.4,5.9
			c0.1-2.7,0.4-5.3,1-7.9c1-4.6-6-6.5-7-1.9c-1.3,5.9-1.6,11.9-0.8,17.9l-0.4-0.8c-1.1-2.4-1.9-4.7-4.5-5.7
			c-1.6-0.4-3.3,0.2-4.1,1.7l-0.1,0.3c-0.7,1.7-0.6,4,1.3,5H69c1,1.6,1.8,3.3,2.5,5.1c-1.9-1.4-5-1.2-5.7,1.8v0.1
			c-0.8-1.6-1.5-3.2-2.1-5c-1.5-4.4-8.5-2.5-7,1.9C58.9,59.6,63,65.8,68.6,70.6z M74.1,60.8c0.7,2,1.2,4,1.5,6.1l-0.9-0.7
			c-1.1-2.7-2.4-6-1.8-8.7c0-0.1,0-0.2,0-0.2C73.3,58.5,73.7,59.7,74.1,60.8L74.1,60.8z"/>
		<path class="st8" d="M0.5,72.3c2,1,4.4,1,6.5,0.1c2.7,1.1,5.6,1.4,8.5,0.9l0,0c1.3,0.6,2.6,1.2,3.9,1.9l0.4,0.2
			c0.1,0.1,0.3,0.2,0.5,0.3c3.4,2.1,5.9,5.4,7,9.2c-1.3-1.1-2.8-1.9-4.4-2.5c-4.3-1.5-8.5-2.7-12.3-5c-1.1-0.7-2.6,0.5-1.5,1.2
			s2.1,1.2,3.2,1.8c-2.2,0.2-4.3-0.3-6.2-1.4c-1.1-0.7-2.5,0.5-1.5,1.2c3.1,2,6.8,2.5,10.3,1.5c0.8,0.3,1.6,0.6,2.4,0.9
			c2.5,0.9,5.5,1.5,7.5,2.9c-2.8-0.1-5.5-0.5-8.3-1.2C7.4,86.2,1.2,91,1.2,96.6c0,7.7,11.8,13.9,26.3,13.9s26.3-6.2,26.3-13.9
			c0-5.6-6.2-10.3-15.1-12.6c-1.8,0.4-3.6,0.8-5.5,1c0.1-0.4,0.1-1,0.1-1.4h0.2c2.8-0.1,4.4-1.9,5.5-3.6c0.6-0.9-1.1-1.9-1.9-0.8
			s-1.8,2.7-3.7,2.8h-0.1c0.1-1.5,0.1-2.9,0.2-4.4c1.4-2,4.2-2.4,7-2.7c0.2,0.1,0.4,0.2,0.6,0.2c3.9,0.4,8,0.5,11.2-1.5
			c1.1-0.7-0.5-1.8-1.5-1.2c-1.5,0.8-3.1,1.3-4.8,1.3c1-0.4,2-1.1,2.7-1.9c0.8-0.9-1.1-1.7-1.9-0.8c-2.8,3.2-8.9,2.1-12.8,3.9
			c0.1-0.2,0.1-0.4,0.2-0.6c0.2-0.6,0.4-1.2,0.7-1.8c0.1-0.1,0.1-0.1,0.1-0.2c0.1-0.2,0.1-0.3,0.2-0.5c0.2-0.4,0.4-0.9,0.6-1.3l0,0
			c5-1.5,8.9-4.3,11-8.1c0.6-1.1,3.3-7.4-0.4-7c-1.4,0.1-1.4,1.8,0,1.7c-0.5,0-0.9,3.2-1.1,3.6c-0.4,0.8-0.8,1.6-1.4,2.4
			c-0.1-0.1-0.1-0.2-0.1-0.4c-0.1-0.4-0.1-0.9-0.2-1.3c-0.1-0.9-0.1-1.8,0-2.7c0.1-1.1-2.1-1.1-2.2,0c-0.1,1.3,0,2.5,0.1,3.8
			c0.1,0.7,0.1,1.8,0.8,2.4c-1.6,1.5-3.5,2.7-5.5,3.5c0.4-0.8,0.9-1.6,1.3-2.4c1.2-2.1,2.3-4,2-6.2c-0.2-1-2.3-1.1-2.2,0
			c0.1,0.8,0,1.6-0.2,2.4c-1.6-1.1-2.8-2.7-3.4-4.5c-0.3-1-2.4-0.6-2.1,0.4c0.8,2.4,2.6,4.5,4.8,5.8c-0.7,1.4-1.6,2.8-2.4,4.2
			l-0.2,0.3c-1.6-2.4-4.9-4.4-5.2-7.3c-0.1-1.1-2.3-1.1-2.2,0c0.1,0.5,0.2,1.1,0.4,1.6c-1-0.6-1.9-1.4-2.4-2.5
			c-0.5-1-2.6-0.6-2.1,0.4c1.3,2.3,3.6,4,6.2,4.5l0.3,0.3c1.7,1.8,4.1,3.6,3.5,5.9c-0.5,1.1-0.9,2.3-1.3,3.5c-1,3.4-0.4,7.1-1,10.5
			l-1.4,0.1c-0.8-3-2.3-5.7-4.4-8c1.3-1.4,2-3.2,1.9-5.1c2.3,0,4.3-1.7,4.1-3.4c-0.1-0.5-0.6-0.9-1.1-0.8c-0.5,0-1.1,0.4-1.1,0.8
			c0.1,1-0.9,1.8-2.1,1.8c-0.3-1.2-1-2.3-1.8-3.3c-0.8-0.9-2.7,0-1.9,0.8c2.1,2.1,2.4,5.4,0.6,7.8c-0.7-0.5-1.4-1-2.1-1.4
			c-1.3-2.3-1.3-4.8-2.8-7.1c-1.4-2.1-3.2-3.9-5.3-5.2c-1.1-0.7-2.6,0.5-1.5,1.2c0.9,0.6,1.8,1.3,2.6,2c-1.4-0.2-2.7-0.7-3.8-1.5
			c-1-0.7-2.5,0.5-1.5,1.2c2.1,1.4,4.5,2.1,7,2.1l0,0c0.5,0.7,1,1.4,1.4,2.2c0.5,1.2,0.9,2.4,1.2,3.7c-2.5-1.1-4.9-2.3-6.2-4.3
			c-0.6-1-2.5-0.2-1.9,0.8c0.6,0.9,1.4,1.7,2.4,2.3c-3.2,0.2-6.3-1-8.5-3.3c-0.8-0.9-2.6-0.1-1.9,0.8c0.7,0.8,1.4,1.4,2.3,2
			c-1.1,0.3-2.3,0.1-3.4-0.4C0.4,70.3-0.7,71.7,0.5,72.3z"/>
		<path class="st8" d="M107.9,77.2v28.6h21.3V77.2H120c1.9-2.2,6.4-2.2,8.9-3.3c2.2-1,4.1-2.3,5.9-3.9c1.9-1.8,3.6-3.7,5-5.9
			c1.8-2.5,3.3-6.8,6.4-7.8l1.7-0.3c1.2-0.2,0.8-2-0.3-2c-0.7,0-1.4,0.2-2.1,0.4c-4.4,0.6-8.7,1.7-12.8,3.4
			c2.1-7.1,3.7-14.8,10.1-19.2c0.5-0.2,0.8-0.8,0.5-1.3s-0.8-0.8-1.3-0.5c-8.2,1.8-14.3,7.9-18.3,15c-0.6,1.1-1.3,2.3-1.9,3.5
			c-1.7-7.9-5.8-15.1-11.8-20.6c-0.3-0.4-1-0.5-1.4-0.2c-0.4,0.3-0.5,1-0.2,1.4c7.5,12.4,2.3,27.7,7.3,40.8c0,0.2,0,0.4,0,0.6H107.9
			z M116.5,71.7c-2.4-10.1-0.2-21.2-3.4-31.1c4,5.2,6.6,11.3,7.5,17.8C118.7,62.7,117.3,67.2,116.5,71.7z"/>
	</g>
</g>
</svg>
