<?xml version="1.0" encoding="utf-8"?>
<!-- Generator: Adobe Illustrator 21.1.0, SVG Export Plug-In . SVG Version: 6.00 Build 0)  -->
<svg version="1.1" id="Layer_1" xmlns="http://www.w3.org/2000/svg" xmlns:xlink="http://www.w3.org/1999/xlink" x="0px" y="0px"
	 viewBox="0 0 348.5 144.1" style="enable-background:new 0 0 348.5 144.1;" xml:space="preserve">
<style type="text/css">
	.st0{opacity:0.55;}
	.st1{fill:#BCBCBC;}
	.st2{opacity:0.55;fill:#BCBCBC;enable-background:new    ;}
	.st3{opacity:0.6;fill:#4DC0AC;enable-background:new    ;}
	.st4{opacity:0.77;fill:#F8991D;enable-background:new    ;}
	.st5{fill:#EDEDEE;}
	.st6{opacity:0.48;fill:#BCBCBC;enable-background:new    ;}
	.st7{opacity:0.6;fill:#FFFFFF;enable-background:new    ;}
	.st8{opacity:0.49;fill:#1E967F;enable-background:new    ;}
	.st9{fill:#FFFFFF;}
	.st10{fill:#482F27;}
	.st11{opacity:0.6;fill:#EDEDEE;enable-background:new    ;}
	.st12{opacity:0.6;fill:#FBD1D2;enable-background:new    ;}
</style>
<title>beavver-happy</title>
<g id="Layer_2">
	<g id="Layer_2-2">
		<g class="st0">
			<path class="st1" d="M142.9,89.5v4.2h132.3v-4.2H234c-2.2-0.4-4.2-1.6-5.5-3.5v-4.4h17.1h0c3.3,0,6-2.7,6-6.1V32.2c0,0,0,0,0,0
				c0-3.3-2.7-6-6.1-6h-69.1l0,0c-3.3,0-6.1,2.7-6.1,6v43.4v0c0,3.3,2.7,6,6.1,6h15.1v0.5l0,0v3.7c-0.9,1.7-3,3.1-5.6,3.7H142.9z
				 M175.3,73.3V29.2h71.2v44.1H175.3z"/>
			<rect x="142.9" y="94.1" class="st1" width="132.3" height="4.2"/>
			<path class="st1" d="M238.3,102.7l-12.8,40.2l3.9,1.2l6.8-21.3h21.5l6.8,21.3l3.9-1.2l-12.8-40.2h8.7v-4.2h-36.3v4.2L238.3,102.7
				z M242.6,102.8h8.7l5.1,15.9h-18.8L242.6,102.8z"/>
			<path class="st1" d="M165.7,102.8l-12.8,40.2l3.9,1.2l6.8-21.3h21.5l6.8,21.3l3.9-1.2L183,102.8h8.7v-4.2h-36.3v4.2H165.7z
				 M170,102.8h8.7l5.1,15.9h-18.8L170,102.8z"/>
		</g>
		<g class="st0">
			<rect x="126.4" y="133" class="st1" width="4.7" height="10.7"/>
			<rect x="85.6" y="133" class="st1" width="4.7" height="10.7"/>
			<path class="st1" d="M79.1,100.5v32.1h58.9v-32.1H79.1z M82.3,115.8H135v12.9H82.3V115.8z M82.3,103.1H135v11.3H82.3V103.1z"/>
			<rect x="104.7" y="109.1" class="st1" width="6.8" height="1.5"/>
			<rect x="104.7" y="121.9" class="st1" width="6.8" height="1.5"/>
		</g>
		<rect x="59.5" y="130.3" class="st2" width="5.9" height="13.5"/>
		<rect x="8.1" y="130.3" class="st2" width="5.9" height="13.5"/>
		<path class="st2" d="M0,89.3l0,40.5h74.3V89.3H0z M4,108.6h66.4v16.2H4L4,108.6z M4,92.7h66.4V107H4L4,92.7z"/>
		<rect x="32.3" y="100.2" class="st2" width="8.6" height="1.9"/>
		<rect x="32.3" y="116.2" class="st2" width="8.6" height="1.9"/>
		<path class="st3" d="M265.3,41.5c-3,10.5-4.8,21.2-5.4,32.1l0,0c-0.1,0.8-0.1,1.6-0.2,2.4l0.1,0.1c-0.1,3.8-0.1,7.7,0,11.5
			c-0.1,0.2-0.1,0.5-0.1,0.8v0.4c-1,8.2-3.5,23.7,5.1,27.8c0.1,2.7,0.3,5.4,0.8,8.1c0.6,3.2,2.5,6.9,2.1,9.9
			c-0.3,1.6-0.7,3.2-0.3,4.5c0,0.3,0.1,0.6,0.2,0.9c0.6,1,1.8,1.6,3,1.5c3,0,5.9-0.2,8.8-0.8c1.5-0.2,3.1-0.4,4.2-1.5
			c1.5-1.6,0.6-4.1,2.7-5.2c5.3-0.4,22.9-1.4,22.6,5.7c0,0,0,0.1,0,0.1c0,0.7,0.6,1.3,1.4,1.3c0.2,0.4,0.7,0.7,1.2,0.7
			c2.7,0.3,20.3,1.1,16.2-5.5c-0.5-0.7-1.2-1.3-1.8-1.8c-1.7-1.7-1.5-1.2-0.5-3s2.6-3.2,3.6-5c2.3-3.8,3.9-8,4.7-12.4
			c1.5-0.5,2.9-1.3,4-2.4c0.3-0.1,0.6-0.2,0.7-0.5c3.4-4,4.2-7.2,1.6-11.8c-2.1-3.8-3.2-8-3.2-12.3c-0.1-3.5-0.2-7-0.3-10.5l0.1-0.3
			c-0.5-4.7-1-9.3-1.1-14c0-0.2,0-0.4,0.1-0.5c-1-9.5-3.2-18.9-6.6-27.8c5.1-0.5,10-2.2,12.6-7.2c2.7-5.5,1.9-12.1-1.9-16.8
			c-3.6-4.6-10.4-8.6-16.4-7.6c-5.9,1.1-8.1,6.7-9.2,12c-12.9-3.3-26.6-0.6-37.4,7.3c-5.9-9.5-20.8-16-26-2.2
			C246.5,30.8,255.1,39.8,265.3,41.5z"/>
		<path class="st4" d="M264.7,116.7c0.1,2.7,0.3,5.4,0.8,8.1c0.6,3.2,2.5,6.9,2.1,9.9c-0.3,1.6-0.7,3.2-0.3,4.5
			c0,0.3,0.1,0.6,0.2,0.9c0.6,1,1.8,1.6,3,1.5c3,0,5.9-0.2,8.8-0.8c1.5-0.2,3.1-0.4,4.2-1.5c1.5-1.6,0.6-4.1,2.7-5.2
			c5.3-0.4,22.9-1.4,22.6,5.7c0,0,0,0.1,0,0.1c0,0.7,0.6,1.3,1.4,1.3c0.2,0.4,0.7,0.7,1.2,0.7c2.7,0.3,20.4,1.1,16.2-5.6
			c-0.5-0.7-1.2-1.3-1.9-1.8c-1.7-1.7-1.5-1.2-0.5-3s2.6-3.2,3.6-5c2.3-3.8,3.9-8,4.7-12.4c1.5-0.5,2.9-1.3,4-2.4
			c0.3-0.1,0.6-0.2,0.7-0.5c3.4-4,4.2-7.2,1.6-11.8c-2.1-3.7-3.3-8-3.3-12.3c-0.1-3.5-0.2-7-0.3-10.5l0.1-0.3c-0.2-2-0.4-4-0.6-6
			c-0.8,0.3-1.6,0.5-2.4,0.6h-0.1c-24.1,6.4-49.3,6.8-73.6,1.2c0,0.4-0.1,0.9-0.1,1.3l0,0c-0.1,0.8-0.1,1.6-0.2,2.4l0.1,0.1
			c-0.1,3.8-0.1,7.7,0,11.5c-0.1,0.2-0.1,0.5-0.1,0.8v0.4C258.5,97,256.1,112.5,264.7,116.7z M330.3,99.2c1.2-1.7,3.8-2.4,5.4-0.7
			c1.3,1.4,2.1,3.3,2,5.2c0.3,0.5,0.4,1,0.4,1.6v0.9c0,1.5-1,2.9-2.5,3.3c-1.5,0.3-3-0.3-3.9-1.6c-0.5-0.6-0.8-1.3-1.2-2
			c-0.2-0.2-0.3-0.5-0.4-0.8C329.1,103.3,329.2,101,330.3,99.2z M274.2,103.2c0.2-0.8,0.8-1.6,1.6-2l0.1-0.1c0.5-1,1.2-1.9,2.2-2.5
			c1.4-0.7,3-0.5,4.2,0.5c0.7,0.7,1.2,1.6,1.4,2.5c0.2,0.5,0.4,1,0.4,1.6c0,1-0.3,2-0.8,2.9c-0.4,1.6-1.8,2.8-3.5,3
			c-0.8,0.3-1.8,0.4-2.6,0.2c-1.4-0.4-2.5-1.5-2.9-2.8C273.9,105.5,273.9,104.3,274.2,103.2z"/>
		<path class="st5" d="M293.6,57.6c0,0,1.3,10.5,1.3,10.6s16.2-0.3,16.2-0.3l1.6-11L293.6,57.6z"/>
		<path class="st6" d="M296.2,59.2L296.2,59.2c0.3,2.1,0.6,4.2,0.9,6.3c0,0.1,0,0.1,0.1,0.2c0.1,0.2,0.4,0.3,0.7,0.1
			c0.3,0.3,0.9,0.3,0.9-0.3c-0.2-2.4-0.5-4.7-1-7c0-0.2-0.2-0.4-0.4-0.4c-0.3-0.1-0.5,0.1-0.6,0.4c-0.3,0-0.6,0.1-0.6,0.5
			L296.2,59.2L296.2,59.2z"/>
		<path class="st7" d="M309,64.1c0.3,0.1,0.5-0.1,0.6-0.4c0.4-1.5,0.6-3,0.6-4.6c0-0.3-0.2-0.5-0.5-0.5c-0.3,0-0.5,0.2-0.5,0.5
			c0,1.5-0.2,2.9-0.6,4.3C308.6,63.8,308.7,64.1,309,64.1z"/>
		<path class="st8" d="M273.2,63.5c0.7-4.4,1.7-8.7,3-12.9c0.6-1.8-2.3-2.6-2.9-0.8c-1.3,4.2-2.3,8.5-3,12.9
			C270,64.6,272.9,65.4,273.2,63.5z"/>
		<path class="st8" d="M270.3,70.2c0.8,0.2,1.6-0.2,1.9-1l0.4-2c0.2-0.8-0.2-1.6-1-1.8c-0.8-0.2-1.6,0.2-1.9,1l-0.4,2
			C269.1,69.1,269.5,69.9,270.3,70.2z"/>
		<path class="st9" d="M306.6,90.6c0.7,0.4,1.6,0.2,2.1-0.5l6-10c0.4-0.7,0.1-1.6-0.5-2c-0.7-0.4-1.6-0.2-2.1,0.5l-6,10
			C305.7,89.3,305.9,90.2,306.6,90.6z"/>
		<path class="st9" d="M305.1,94.5c2,5.8,4.1,11.5,6.5,17.1c0.6,1.4,2.9,0.7,2.8-0.8l-0.1-0.8c0-0.5-0.3-0.9-0.6-1.1
			c-2.1-5-4-10.1-5.7-15.2C307.4,91.8,304.5,92.6,305.1,94.5z"/>
		<path class="st10" d="M270.5,39c-3,10.5-4.8,21.3-5.4,32.2l0,0c-0.1,0.8-0.1,1.6-0.2,2.4l0.1,0.1c-0.1,3.8-0.1,7.7,0,11.5
			c-0.1,0.2-0.1,0.5-0.1,0.8v0.4c-1,8.2-3.5,23.7,5.1,27.8c0.1,2.7,0.3,5.4,0.8,8.1c0.6,3.2,2.6,6.9,2.1,9.9
			c-0.3,1.6-0.7,3.2-0.3,4.5c0,0.3,0.1,0.6,0.2,0.9c0.6,1,1.8,1.6,3,1.5c3,0,5.9-0.2,8.8-0.8c1.5-0.2,3.1-0.4,4.2-1.5
			c1.5-1.6,0.6-4.1,2.7-5.2c5.3-0.4,22.9-1.4,22.6,5.7c0,0,0,0.1,0,0.1c0,0.7,0.6,1.3,1.4,1.3c0.2,0.4,0.7,0.7,1.2,0.7
			c2.7,0.3,20.4,1.1,16.2-5.6c-0.5-0.6-1.1-1.2-1.8-1.8c-1.7-1.7-1.5-1.2-0.5-3s2.6-3.2,3.6-5c2.3-3.8,3.9-8,4.7-12.4
			c1.5-0.5,2.9-1.3,4-2.4c0.3-0.1,0.6-0.2,0.7-0.5c3.4-4,4.2-7.2,1.6-11.8c-2.1-3.7-3.3-8-3.3-12.3c-0.1-3.5-0.2-7-0.3-10.5l0.1-0.3
			c-0.5-4.7-1-9.3-1.1-14c0-0.2,0-0.4,0.1-0.5c-1-9.5-3.2-18.9-6.5-27.9c5.1-0.5,10-2.2,12.6-7.2c2.7-5.5,1.9-12-1.9-16.8
			c-3.6-4.6-10.4-8.6-16.5-7.5c-6,1.1-8.1,6.7-9.1,12c-12.9-3.3-26.6-0.6-37.4,7.3c-5.9-9.5-20.8-16-26-2.2
			C251.8,28.3,260.4,37.3,270.5,39z M307.5,76.5h0.2c0.2,0.3,0.5,0.6,0.8,0.7l5.8,2.3L307.5,90l-5.9-8.9l-0.1-0.1
			C303.5,79.6,305.5,78.1,307.5,76.5z M302.1,76.9c-2.1,1.6-4.3,3.1-6.5,4.6c-3,2-6.8,5.2-10.2,6.3c-3.4,1.1-6.3-3.3-8.6-5.7
			c-1.8-1.9-5-4.6-6.9-7.4C280.6,76.6,291.4,77.3,302.1,76.9L302.1,76.9z M299.6,111.3c-1.5-3.3-1.5-3.6,0.6-6.6l7.1-10.2l2,5.5
			c0.8,2.2,2.5,5.1,2.7,7.3c1.3,1.2,1,2.2-0.6,2.8l-2.9,2.5l-4.9,4.3c-0.3,0.1-0.6,0.2-0.8,0.4l-0.3,0.3l0,0
			C301.3,116,300.3,112.9,299.6,111.3L299.6,111.3z M312.1,113.5c0.5-0.4,0.9-0.8,1.4-1.2c0.6-0.5,1.1-1,1.7-1.6
			c4.9,0.6,9.9,0.2,14.8-0.9c0.9,0.9,2,1.6,3.2,1.9c-3.7,1.4-7.8,1.2-11.8,1.4L312.1,113.5L312.1,113.5z M313.3,75.9
			c8.5-1,16.8-2.8,25-5.3c0,1.9,0,3.8-0.1,5.7c-0.2,1.1-0.5,2.1-0.7,3.2c-0.2,0.9-0.6,5.3-1.2,5.5s-3.5-1.3-3.9-1.4L313.3,75.9z
			 M332.1,95.5c-3,0.3-4.6,3-5,5.8c-0.3,2.3,0.2,4.7,1.4,6.7c-4.2,0.9-8.5,1.1-12.8,0.7c-0.1-2.1-2-5.2-2.6-6.8l-3.6-9.7l7.3-11.2
			c0.1-0.1,0.1-0.2,0.2-0.3l7.1,2.9l8.2,3.3c1.2,0.5,2.7,1.5,4.1,1.3c1.1,0,2.1-0.8,2.5-1.8c0.1,1.6,0.3,3.2,0.5,4.7
			c0.9,5.5,6.5,9.9,2.5,15.3c-0.2,0.1-0.4,0.2-0.5,0.4c-0.5,0.5-1.1,1-1.7,1.4c0.6-2.4,0.7-4.8,0.3-7.2c0-0.2-0.1-0.5-0.2-0.7
			C338.5,97.2,335.4,95.3,332.1,95.5z M336.2,108.4c-0.2,0.2-0.5,0.4-0.8,0.4l0,0c-0.2,0.1-0.4,0.2-0.6,0.2l0,0h-0.3
			c-0.1,0-0.3-0.1-0.4-0.1c-2.5-0.6-4.1-3.7-4.1-6.3c0-1.9,0.7-4.2,3-4.1c1.8,0.2,3.3,1.3,4.1,2.9l0,0c0.3,1.2,0.4,2.4,0.2,3.7
			C337.3,105.6,337,107.9,336.2,108.4z M275.3,127.6c-1.4-4.5-2.2-9.2-2.2-14c8.2,2.6,16.5,2.6,25,1.6c0.8,1.9,1.6,4,2.9,5.1l0,0
			c0.2,0.2,0.4,0.4,0.6,0.6c0.5,0.3,1,0.3,1.5,0c0.4-0.2,0.8-0.5,1.2-0.8c0.3-0.1,0.5-0.2,0.7-0.3c1.6-1.4,3.2-2.8,4.8-4.2
			c8.1-0.3,18.5,1,25.9-2.8c-0.8,3.5-2.1,6.9-4,10c-1.3,2.2-5,4.8-5.3,7.3c-0.3,2.5,3.1,3.2,3.1,4.8c0,3-9.5,2.1-12.3,1.8
			c-0.6-9.9-19.8-8.4-26.3-7.9c-0.3,0-0.6,0.1-0.9,0.4c-1.2,0.4-2.1,1.2-2.7,2.3c-0.5,1.1-0.3,3-1.3,3.7c-0.6,0.4-6.9,1.1-9.5,1.1
			c-0.2-0.1-0.3-0.2-0.5-0.2c-1.4-0.4,0.5-3.8,0.5-4.4C276.5,130.1,275.6,128.7,275.3,127.6L275.3,127.6z M267.9,84.2
			c-0.1-2.5-0.1-5,0-7.5c1.2,1.6,2.7,3,3.9,4.3c2.7,3,6.5,8.3,10.3,10c3.5,1.6,7.6-2.4,10.4-4.1c2.2-1.4,4.4-2.8,6.5-4.3l6.2,9.3
			l-5.6,8.1c-1.2,1.7-4.5,5.1-4.7,7.2c0,0.5,0,1,0.2,1.5c-3.4,0.2-6.8,0.1-10.1-0.2c0.8-1.6,1.1-3.5,0.9-5.3
			c-0.2-3.1-2.2-5.7-5.1-6.8c-2.3-0.8-4.9,0-6.5,1.9c-0.3,0.1-0.6,0.4-0.8,0.7c-1.1,2-1.6,4.4-1.4,6.7c0.2,1.4,0.5,3.5,1.8,4.4l0,0
			l0.1,0.1c2.4,1.9,5.7,2.2,8.4,0.9c0.4-0.2,0.7-0.4,1-0.6c4.1,0.4,8.3,0.5,12.5,0.3c0.4,0.7,0.8,1.4,1.1,2c0.1,0.1,0.1,0.3,0.2,0.5
			c-8.2,0.9-16.3,0.9-24.3-1.8c-0.3-0.1-0.5-0.1-0.8,0.1c-0.3-0.1-0.6-0.2-0.8-0.1c-6-2.8-4.7-15.3-3.7-22.8
			c0.3-0.3,0.5-0.7,0.5-1.2c-0.1-0.6-0.1-1.3-0.1-1.9l0.1-0.6C268.1,84.7,268,84.4,267.9,84.2L267.9,84.2z M280.7,108.6
			c-1.4,0.5-2.9,0.4-4.2-0.3c-0.2-0.4-0.5-0.6-0.9-0.8c0-0.4-0.1-0.9-0.2-1.3c-0.1-0.6-0.2-1.3-0.2-1.9c0-0.8,0.2-1.7,0.5-2.5
			c0.2-0.1,0.4-0.4,0.5-0.6c1.9-4.4,6.4-0.8,6.8,2.5C283.1,105.6,282.7,107.9,280.7,108.6z M258.2,20.4c1.1-6.2,6.6-10.1,12.8-7.3
			c4,1.9,7.3,5.2,9.2,9.2c0.1,0.1,0.1,0.2,0.2,0.3c0.6,0.6,1.5,0.6,2.1,0c10.5-8.2,24.2-10.9,37.1-7.4c0.2,0.2,0.4,0.3,0.7,0.4
			c0.7,0.1,1.5-0.3,1.6-1.1c0.8-4.3,1.7-10,6.6-11.4c5.3-1.5,12,3.2,14.7,7.2s3.3,9.6,0.4,13.7c-2.5,3.7-6.8,4.5-10.9,4.7
			c-0.5-0.2-1.1-0.2-1.6,0h-0.9c0.2,1,0.4,2,0.5,3h0.3c4.3,11.4,6.8,23.4,7.2,35.6c-22.6,7.1-46.6,8.4-69.8,3.9
			c-0.1-0.5-0.1-1.1-0.1-1.6c0-0.2,0-0.5-0.1-0.7c0.7-9.6,2.3-19,4.9-28.3c-0.1-1.3-0.2-2.6-0.2-3.9c-0.7-0.2-1.5-0.4-2.1-0.8
			C263.3,34.7,256.5,29.1,258.2,20.4z"/>
		<path class="st10" d="M281.3,49.1c-0.1,1.9,2.9,1.9,3,0c0.1-2.5,0.8-6.2,2.8-7.9c3-2.6,5.8,3.6,6.4,5.4c0.6,1.8,3.5,1,2.9-0.8
			c-1.3-3.8-4.3-9.2-9.1-8.1C282.9,38.6,281.4,45.4,281.3,49.1z"/>
		<path class="st10" d="M314.6,44.3c0.7-1.9,3.4-8,6.4-5.4c2,1.8,2.7,5.5,2.8,7.9c0,0.6,0.4,1.2,1,1.3c-0.1,0-0.2,0.1-0.2,0.2
			c-0.4,0.4-0.4,1,0,1.4c1,0.8,1.8,1.8,2.4,3c0,0,0,0,0,0c0.1,0.5,0.7,0.8,1.2,0.7c0,0,0,0,0,0c0.5-0.1,0.8-0.7,0.7-1.2
			c-0.6-1.5-1.6-2.8-2.8-3.8c-0.1,0-0.1-0.1-0.2-0.1c0.7-0.1,1.1-0.7,1-1.4c-0.1-3.6-1.6-10.5-5.9-11.4c-4.8-1.1-7.9,4.3-9.1,8.1
			C311.2,45.4,313.9,46.3,314.6,44.3z"/>
		<path class="st10" d="M290.9,55.6c1,1,2.1,1.8,3.4,2.4c0.2,2.8,0.7,5.5,1.3,8.2l0,0c-0.2,1.7,1.4,1.5,2.5,1.4
			c1.5-0.1,3.1-0.2,4.6-0.1c0.1,0.1,0.3,0.1,0.5,0.1l8.2-0.3c0.5,0,0.9-0.3,1-0.7c0.7-3.2,1.1-6.4,1.4-9.7c1.6-0.6,3.1-1.6,4.3-2.8
			c0.9-0.9-0.5-2.3-1.4-1.4c-1.1,1.1-2.4,1.9-3.9,2.4c-0.2,0-0.3,0.1-0.5,0.2c-2.1,0.6-4.3,1.1-6.5,1.3v-3c0.6-0.1,1.3-0.2,2-0.3
			c0.5-0.1,1-0.4,1.3-0.8c2.4-0.7,2.1-4.8-0.8-4.9c-3-0.2-5.9,0.1-8.8,0.7c-2.2,0.4-2.4,3.6-0.6,4.6l0.6,0.4
			c0.4,0.3,0.9,0.4,1.4,0.3c0.3,0.1,0.7,0.2,1,0.2c0.6,0,1.3,0,1.9,0v2.8c-0.2,0.1-0.4,0.2-0.5,0.4c-4,0.5-8,0.4-11-2.6
			C291.4,53.3,289.9,54.8,290.9,55.6z M304.8,65.5c0.2-2.3,0.3-4.6,0.3-6.8c2.2-0.2,4.4-0.6,6.6-1.1c-0.3,2.6-0.7,5.2-1.2,7.8
			L304.8,65.5z M297.8,65.6c-0.1,0-0.2,0-0.3,0c-0.5-2.3-0.9-4.6-1.1-6.9c2.2,0.4,4.5,0.5,6.7,0.2c0,2.2-0.1,4.4-0.3,6.5
			c-0.9,0-1.7,0-2.6,0c-0.6,0-1.3,0.1-1.9,0.1L297.8,65.6z"/>
		<path class="st10" d="M328.1,49.2c0.9,1.3,1.8,2.5,2.9,3.7c0.9,1,2.3-0.5,1.4-1.4c-1-1-1.8-2.1-2.6-3.3
			C329.1,47.1,327.4,48.1,328.1,49.2z"/>
		<path class="st10" d="M321.1,48.2c-0.5,0.3-0.6,0.9-0.3,1.4l1.7,2.4c0.3,0.5,0.9,0.6,1.3,0.4c0,0,0,0,0,0c0.5-0.3,0.6-0.9,0.4-1.4
			l-1.7-2.4c0,0,0,0,0,0C322.2,48.1,321.6,48,321.1,48.2C321.2,48.2,321.2,48.2,321.1,48.2z"/>
		<path class="st10" d="M285.5,51c-0.4,0.4-0.4,1,0,1.4c0.7,0.9,1.3,2,1.8,3.1c0,0,0,0,0,0c0.3,0.5,0.9,0.6,1.4,0.4c0,0,0,0,0,0
			c0.5-0.3,0.6-0.9,0.4-1.4c-0.6-1.2-1.3-2.4-2.1-3.5C286.5,50.6,285.9,50.6,285.5,51C285.5,51,285.5,51,285.5,51z"/>
		<path class="st10" d="M282.2,51.1c-0.5,0.3-0.7,0.9-0.4,1.3l1.8,3c0.3,0.4,0.8,0.6,1.3,0.3c0.5-0.3,0.7-0.9,0.4-1.3l-1.8-3
			C283.2,51,282.7,50.9,282.2,51.1z"/>
		<path class="st10" d="M278.2,52.7l2.1,3.1c0.7,1.1,2.5,0.1,1.7-1l-2.1-3.1C279.2,50.6,277.5,51.6,278.2,52.7z"/>
		<path class="st10" d="M276.6,40c-0.8,6.8,4.1,12.9,10.9,13.7c6.8,0.8,12.9-4.1,13.7-10.9c1.6-0.8,3.5-0.8,5,0.1
			c1.3,4.8,5.3,8.3,10.2,9c6.8,0.9,13-3.8,14-10.6c0.9-6.8-3.8-13-10.6-14c-6.8-0.9-13,3.8-14,10.6c-1.6-0.7-3.5-0.7-5.1,0
			c-1.6-5.5-6.9-9.2-12.6-8.8C282.2,29.4,277.3,34,276.6,40z M308.9,40.1C308.9,40.1,308.9,40.1,308.9,40.1
			c-0.3-5.1,3.6-9.5,8.7-9.8c5.1-0.3,9.5,3.6,9.8,8.7s-3.6,9.5-8.7,9.8C313.6,49.1,309.2,45.2,308.9,40.1z M279.7,42
			C279.7,41.9,279.7,41.9,279.7,42c-0.3-5.1,3.6-9.5,8.7-9.8c5.1-0.3,9.5,3.6,9.8,8.7s-3.6,9.5-8.7,9.8
			C284.4,50.9,280,47.1,279.7,42z"/>
		<path class="st11" d="M320.9,34.9c0.4,3.3,0.5,6.6,0.4,9.9c0,1.4,2.2,2.1,2.8,0.8l0.2-0.5c0.2-0.4,0.2-0.8,0-1.2
			c0.1-3-0.1-6-0.4-9C323.7,33,320.7,32.9,320.9,34.9z"/>
		<path class="st11" d="M291.6,47.2c0,0.8,0.7,1.5,1.5,1.5s1.5-0.7,1.5-1.5l0.1-10.9c0-0.8-0.7-1.5-1.5-1.5s-1.5,0.7-1.5,1.5
			L291.6,47.2z"/>
		<path class="st11" d="M318.5,38.4c-0.8,0-1.5,0.7-1.5,1.5v5.4c0,0.8,0.7,1.5,1.5,1.5s1.5-0.7,1.5-1.5v-5.4
			C320,39.1,319.3,38.4,318.5,38.4z"/>
		<path class="st11" d="M288.3,39.2c-0.8,0-1.5,0.7-1.5,1.5v5.3c0,0.8,0.7,1.5,1.5,1.5s1.5-0.7,1.5-1.5v-5.3
			C289.8,39.8,289.1,39.2,288.3,39.2z"/>
		<path class="st12" d="M324.7,56c2.7,0.5,5.5,0.4,8.2-0.3c0.5-0.1,0.9-0.4,1.3-0.8c1.2-1.2,1.2-3.1,0-4.2c-0.7-0.6-1.5-1.2-2.4-1.5
			c-1.2-0.7-2.5-1.1-3.8-1.2c-2.5-0.3-5.5,0-6.8,2.3C319.3,53.2,322,55.4,324.7,56z"/>
		<path class="st12" d="M276.9,55.5c0.9,2.2,3.6,2.9,5.7,3.2c2.3,0.2,4.7-0.2,6.8-1.2c1.5-0.6,1.8-2.8,1.1-4.1
			c-0.3-0.5-0.6-0.8-1.1-1.1c-0.4-0.6-1-1-1.6-1.2c-2.4-0.8-4.9-1-7.4-0.6C277.9,50.8,275.9,52.9,276.9,55.5z"/>
		<rect x="88.2" y="79.8" class="st2" width="40.8" height="0.6"/>
		<rect x="88.2" y="81.1" class="st2" width="40.8" height="0.6"/>
		<rect x="88.2" y="82.4" class="st2" width="40.8" height="0.6"/>
		<rect x="88.2" y="83.7" class="st2" width="40.8" height="0.6"/>
		<rect x="88.2" y="85" class="st2" width="40.8" height="0.6"/>
		<rect x="88.2" y="86.3" class="st2" width="40.8" height="0.6"/>
		<rect x="88.2" y="87.6" class="st2" width="40.8" height="0.6"/>
		<rect x="88.2" y="88.9" class="st2" width="40.8" height="0.6"/>
		<rect x="88.2" y="90.2" class="st2" width="40.8" height="0.6"/>
		<rect x="88.2" y="91.5" class="st2" width="40.8" height="0.6"/>
		<rect x="88.2" y="92.8" class="st2" width="40.8" height="0.6"/>
		<rect x="88.2" y="94.1" class="st2" width="40.8" height="0.6"/>
		<rect x="88.2" y="95.4" class="st2" width="40.8" height="0.6"/>
		<rect x="88.2" y="96.7" class="st2" width="40.8" height="0.6"/>
		<rect x="88.2" y="98" class="st2" width="40.8" height="0.6"/>
		<rect x="88.2" y="99.3" class="st2" width="40.8" height="0.6"/>
	</g>
</g>
</svg>
