<svg xmlns="http://www.w3.org/2000/svg" viewBox="0 0 125.35 68.69"><defs><style>.cls-1{fill:#2eceb3;}.cls-2{fill:#472e27;}.cls-3{fill:#f90;}</style></defs><title>career-planning</title><g id="Layer_2" data-name="Layer 2"><g id="Layer_1-2" data-name="Layer 1"><circle class="cls-1" cx="11.51" cy="55.94" r="10.73"/><circle class="cls-1" cx="45.85" cy="55.94" r="10.73"/><circle class="cls-1" cx="80.19" cy="25.89" r="10.73"/><circle class="cls-1" cx="113.46" cy="57.01" r="10.73"/><path class="cls-2" d="M46.11,37.74A11.9,11.9,0,1,1,58,25.85,11.91,11.91,0,0,1,46.11,37.74Zm0-21.38a9.49,9.49,0,1,0,9.48,9.48A9.5,9.5,0,0,0,46.11,16.36Z"/><path class="cls-2" d="M11.9,37.74a11.9,11.9,0,1,1,11.9-11.9A11.91,11.91,0,0,1,11.9,37.74Zm0-21.38a9.49,9.49,0,1,0,9.49,9.48A9.5,9.5,0,0,0,11.9,16.36Z"/><polygon class="cls-3" points="116.94 1.75 99.24 9.53 116.94 17.31 116.94 1.75"/><path class="cls-2" d="M80.31,67.67a11.9,11.9,0,1,1,11.9-11.9A11.91,11.91,0,0,1,80.31,67.67Zm0-21.38a9.49,9.49,0,1,0,9.49,9.49A9.5,9.5,0,0,0,80.31,46.29Z"/><path class="cls-2" d="M113.45,68.69a11.88,11.88,0,0,1-9.63-18.86l-1.22-1.35,1.07.14L88.45,34.55l-.63.51a11.84,11.84,0,0,1-15.66-.58l-.58-.55L54.44,47.26l.64.74a11.88,11.88,0,1,1-20.7,9.76L34.26,57H23.74l-.13.78a11.89,11.89,0,1,1,0-4l.13.78H34.26l.13-.78a11.87,11.87,0,0,1,17.55-8.37l.54.31L70.12,32l-.36-.69a11.74,11.74,0,0,1-1.35-5.47,11.9,11.9,0,1,1,22.14,6l-.38.64,15.93,14.92.62-.43a11.67,11.67,0,0,1,8.7-1.91l1.09.18V19.09L98,10.86a1.21,1.21,0,0,1,0-2.2L117.24.1a1.2,1.2,0,0,1,1.69,1.1v45l.46.27a11.88,11.88,0,0,1-5.95,22.18Zm0-21.38a9.58,9.58,0,1,0,7.12,3.27l-1.64-1.87v.45l-.69-.69-2.35-.81A9.28,9.28,0,0,0,113.45,47.31Zm-67.34-1a9.49,9.49,0,1,0,9.48,9.49A9.5,9.5,0,0,0,46.11,46.29Zm-34.21,0a9.49,9.49,0,1,0,9.49,9.49A9.5,9.5,0,0,0,11.9,46.29ZM80.31,16.36a9.49,9.49,0,1,0,9.49,9.48A9.5,9.5,0,0,0,80.31,16.36Zm21.14-6.6,15.07,6.7V3.06Z"/></g></g></svg>