<svg xmlns="http://www.w3.org/2000/svg" viewBox="0 0 77.64 119.01"><defs><style>.cls-1{opacity:0.6;}.cls-2{fill:#2eceb3;}.cls-3{fill:#472e27;}.cls-4{fill:#ededed;}.cls-5{opacity:0.48;}.cls-6{fill:#bcbcbc;}.cls-7{fill:#fff;}.cls-8{opacity:0.49;}.cls-9{fill:#1e967f;}.cls-10{opacity:0.07;}.cls-11{fill:none;stroke:#be1e2d;stroke-linecap:round;stroke-linejoin:round;}.cls-12{fill:#ffb24d;}</style></defs><title>courses</title><g id="Layer_2" data-name="Layer 2"><g id="Layer_1-2" data-name="Layer 1"><g class="cls-1"><path class="cls-2" d="M76.2,61.51A7.53,7.53,0,1,0,64,52.62l-.63.86a33.49,33.49,0,0,0-22-8.22h0a33.49,33.49,0,0,0-22,8.22l-.63-.86A7.53,7.53,0,0,0,6.69,61.51l3.5,4.79,0,.06A33.34,33.34,0,0,0,7.78,78.92l-.54,34.89H74.56l.54-34.89a33.34,33.34,0,0,0-2.46-12.57l0-.06Z"/></g><path class="cls-3" d="M71.15,112.33A1.29,1.29,0,0,1,69.86,111V76.46A32,32,0,0,0,67.5,64.38a1.29,1.29,0,0,1,0-1,1.63,1.63,0,0,1,.2-.32l3.47-4.75a6.24,6.24,0,1,0-10.07-7.37l-.63.86a1.29,1.29,0,0,1-.9.52,1.26,1.26,0,0,1-1-.31,32.31,32.31,0,0,0-21.12-7.91A32,32,0,0,0,26,46.19,32.73,32.73,0,0,0,16.36,52a1.29,1.29,0,0,1-1.89-.22l-.62-.86A6.24,6.24,0,0,0,3.78,58.28L7.26,63a1.67,1.67,0,0,1,.18.27,1.29,1.29,0,0,1,0,1.06A32,32,0,0,0,5.12,76.46V111a1.29,1.29,0,0,1-2.58,0V76.46A34.52,34.52,0,0,1,4.82,64.08L1.7,59.8A8.82,8.82,0,0,1,15.75,49.14a35.25,35.25,0,0,1,9.36-5.37,34.75,34.75,0,0,1,34.12,5.37A8.82,8.82,0,0,1,73.28,59.81l-3.12,4.28a34.52,34.52,0,0,1,2.28,12.38V111A1.29,1.29,0,0,1,71.15,112.33Z"/><rect class="cls-4" x="29.27" y="90.16" width="10.56" height="16.06"/><rect class="cls-4" x="39.83" y="90.16" width="10.56" height="16.06"/><g class="cls-5"><rect class="cls-6" x="44.84" y="90.48" width="3.37" height="13.64" rx="1.68" ry="1.68"/></g><rect class="cls-7" x="28.87" y="90.57" width="3.19" height="8.53" rx="1.6" ry="1.6"/><path class="cls-3" d="M38.1,105.14H28.36a1.29,1.29,0,0,1-1.29-1.29V90.16a1.29,1.29,0,0,1,1.29-1.29H38.1a1.29,1.29,0,0,1,1.29,1.29v13.69A1.29,1.29,0,0,1,38.1,105.14Zm-8.44-2.58H36.8V91.45H29.65Z"/><path class="cls-3" d="M47.83,105.14H38.1a1.29,1.29,0,0,1-1.29-1.29V90.16a1.29,1.29,0,0,1,1.29-1.29h9.73a1.29,1.29,0,0,1,1.29,1.29v13.69A1.29,1.29,0,0,1,47.83,105.14Zm-8.44-2.58h7.15V91.45H39.39Z"/><rect class="cls-3" x="32.05" y="78.64" width="12.09" height="7.07" rx="3.54" ry="3.54"/><path class="cls-3" d="M53.46,91.45H21.52a1.29,1.29,0,1,1,0-2.58H36.8V85a1.29,1.29,0,0,1,2.58,0v3.84H53.46a1.29,1.29,0,1,1,0,2.58Z"/><circle class="cls-3" cx="24.69" cy="75.67" r="2.48"/><circle class="cls-3" cx="51.76" cy="75.67" r="2.48"/><path class="cls-3" d="M19.82,87A11.54,11.54,0,1,1,31.36,75.41,11.55,11.55,0,0,1,19.82,87Zm0-20.49a9,9,0,1,0,9,9A9,9,0,0,0,19.82,66.46Z"/><path class="cls-3" d="M56.63,87A11.54,11.54,0,1,1,68.17,75.41,11.55,11.55,0,0,1,56.63,87Zm0-20.49a9,9,0,1,0,9,9A9,9,0,0,0,56.63,66.46Z"/><rect class="cls-3" x="30.07" y="74.12" width="16.73" height="2.58"/><g class="cls-8"><rect class="cls-9" x="65.38" y="84.29" width="3.19" height="14.66" rx="1.6" ry="1.6"/></g><g class="cls-5"><rect class="cls-7" x="17.77" y="76.2" width="3.19" height="6.56" rx="1.6" ry="1.6"/></g><g class="cls-5"><rect class="cls-7" x="51.23" y="68.62" width="3.19" height="13.8" rx="1.6" ry="1.6"/></g><g class="cls-5"><rect class="cls-7" x="55.34" y="76.2" width="3.19" height="6.56" rx="1.6" ry="1.6"/></g><g class="cls-10"><rect class="cls-7" x="36.63" y="77.72" width="3.19" height="6.56" rx="1.6" ry="1.6" transform="translate(-42.77 119.22) rotate(-90)"/></g><path class="cls-11" d="M84.86,91.56"/><path class="cls-11" d="M84.86,91.56"/><path class="cls-12" d="M71.07,20.78,38.1,2,3.27,21.21l12.82,7V49.88c0,2.34,2,3.6,4.26,4.26a61.2,61.2,0,0,0,16.45,2.6c4.54,0,13.49-1.06,18.17-2.6,2.23-.73,4.26-1.92,4.26-4.26V27.59Z"/><path class="cls-3" d="M37.31,40.57a1.3,1.3,0,0,1-.62-.16L2.3,21.63a1.29,1.29,0,0,1,0-2.26L37.12.16a1.29,1.29,0,0,1,1.26,0l33,18.78a1.29,1.29,0,0,1,0,2.24L38,40.4A1.29,1.29,0,0,1,37.31,40.57ZM5.6,20.49,37.3,37.8,68.12,20.07,37.73,2.77Z"/><path class="cls-3" d="M36.44,57.32a61.51,61.51,0,0,1-16.8-2.65c-4.52-1.31-5.19-4-5.19-5.5V27.51a1.29,1.29,0,0,1,2.58,0V49.17c0,1.36,1.12,2.38,3.33,3a58.9,58.9,0,0,0,16.08,2.55c4.64,0,13.41-1.11,17.77-2.53,3-1,3.37-2.14,3.37-3V26.88a1.29,1.29,0,1,1,2.58,0V49.17c0,3.77-3.87,5.06-5.14,5.48C50,56.31,40.8,57.32,36.44,57.32Z"/><path class="cls-3" d="M65.9,119a1.29,1.29,0,0,1-1.29-1.29V23.37a1.29,1.29,0,0,1,2.58,0v94.34A1.29,1.29,0,0,1,65.9,119Z"/></g></g></svg>