<svg xmlns="http://www.w3.org/2000/svg" viewBox="0 0 279 274"><defs><style>.cls-1,.cls-4{fill:#fff;}.cls-2{fill:#c6cacc;}.cls-3{fill:#6cc;}.cls-4{font-size:29px;font-family:MyriadPro-Regular, Myriad Pro;}.cls-5{fill:#472e27;}.cls-6{fill:#ffb24d;}.cls-7{fill:#2eceb3;}.cls-8{fill:none;}</style></defs><title>cstep3</title><g id="Layer_2" data-name="Layer 2"><g id="Layer_1-2" data-name="Layer 1"><path class="cls-1" d="M137,273C62,273,1,212,1,137S62,1,137,1,273,62,273,137,212,273,137,273Z"/><path class="cls-2" d="M137,2a135,135,0,0,1,95.46,230.46A135,135,0,0,1,41.54,41.54,134.12,134.12,0,0,1,137,2m0-2A137,137,0,1,0,274,137,137,137,0,0,0,137,0Z"/><path class="cls-3" d="M249.5,237A28.5,28.5,0,1,1,278,208.5,28.53,28.53,0,0,1,249.5,237Z"/><path class="cls-1" d="M249.5,181A27.5,27.5,0,1,1,222,208.5,27.53,27.53,0,0,1,249.5,181m0-2A29.5,29.5,0,1,0,279,208.5,29.5,29.5,0,0,0,249.5,179Z"/><text class="cls-4" transform="translate(241.68 219)">3</text><g id="Layer_2-2" data-name="Layer 2"><g id="Layer_1-2-2" data-name="Layer 1-2"><path class="cls-1" d="M65.89,137.64a45,45,0,1,0,45-45h-.05A45,45,0,0,0,65.89,137.64Z"/><path class="cls-5" d="M110.88,183.9a46.23,46.23,0,1,1,8.31-91.71,1.27,1.27,0,1,1-.43,2.41,44.3,44.3,0,0,0-7.88-.7,43.78,43.78,0,1,0,18.38,83.5,1.27,1.27,0,0,1,1,2.29A45.82,45.82,0,0,1,110.88,183.9Zm23.23-6.44a1.27,1.27,0,0,1-.64-2.27q1.22-.74,2.4-1.56a1.27,1.27,0,0,1,1.4,2c-.83.57-1.68,1.13-2.54,1.65a1.27,1.27,0,0,1-.64.17Zm5.59-4a1.27,1.27,0,0,1-.79-2.17,43.79,43.79,0,0,0-9.29-73.21,1.27,1.27,0,0,1,1.08-2.27,46.24,46.24,0,0,1,9.81,77.32,1.27,1.27,0,0,1-.83.33ZM125.62,96.35a1.27,1.27,0,0,1-.41-.06c-.89-.3-1.82-.6-2.73-.85a1.27,1.27,0,0,1,.6-2.36c1,.27,1.94.57,2.88.89a1.27,1.27,0,0,1-.34,2.39Z"/><path class="cls-5" d="M110.88,170a32.33,32.33,0,1,1,32.33-32.34A32.33,32.33,0,0,1,110.88,170Zm0-62.27a29.83,29.83,0,1,1,0,.06Z"/><path class="cls-6" d="M95.35,137.64a15.52,15.52,0,1,0,15.54-15.49h0A15.53,15.53,0,0,0,95.35,137.64Z"/><path class="cls-5" d="M110.88,154.16a16.52,16.52,0,0,1-16.52-16.52,1,1,0,0,1,1-1,1,1,0,0,1,1,.93v.09A14.54,14.54,0,1,0,100,128a1,1,0,1,1-1.46-1.27,16.52,16.52,0,1,1,12.33,27.46ZM95.82,134.84h-.24a1,1,0,0,1-.71-1.19h0a16.52,16.52,0,0,1,1-2.82,1,1,0,0,1,1.8.76l0,.05a14.51,14.51,0,0,0-.86,2.54A1,1,0,0,1,95.82,134.84Z"/><polygon class="cls-7" points="147.84 101.7 157.35 104.59 169.92 92.04 160.41 89.15 147.84 101.7"/><path class="cls-5" d="M157.39,105.81a1.27,1.27,0,0,1-.36,0l-9.51-2.88a1.27,1.27,0,0,1-.51-2l12.53-12.59a1.27,1.27,0,0,1,1.27-.3l9.51,2.9a1.27,1.27,0,0,1,.51,2l-12.57,12.54A1.27,1.27,0,0,1,157.39,105.81Zm-7.18-4.69,6.8,2.07,10.55-10.57-6.8-2.08Z"/><polygon class="cls-7" points="148.12 101.3 145.22 91.79 157.78 79.25 160.67 88.75 148.12 101.3"/><path class="cls-5" d="M148.12,102.53a1,1,0,0,1-1.17-.83L144,92.15a1.27,1.27,0,0,1,.3-1.27L156.9,78.38a1.21,1.21,0,0,1,2,.48l2.9,9.49a1.27,1.27,0,0,1-.3,1.27L149,102.17A1.27,1.27,0,0,1,148.12,102.53Zm-1.51-10.4,2.1,6.85L159.29,88.4l-2.1-6.84Z"/><path class="cls-5" d="M110.69,140.19a1.27,1.27,0,0,1-.86-2.1l52.75-52.87a1.27,1.27,0,1,1,1.74,1.69l-52.76,52.92A1.27,1.27,0,0,1,110.69,140.19Z"/><line class="cls-8" x1="155.18" y1="95.54" x2="158.87" y2="96.86"/><path class="cls-5" d="M158.87,98.09a1.27,1.27,0,0,1-.41-.08l-3.7-1.27a1.27,1.27,0,1,1,.83-2.31l3.7,1.27a1.27,1.27,0,0,1-.41,2.38Z"/><polygon class="cls-1" points="199.98 207.83 140.74 207.83 140.74 128.83 189.25 128.83 189.98 128.92 199.98 139.53 199.98 207.83"/><path class="cls-5" d="M200,209.2H140.74a1.37,1.37,0,0,1-1.37-1.37h0v-79a1.37,1.37,0,0,1,1.35-1.4h48.7l.72.09a1.37,1.37,0,0,1,.84.42l10,10.62a1.37,1.37,0,0,1,.37.94v68.29A1.37,1.37,0,0,1,200,209.2Zm-57.85-2.74h56.5V140.08l-9.29-9.86H142.14Z"/><polygon class="cls-1" points="190.35 128.92 189.25 139.9 199.5 139.9 190.35 128.92"/><path class="cls-5" d="M199.5,141.27H189.25a1.37,1.37,0,0,1-1.37-1.38s0-.08,0-.12l1.09-11a1.37,1.37,0,0,1,2.43-.74l9.19,11a1.37,1.37,0,0,1-1.05,2.25Zm-8.73-2.74h5.81l-5.18-6.21Z"/><path class="cls-5" d="M186.32,171.67H154.46a1.37,1.37,0,1,1,0-2.74h31.86a1.37,1.37,0,1,1,0,2.74Z"/><path class="cls-5" d="M186.32,159.59H154.46a1.37,1.37,0,1,1,0-2.74h31.86a1.37,1.37,0,1,1,0,2.74Z"/><path class="cls-5" d="M186.32,151.9H154.46a1.37,1.37,0,0,1,0-2.74h31.86a1.37,1.37,0,0,1,0,2.74Z"/><path class="cls-5" d="M186.32,179.91H154.46a1.37,1.37,0,0,1,0-2.74h31.86a1.37,1.37,0,0,1,0,2.74Z"/><path class="cls-5" d="M170.69,188.7H154.57a1.37,1.37,0,1,1,0-2.74h16.13a1.37,1.37,0,0,1,0,2.74Z"/><rect class="cls-7" x="178.05" y="187.02" width="16.88" height="16.88"/><path class="cls-5" d="M191.48,201.78a3.88,3.88,0,0,1-2.73-1.11l-6.21-6a3.3,3.3,0,0,1-.15-4.67l.27-.26a4,4,0,0,1,5.35.13l3.25,3.16,11-12.38a4,4,0,0,1,5.32-.48,3.33,3.33,0,0,1,.52,4.93l-13.67,15.4a3.81,3.81,0,0,1-2.77,1.27Z"/></g></g></g></g></svg>