<svg xmlns="http://www.w3.org/2000/svg" viewBox="0 0 279 274"><defs><style>.cls-1,.cls-4,.cls-8{fill:#fff;}.cls-2{fill:#c6cacc;}.cls-3{fill:#6cc;}.cls-4{font-size:29px;font-family:MyriadPro-Regular, Myriad Pro;}.cls-5{fill:#f90;}.cls-6{fill:#472e27;}.cls-7,.cls-9{fill:none;}.cls-7,.cls-8{stroke:#472e27;}.cls-7,.cls-8,.cls-9{stroke-linecap:round;stroke-linejoin:round;}.cls-7{stroke-width:3.84px;}.cls-8{stroke-width:3.07px;}.cls-9{stroke:#2eceb3;stroke-width:9.22px;}.cls-10{fill:#ffb24d;}</style></defs><title>cstep2</title><g id="Layer_2" data-name="Layer 2"><g id="Layer_1-2" data-name="Layer 1"><path class="cls-1" d="M137,273C62,273,1,212,1,137S62,1,137,1,273,62,273,137,212,273,137,273Z"/><path class="cls-2" d="M137,2a135,135,0,0,1,95.46,230.46A135,135,0,0,1,41.54,41.54,134.12,134.12,0,0,1,137,2m0-2A137,137,0,1,0,274,137,137,137,0,0,0,137,0Z"/><path class="cls-3" d="M249.5,237A28.5,28.5,0,1,1,278,208.5,28.53,28.53,0,0,1,249.5,237Z"/><path class="cls-1" d="M249.5,181A27.5,27.5,0,1,1,222,208.5,27.53,27.53,0,0,1,249.5,181m0-2A29.5,29.5,0,1,0,279,208.5,29.5,29.5,0,0,0,249.5,179Z"/><text class="cls-4" transform="translate(241.68 219)">2</text><g id="Layer_2-2" data-name="Layer 2"><g id="Layer_1-2-2" data-name="Layer 1-2"><rect class="cls-1" x="59.92" y="154.94" width="20.11" height="20.11"/><rect class="cls-5" x="59.92" y="123.61" width="20.11" height="20.11"/><rect class="cls-5" x="59.92" y="160.49" width="20.11" height="20.11"/><path class="cls-6" d="M65.31,144.57A1.69,1.69,0,0,1,64,143.8l-3.07-4.18a3,3,0,0,1,0-3.43,1.54,1.54,0,0,1,2.64,0l1.54,2.2,5.61-8.53a1.54,1.54,0,0,1,2.6-.37,3,3,0,0,1,.26,3.43l-6.78,10.76a1.75,1.75,0,0,1-1.37.89Z"/><line class="cls-7" x1="89.29" y1="126.36" x2="133.85" y2="126.36"/><line class="cls-7" x1="89.29" y1="136.35" x2="133.85" y2="136.35"/><line class="cls-7" x1="89.44" y1="145.57" x2="103.42" y2="145.57"/><line class="cls-7" x1="89.29" y1="163.24" x2="133.85" y2="163.24"/><line class="cls-7" x1="89.29" y1="173.23" x2="133.85" y2="173.23"/><line class="cls-7" x1="89.44" y1="182.45" x2="103.42" y2="182.45"/><circle class="cls-8" cx="167.87" cy="136.67" r="47.13"/><path class="cls-9" d="M206.07,129.23a38.91,38.91,0,1,1-25.68-29.41"/><path class="cls-10" d="M154.48,149.53l23-29.48a2.61,2.61,0,0,1,3.67-.45h0a2.61,2.61,0,0,1,.45,3.67l-23,29.48a2.61,2.61,0,0,1-3.67.45h0A2.61,2.61,0,0,1,154.48,149.53Z"/><path class="cls-6" d="M156.53,155a3.92,3.92,0,0,1-3.07-6.33l23-29.49a3.92,3.92,0,0,1,6.15,4.83l-23,29.49A3.92,3.92,0,0,1,156.53,155Zm23-34.76a1.31,1.31,0,0,0-1,.51l-23,29.49a1.32,1.32,0,0,0,.23,1.83,1.31,1.31,0,0,0,1.83-.23l23-29.49h0a1.31,1.31,0,0,0-1-2.11Z"/><circle class="cls-10" cx="178.87" cy="144.6" r="3.87"/><path class="cls-6" d="M178.87,149.78a5.18,5.18,0,1,1,5.18-5.18,5.18,5.18,0,0,1-5.18,5.18Zm0-7.68a2.57,2.57,0,1,0,2.57,2.57h0a2.57,2.57,0,0,0-2.52-2.61h0Z"/><circle class="cls-10" cx="157.99" cy="127.63" r="3.87"/><path class="cls-6" d="M158,132.81a5.18,5.18,0,1,1,5.18-5.18,5.18,5.18,0,0,1-5.18,5.18Zm0-7.68a2.57,2.57,0,1,0,2.57,2.57h0a2.57,2.57,0,0,0-2.5-2.63H158Z"/></g></g></g></g></svg>