<svg xmlns="http://www.w3.org/2000/svg" viewBox="0 0 279 274"><defs><style>.cls-1,.cls-4,.cls-9{fill:#fff;}.cls-2{fill:#c6cacc;}.cls-3{fill:#6cc;}.cls-4{font-size:29px;font-family:MyriadPro-Regular, Myriad Pro;}.cls-5{fill:#b4bebf;}.cls-6{fill:#472e27;}.cls-7{fill:#fafbfd;}.cls-8{fill:none;}.cls-10,.cls-8,.cls-9{stroke:#472e27;stroke-linecap:round;stroke-linejoin:round;stroke-width:2.84px;}.cls-10{fill:#ffb24d;}</style></defs><title>cstep1</title><g id="Layer_2" data-name="Layer 2"><g id="Layer_1-2" data-name="Layer 1"><path class="cls-1" d="M137,273C62,273,1,212,1,137S62,1,137,1,273,62,273,137,212,273,137,273Z"/><path class="cls-2" d="M137,2a135,135,0,0,1,95.46,230.46A135,135,0,0,1,41.54,41.54,134.12,134.12,0,0,1,137,2m0-2A137,137,0,1,0,274,137,137,137,0,0,0,137,0Z"/><path class="cls-3" d="M249.5,237A28.5,28.5,0,1,1,278,208.5,28.53,28.53,0,0,1,249.5,237Z"/><path class="cls-1" d="M249.5,181A27.5,27.5,0,1,1,222,208.5,27.53,27.53,0,0,1,249.5,181m0-2A29.5,29.5,0,1,0,279,208.5,29.5,29.5,0,0,0,249.5,179Z"/><text class="cls-4" transform="translate(241.68 219)">1</text><g id="Layer_2-2" data-name="Layer 2"><g id="Isolation_Mode" data-name="Isolation Mode"><path id="_Path_" data-name=" Path " class="cls-5" d="M71.3,105.81v-4.25c0-4.37,4-7.88,9-7.88H97.1v52.68H71.3Z"/><path id="_Compound_Path_" data-name=" Compound Path " class="cls-6" d="M97.1,148H71.3l-1.67-1.66V101.54c0-5.29,4.76-9.54,10.63-9.54H97.1l1.67,1.67v52.68ZM73,144.68H95.43V95.33H80.26c-4,0-7.3,2.84-7.3,6.19Z"/><path id="_Path_2" data-name=" Path 2" class="cls-7" d="M97.5,162.57c-4.95,0-9-3.53-9-7.87l.16-53.16c0-4.35-4-7.87-9-7.87h55.82c4.95,0,9,3.52,9,7.87v61Z"/><path id="_Compound_Path_2" data-name=" Compound Path 2" class="cls-6" d="M144.52,164.3h-47c-5.87,0-10.63-4.25-10.63-9.54L87,101.6c0-3.42-3.27-6.19-7.3-6.19V92h55.84c5.85,0,10.62,4.25,10.62,9.54v61ZM87.82,95.4a8.94,8.94,0,0,1,2.57,6.19l-.16,53.16c0,3.42,3.27,6.19,7.3,6.19h45.36V101.54c0-3.42-3.27-6.19-7.3-6.19Z"/><path id="_Path_3" data-name=" Path 3" class="cls-5" d="M131.72,162.57V130.13H114.89c-4.95,0-9,3.52-9,7.87v16.7c0,4.35-4,7.87-9,7.87Z"/><path id="_Compound_Path_3" data-name=" Compound Path 3" class="cls-6" d="M131.72,164.3H97v-3.4c4,0,7.3-2.84,7.3-6.19V138c0-5.26,4.76-9.54,10.63-9.54h16.83l1.7,1.67v32.43Zm-26.65-3.4h25V131.81H114.89c-4,0-7.3,2.84-7.3,6.19v16.7A8.94,8.94,0,0,1,105.07,160.89Z"/><path id="_Path_4" data-name=" Path 4" class="cls-7" d="M114.2,130.13c4.95,0,9,3.52,9,7.87v54.78c0,4.35,4,7.87,9,7.87H179V138c0-4.35-4-7.87-9-7.87Z"/><path id="_Compound_Path_4" data-name=" Compound Path 4" class="cls-6" d="M179,202.32H132.13c-5.87,0-10.63-4.25-10.63-9.54V138c0-3.42-3.27-6.19-7.3-6.19v-3.35h55.85c5.87,0,10.63,4.25,10.63,9.54v62.64Zm-56.7-70.51a8.94,8.94,0,0,1,2.57,6.19v54.78c0,3.42,3.27,6.19,7.3,6.19h45.19V138c0-3.42-3.27-6.19-7.3-6.19Z"/><path id="_Path_5" data-name=" Path 5" class="cls-5" d="M196.53,188.51v4.25c0,4.35-4,7.87-9,7.87H131.72c4.95,0,9-3.52,9-7.87v-4.25Z"/><path id="_Compound_Path_5" data-name=" Compound Path 5" class="cls-6" d="M187.56,202.32H131.72V199c4,0,7.3-2.84,7.3-6.19v-4.25l1.67-1.67h55.84l1.67,1.67v4.25C198.21,198,193.43,202.32,187.56,202.32ZM139.8,199h47.77c4,0,7.3-2.84,7.3-6.19v-2.61H142.42v2.59A8.94,8.94,0,0,1,139.8,199Z"/><line class="cls-8" x1="137.16" y1="151.65" x2="169.77" y2="151.65"/><line class="cls-8" x1="103.14" y1="119.05" x2="135.75" y2="119.05"/><line class="cls-8" x1="103.14" y1="110.54" x2="135.75" y2="110.54"/><line class="cls-8" x1="137.16" y1="160.87" x2="169.77" y2="160.87"/><line class="cls-8" x1="137.16" y1="169.37" x2="169.77" y2="169.37"/><line class="cls-8" x1="137.16" y1="177.88" x2="169.77" y2="177.88"/><circle class="cls-9" cx="194.56" cy="180.47" r="26.95"/><path class="cls-10" d="M204.13,178.47h-7.2v-7.19a2.4,2.4,0,0,0-4.81,0h0v7.19h-7.2a2.4,2.4,0,1,0,0,4.81h7.2v7.2a2.4,2.4,0,0,0,4.81,0v-7.19h7.2a2.4,2.4,0,1,0,0-4.81Z"/></g></g></g></g></svg>