<svg xmlns="http://www.w3.org/2000/svg" viewBox="0 0 120.68 126.78"><defs><style>.cls-1,.cls-8{fill:#fff;}.cls-1,.cls-16{stroke:#472e27;stroke-width:2.5px;}.cls-1,.cls-12,.cls-13,.cls-16{stroke-linecap:round;stroke-linejoin:round;}.cls-2{opacity:0.6;}.cls-16,.cls-3{fill:#2eceb3;}.cls-4{fill:#472e27;}.cls-5{fill:#ededed;}.cls-6{opacity:0.48;}.cls-7{fill:#bcbcbc;}.cls-9{opacity:0.49;}.cls-10{fill:#1e967f;}.cls-11{opacity:0.07;}.cls-12{fill:none;stroke:#be1e2d;}.cls-13{fill:#ffb24d;stroke:#331f02;stroke-width:2px;}.cls-14{font-size:12px;font-family:Montserrat-Medium, Montserrat;}.cls-15{letter-spacing:-0.03em;}</style></defs><title>free</title><g id="Layer_2" data-name="Layer 2"><g id="Layer_1-2" data-name="Layer 1"><path class="cls-1" d="M57.84,30.79s18.42-11.07,24.22-16c2.26-1.93,2.24-7.54-1.44-10.84h0c-3.68-3.31-9.41-2.65-11-.17-4.22,6.4-12.48,26.36-12.48,26.36Z"/><path class="cls-1" d="M57.78,30.79S39.12,19.46,33.24,14.41c-2.29-2-2.32-7.63,1.36-10.94h0C38.28.17,44.05.89,45.72,3.4,50,9.9,58.52,30.12,58.52,30.12Z"/><line class="cls-1" x1="57.78" y1="30.79" x2="86.93" y2="21.61"/><line class="cls-1" x1="57.1" y1="30.79" x2="27.76" y2="21.61"/><g class="cls-2"><path class="cls-3" d="M96.88,49.89A7.53,7.53,0,1,0,84.72,41l-.63.86a33.49,33.49,0,0,0-22-8.22h0a33.49,33.49,0,0,0-22,8.22L39.53,41a7.53,7.53,0,0,0-12.16,8.89l3.5,4.79,0,.06A33.34,33.34,0,0,0,28.47,67.3l-.54,34.89H95.25l.54-34.89a33.34,33.34,0,0,0-2.46-12.57l0-.06Z"/></g><path class="cls-4" d="M91.84,100.71a1.29,1.29,0,0,1-1.29-1.29V64.84a32,32,0,0,0-2.36-12.08,1.29,1.29,0,0,1,0-1,1.63,1.63,0,0,1,.2-.32l3.47-4.75A6.24,6.24,0,1,0,81.81,39.3l-.63.86a1.29,1.29,0,0,1-.9.52,1.26,1.26,0,0,1-1-.31,32.31,32.31,0,0,0-21.12-7.91,32,32,0,0,0-11.45,2.1A32.73,32.73,0,0,0,37,40.37a1.29,1.29,0,0,1-1.89-.22l-.62-.86a6.24,6.24,0,0,0-10.07,7.37l3.48,4.76a1.67,1.67,0,0,1,.18.27,1.29,1.29,0,0,1,0,1.06A32,32,0,0,0,25.8,64.84V99.42a1.29,1.29,0,0,1-2.58,0V64.84A34.52,34.52,0,0,1,25.5,52.46l-3.12-4.28A8.82,8.82,0,0,1,36.43,37.52a35.25,35.25,0,0,1,9.36-5.37,34.75,34.75,0,0,1,34.12,5.37A8.82,8.82,0,0,1,94,48.18l-3.12,4.28a34.52,34.52,0,0,1,2.28,12.38V99.42A1.29,1.29,0,0,1,91.84,100.71Z"/><rect class="cls-5" x="49.96" y="78.54" width="10.56" height="16.06"/><rect class="cls-5" x="60.52" y="78.54" width="10.56" height="16.06"/><g class="cls-6"><rect class="cls-7" x="65.53" y="78.86" width="3.37" height="13.64" rx="1.68" ry="1.68"/></g><rect class="cls-8" x="49.56" y="78.95" width="3.19" height="8.53" rx="1.6" ry="1.6"/><path class="cls-4" d="M58.78,93.52H49a1.29,1.29,0,0,1-1.29-1.29V78.54A1.29,1.29,0,0,1,49,77.25h9.73a1.29,1.29,0,0,1,1.29,1.29V92.23A1.29,1.29,0,0,1,58.78,93.52Zm-8.44-2.58h7.15V79.83H50.34Z"/><path class="cls-4" d="M68.52,93.52H58.78a1.29,1.29,0,0,1-1.29-1.29V78.54a1.29,1.29,0,0,1,1.29-1.29h9.73a1.29,1.29,0,0,1,1.29,1.29V92.23A1.29,1.29,0,0,1,68.52,93.52Zm-8.44-2.58h7.15V79.83H60.07Z"/><rect class="cls-4" x="52.74" y="67.02" width="12.09" height="7.07" rx="3.54" ry="3.54"/><path class="cls-4" d="M74.15,79.83H42.2a1.29,1.29,0,1,1,0-2.58H57.49V73.41a1.29,1.29,0,0,1,2.58,0v3.84H74.15a1.29,1.29,0,1,1,0,2.58Z"/><circle class="cls-4" cx="45.38" cy="64.05" r="2.48"/><circle class="cls-4" cx="72.45" cy="64.05" r="2.48"/><path class="cls-4" d="M40.51,75.33A11.54,11.54,0,1,1,52,63.79,11.55,11.55,0,0,1,40.51,75.33Zm0-20.49a9,9,0,1,0,9,9A9,9,0,0,0,40.51,54.84Z"/><path class="cls-4" d="M77.32,75.33A11.54,11.54,0,1,1,88.86,63.79,11.55,11.55,0,0,1,77.32,75.33Zm0-20.49a9,9,0,1,0,9,9A9,9,0,0,0,77.32,54.84Z"/><rect class="cls-4" x="50.76" y="62.5" width="16.73" height="2.58"/><g class="cls-9"><rect class="cls-10" x="86.07" y="72.67" width="3.19" height="14.66" rx="1.6" ry="1.6"/></g><g class="cls-6"><rect class="cls-8" x="38.45" y="64.58" width="3.19" height="6.56" rx="1.6" ry="1.6"/></g><g class="cls-6"><rect class="cls-8" x="71.92" y="57" width="3.19" height="13.8" rx="1.6" ry="1.6"/></g><g class="cls-6"><rect class="cls-8" x="76.03" y="64.58" width="3.19" height="6.56" rx="1.6" ry="1.6"/></g><g class="cls-11"><rect class="cls-8" x="57.32" y="66.1" width="3.19" height="6.56" rx="1.6" ry="1.6" transform="translate(-10.46 128.29) rotate(-90)"/></g><path class="cls-12" d="M105.55,79.94"/><path class="cls-12" d="M105.55,79.94"/><rect class="cls-13" x="11.26" y="100.45" width="96.67" height="25.33"/><text class="cls-14" transform="translate(28.26 117.11)">I’M <tspan class="cls-15" x="20.98" y="0">Y</tspan><tspan x="28.45" y="0">OURS</tspan></text><rect class="cls-16" x="100.23" y="104.3" width="21.22" height="17.18" rx="8" ry="8" transform="translate(223.73 2.05) rotate(90)"/><rect class="cls-16" x="-0.77" y="104.3" width="21.22" height="17.18" rx="8" ry="8" transform="translate(122.73 103.05) rotate(90)"/></g></g></svg>