<?xml version="1.0" encoding="utf-8"?>
<!-- Generator: Adobe Illustrator 21.0.0, SVG Export Plug-In . SVG Version: 6.00 Build 0)  -->
<svg version="1.1" id="Capa_1" xmlns="http://www.w3.org/2000/svg" xmlns:xlink="http://www.w3.org/1999/xlink" x="0px" y="0px"
	 viewBox="0 0 512 512" style="enable-background:new 0 0 512 512;" xml:space="preserve">
<style type="text/css">
	.st0{fill:#66CCCC;}
</style>
<g>
	<path id="LinkedIn" class="st0" d="M512,311.3v189.3H402.3V324c0-44.4-15.9-74.6-55.6-74.6c-30.3,0-48.4,20.4-56.3,40.1
		c-2.9,7.1-3.6,16.9-3.6,26.8v184.4H176.9c0,0,1.5-299.1,0-330.1h109.8v46.8c-0.2,0.3-0.5,0.7-0.7,1.1h0.7v-1.1
		c14.6-22.5,40.6-54.5,98.9-54.5C457.9,162.8,512,209.9,512,311.3z M62.1,11.4C24.6,11.4,0,36,0,68.4c0,31.7,23.9,57.1,60.7,57.1
		h0.7c38.3,0,62.1-25.4,62.1-57.1C122.8,36,99.7,11.4,62.1,11.4z M6.5,500.6h109.7V170.5H6.5V500.6z"/>
</g>
</svg>
