<?xml version="1.0" encoding="utf-8"?>
<!-- Generator: Adobe Illustrator 21.1.0, SVG Export Plug-In . SVG Version: 6.00 Build 0)  -->
<svg version="1.1" id="Capa_1" xmlns="http://www.w3.org/2000/svg" xmlns:xlink="http://www.w3.org/1999/xlink" x="0px" y="0px"
	 viewBox="0 0 60 60" style="enable-background:new 0 0 60 60;" xml:space="preserve">
<style type="text/css">
	.st0{fill:#FFB14D;}
</style>
<g>
	<polygon class="st0" points="26,40.5 41.4,30 26,19.5 	"/>
	<path d="M43.3,29.3l-17.6-12c-0.2-0.2-0.6-0.2-0.8,0c-0.3,0.1-0.4,0.4-0.4,0.7v24c0,0.3,0.2,0.6,0.4,0.7c0.1,0.1,0.2,0.1,0.4,0.1
		c0.2,0,0.3,0,0.5-0.1l17.6-12c0.2-0.1,0.3-0.4,0.3-0.7S43.5,29.5,43.3,29.3z M26,40.5v-21L41.4,30L26,40.5z"/>
</g>
<path d="M30,0C13.5,0,0,13.5,0,30s13.5,30,30,30s30-13.5,30-30S46.5,0,30,0z M30,58C14.6,58,2,45.4,2,30S14.6,2,30,2s28,12.6,28,28
	S45.4,58,30,58z"/>
</svg>
