<svg xmlns="http://www.w3.org/2000/svg" viewBox="0 0 123.42 119.69"><defs><style>.cls-1{fill:#b4bebf;}.cls-12,.cls-2{fill:#472e27;}.cls-3{fill:#fafbfd;}.cls-11,.cls-4{fill:none;}.cls-10,.cls-4{stroke:#472e27;}.cls-10,.cls-11,.cls-4{stroke-linecap:round;stroke-linejoin:round;}.cls-4{stroke-width:2px;}.cls-5{opacity:0.6;}.cls-6{fill:#2eceb3;}.cls-7{fill:#f90;opacity:0.77;}.cls-8{opacity:0.49;}.cls-9{fill:#1e967f;}.cls-10{fill:#fff;stroke-width:2.5px;}.cls-11{stroke:#2eceb3;stroke-width:6px;}.cls-12{font-size:17.8px;font-family:Montserrat-Regular, Montserrat;}</style></defs><title>resume-screening</title><g id="Layer_2" data-name="Layer 2"><g id="Layer_1-2" data-name="Layer 1"><path id="_Path_" data-name="&lt;Path&gt;" class="cls-1" d="M3.25,41.59v-3C3.25,35.52,6.09,33,9.58,33H21.45V70.19H3.25Z"/><path id="_Compound_Path_" data-name="&lt;Compound Path&gt;" class="cls-2" d="M19.38,71.4H1.18L0,70.22V38.61c0-3.71,3.36-6.73,7.5-6.73H19.38l1.18,1.18V70.22ZM2.35,69H18.2V34.24H7.5c-2.84,0-5.15,2-5.15,4.37Z"/><path id="_Path_2" data-name="&lt;Path&gt;" class="cls-3" d="M17.28,81.6C13.79,81.6,11,79.11,11,76l.11-37.5c0-3.07-2.83-5.55-6.32-5.55H44.13c3.49,0,6.32,2.48,6.32,5.55v43Z"/><path id="_Compound_Path_2" data-name="&lt;Compound Path&gt;" class="cls-2" d="M50.45,82.78H17.28c-4.14,0-7.5-3-7.5-6.73l.11-37.5c0-2.41-2.31-4.37-5.15-4.37V31.82H44.13c4.14,0,7.5,3,7.5,6.73v43Zm-40-48.6a6.31,6.31,0,0,1,1.81,4.37l-.11,37.5c0,2.41,2.31,4.37,5.15,4.37h32V38.55c0-2.41-2.31-4.37-5.15-4.37Z"/><path id="_Path_3" data-name="&lt;Path&gt;" class="cls-1" d="M41.42,81.6V58.72H29.55c-3.49,0-6.32,2.48-6.32,5.55V76c0,3.07-2.83,5.55-6.32,5.55Z"/><path id="_Compound_Path_3" data-name="&lt;Compound Path&gt;" class="cls-2" d="M41.42,82.78H16.9V80.42c2.84,0,5.15-2,5.15-4.37V64.27c0-3.71,3.36-6.73,7.5-6.73H41.42l1.18,1.18V81.6ZM22.6,80.42H40.25V59.9H29.55c-2.84,0-5.15,2-5.15,4.37V76A6.31,6.31,0,0,1,22.6,80.42Z"/><path id="_Path_4" data-name="&lt;Path&gt;" class="cls-3" d="M29.07,58.72c3.49,0,6.32,2.48,6.32,5.55v38.64c0,3.06,2.83,5.55,6.32,5.55H74.78V64.27c0-3.07-2.83-5.55-6.32-5.55Z"/><path id="_Compound_Path_4" data-name="&lt;Compound Path&gt;" class="cls-2" d="M74.78,109.64H41.71c-4.14,0-7.5-3-7.5-6.73V64.27c0-2.41-2.31-4.37-5.15-4.37V57.54H68.46c4.14,0,7.5,3,7.5,6.73v44.19Zm-40-49.74a6.31,6.31,0,0,1,1.81,4.37v38.64c0,2.41,2.31,4.37,5.15,4.37H73.6v-43c0-2.41-2.31-4.37-5.15-4.37Z"/><path id="_Path_5" data-name="&lt;Path&gt;" class="cls-1" d="M87.14,99.91v3c0,3.06-2.83,5.55-6.32,5.55H41.42c3.49,0,6.32-2.48,6.32-5.55v-3Z"/><path id="_Compound_Path_5" data-name="&lt;Compound Path&gt;" class="cls-2" d="M80.82,109.64H41.42v-2.35c2.84,0,5.15-2,5.15-4.37v-3l1.18-1.18H87.14l1.18,1.18v3C88.32,106.62,85,109.64,80.82,109.64Zm-33.7-2.35h33.7c2.84,0,5.15-2,5.15-4.37v-1.83h-37v1.83A6.31,6.31,0,0,1,47.12,107.29Z"/><line class="cls-4" x1="45.26" y1="73.9" x2="68.26" y2="73.9"/><line class="cls-4" x1="21.26" y1="50.9" x2="44.26" y2="50.9"/><line class="cls-4" x1="21.26" y1="44.9" x2="44.26" y2="44.9"/><line class="cls-4" x1="45.26" y1="80.4" x2="68.26" y2="80.4"/><line class="cls-4" x1="45.26" y1="86.4" x2="68.26" y2="86.4"/><line class="cls-4" x1="45.26" y1="92.4" x2="68.26" y2="92.4"/><g id="_Group_" data-name="&lt;Group&gt;"><g id="_Group_2" data-name="&lt;Group&gt;"><path id="_Path_6" data-name="&lt;Path&gt;" class="cls-2" d="M121.69,116h0a4,4,0,0,1-5.35,1.92h0l3.43-7.28h0A4,4,0,0,1,121.69,116Z"/><path id="_Compound_Path_6" data-name="&lt;Compound Path&gt;" class="cls-2" d="M120,119.33l-.09,0a5.33,5.33,0,0,1-4.1-.19l-.67-1.8,3.43-7.28,1.79-.65a5.37,5.37,0,0,1,2.6,7.16h0A5.33,5.33,0,0,1,120,119.33Zm-1.7-2.35a2.69,2.69,0,0,0,.7-.15,2.75,2.75,0,0,0,1.52-1.38h0a2.66,2.66,0,0,0,.1-2,2.7,2.7,0,0,0-.33-.64Z"/></g><circle id="_Path_7" data-name="&lt;Path&gt;" class="cls-3" cx="75.42" cy="94.17" r="16.6" transform="translate(-41.66 123.33) rotate(-65.29)"/><path id="_Compound_Path_7" data-name="&lt;Compound Path&gt;" class="cls-2" d="M81.77,111a17.95,17.95,0,1,1,1.15-33.09h0A17.94,17.94,0,0,1,81.77,111ZM70,79.91a15.25,15.25,0,1,0,11.78.4A15.21,15.21,0,0,0,70,79.91Z"/><g id="_Group_3" data-name="&lt;Group&gt;" class="cls-5"><path id="_Path_8" data-name="&lt;Path&gt;" class="cls-6" d="M87.29,99.77A13.38,13.38,0,1,1,80.89,82,13.39,13.39,0,0,1,87.29,99.77Z"/></g><rect id="_Rectangle_" data-name="&lt;Rectangle&gt;" class="cls-1" x="91.36" y="99.47" width="3.76" height="6.18" transform="translate(-39.28 143.22) rotate(-64.78)"/><path id="_Compound_Path_8" data-name="&lt;Compound Path&gt;" class="cls-2" d="M96.45,106.16l-1.79.64-5.59-2.63-.64-1.79L90,99l1.79-.64L97.41,101l.64,1.79Zm-5-3.85,3.16,1.49.45-1-3.16-1.49Z"/><rect id="_Rectangle_2" data-name="&lt;Rectangle&gt;" class="cls-7" x="102.89" y="96.78" width="8.05" height="24.57" transform="translate(-37.31 159.32) rotate(-64.78)"/><path id="_Compound_Path_9" data-name="&lt;Compound Path&gt;" class="cls-2" d="M117.53,118.52l-1.79.65L93.51,108.69l-.65-1.79,3.43-7.28L98.09,99l22.23,10.47.64,1.79ZM95.88,106.83l19.79,9.32,2.28-4.84L98.16,102Z"/><g id="_Group_4" data-name="&lt;Group&gt;" class="cls-8"><g id="_Group_5" data-name="&lt;Group&gt;"><path id="_Path_9" data-name="&lt;Path&gt;" class="cls-9" d="M78.68,86.27a8.51,8.51,0,0,0-10.64,3l-2.23-1.51a11.2,11.2,0,0,1,14-3.89Z"/></g></g></g><circle class="cls-10" cx="81.42" cy="28.54" r="27.29"/><path class="cls-11" d="M101.59,24.68A20.61,20.61,0,1,1,88,9.09"/><text class="cls-12" transform="translate(70.71 34.29)">60</text></g></g></svg>