<svg xmlns="http://www.w3.org/2000/svg" viewBox="0 0 98.34 87.38"><defs><style>.cls-1{fill:#fff;}.cls-1,.cls-2{stroke:#472e27;stroke-linecap:round;stroke-linejoin:round;stroke-width:2.5px;}.cls-2{fill:none;}.cls-3{fill:#472e27;}.cls-4{fill:#fafbfd;}.cls-5{opacity:0.6;}.cls-6{fill:#2eceb3;}.cls-7{fill:#b4bebf;}.cls-8{fill:#f90;opacity:0.77;}.cls-9{opacity:0.49;}.cls-10{fill:#1e967f;}</style></defs><title>resume-templates</title><g id="Layer_2" data-name="Layer 2"><g id="Layer_1-2" data-name="Layer 1"><polygon class="cls-1" points="55.19 73.16 1.25 73.16 1.25 1.25 45.42 1.25 46.08 1.33 55.19 11 55.19 73.16"/><polygon class="cls-1" points="46.42 1.33 45.42 11.33 54.75 11.33 46.42 1.33"/><line class="cls-2" x1="13.75" y1="39" x2="42.75" y2="39"/><line class="cls-2" x1="13.75" y1="28" x2="42.75" y2="28"/><line class="cls-2" x1="13.75" y1="21" x2="42.75" y2="21"/><line class="cls-2" x1="13.75" y1="46.5" x2="42.75" y2="46.5"/><line class="cls-2" x1="13.85" y1="54.5" x2="28.52" y2="54.5"/><g id="_Group_" data-name="&lt;Group&gt;"><g id="_Group_2" data-name="&lt;Group&gt;"><path id="_Path_" data-name="&lt;Path&gt;" class="cls-3" d="M97,82.14h0a3,3,0,0,1-4,1.45h0l2.58-5.48h0A3,3,0,0,1,97,82.14Z"/><path id="_Compound_Path_" data-name="&lt;Compound Path&gt;" class="cls-3" d="M95.73,84.63l-.06,0a4,4,0,0,1-3.09-.15l-.5-1.36,2.58-5.48L96,77.19a4,4,0,0,1,2,5.38h0A4,4,0,0,1,95.73,84.63Zm-1.28-1.77a2,2,0,0,0,.53-.11,2.07,2.07,0,0,0,1.14-1h0a2,2,0,0,0,.07-1.54,2,2,0,0,0-.25-.48Z"/></g><circle id="_Path_2" data-name="&lt;Path&gt;" class="cls-4" cx="45.03" cy="55.9" r="29.89" transform="translate(-24.57 73.44) rotate(-65.29)"/><path class="cls-3" d="M45.23,87.38a30.79,30.79,0,0,1-13-2.85A31.11,31.11,0,0,1,45.32,25.16a30.81,30.81,0,0,1,13,2.85A31.12,31.12,0,0,1,45.23,87.38Zm.09-59.77a28.67,28.67,0,0,0-12,54.7,28.38,28.38,0,0,0,11.94,2.62A28.77,28.77,0,0,0,71.31,68.25a28.66,28.66,0,0,0-26-40.64Z"/><g id="_Group_3" data-name="&lt;Group&gt;" class="cls-5"><path id="_Path_3" data-name="&lt;Path&gt;" class="cls-6" d="M68.75,67.33A25.95,25.95,0,1,1,56.33,32.8,26,26,0,0,1,68.75,67.33Z"/></g><rect id="_Rectangle_" data-name="&lt;Rectangle&gt;" class="cls-7" x="74.22" y="69.69" width="2.83" height="4.65" transform="translate(-21.74 109.76) rotate(-64.78)"/><path id="_Compound_Path_2" data-name="&lt;Compound Path&gt;" class="cls-3" d="M78,74.72l-1.35.48-4.21-2L72,71.87l1.2-2.56,1.35-.49,4.21,2,.48,1.35Zm-3.78-2.9,2.38,1.12.34-.72-2.38-1.12Z"/><rect id="_Rectangle_2" data-name="&lt;Rectangle&gt;" class="cls-8" x="82.9" y="67.67" width="6.05" height="18.48" transform="translate(-20.26 121.87) rotate(-64.78)"/><path id="_Compound_Path_3" data-name="&lt;Compound Path&gt;" class="cls-3" d="M93.91,84l-1.35.49L75.84,76.62l-.49-1.35,2.58-5.48,1.35-.49L96,77.19l.48,1.35ZM77.62,75.22l14.89,7,1.72-3.64-14.89-7Z"/><g id="_Group_4" data-name="&lt;Group&gt;" class="cls-9"><g id="_Group_5" data-name="&lt;Group&gt;"><path id="_Path_4" data-name="&lt;Path&gt;" class="cls-10" d="M47.27,38.11A9,9,0,0,0,36,41.23l-2.35-1.6a11.82,11.82,0,0,1,14.76-4.11Z"/></g></g><path class="cls-3" d="M42.22,70.27A3.79,3.79,0,0,1,39.38,69l-6.45-7.1A4.28,4.28,0,0,1,33.07,56a3.79,3.79,0,0,1,5.55.11L42,59.89,53.38,45.27a3.79,3.79,0,0,1,5.53-.57,4.29,4.29,0,0,1,.54,5.82L45.26,68.75a3.81,3.81,0,0,1-2.88,1.51Z"/></g></g></g></svg>