<svg xmlns="http://www.w3.org/2000/svg" viewBox="0 0 108.14 82.42"><defs><style>.cls-1{fill:#b4bebf;}.cls-2{fill:#472e27;}.cls-3{fill:#fafbfd;}.cls-4{fill:none;}.cls-4,.cls-5,.cls-6{stroke:#472e27;stroke-linecap:round;stroke-linejoin:round;stroke-width:2px;}.cls-5{fill:#fff;}.cls-6{fill:#ffb24d;}</style></defs><title>add-info</title><g id="Layer_2" data-name="Layer 2"><g id="Isolation_Mode" data-name="Isolation Mode"><path id="_Path_" data-name="&lt;Path&gt;" class="cls-1" d="M1.18,9.74v-3C1.18,3.66,4,1.18,7.5,1.18H19.38V38.34H1.18Z"/><path id="_Compound_Path_" data-name="&lt;Compound Path&gt;" class="cls-2" d="M19.38,39.51H1.18L0,38.34V6.73C0,3,3.36,0,7.5,0H19.38l1.18,1.18V38.34Zm-17-2.35H18.2V2.35H7.5c-2.84,0-5.15,2-5.15,4.37Z"/><path id="_Path_2" data-name="&lt;Path&gt;" class="cls-3" d="M19.66,49.78c-3.49,0-6.32-2.49-6.32-5.55l.11-37.5c0-3.07-2.83-5.55-6.32-5.55H46.51c3.49,0,6.32,2.48,6.32,5.55v43Z"/><path id="_Compound_Path_2" data-name="&lt;Compound Path&gt;" class="cls-2" d="M52.83,51H19.66c-4.14,0-7.5-3-7.5-6.73l.11-37.5c0-2.41-2.31-4.37-5.15-4.37V0H46.51C50.64,0,54,3,54,6.73v43Zm-40-48.6a6.31,6.31,0,0,1,1.81,4.37l-.11,37.5c0,2.41,2.31,4.37,5.15,4.37h32V6.73c0-2.41-2.31-4.37-5.15-4.37Z"/><path id="_Path_3" data-name="&lt;Path&gt;" class="cls-1" d="M43.8,49.78V26.9H31.93c-3.49,0-6.32,2.48-6.32,5.55V44.23c0,3.07-2.83,5.55-6.32,5.55Z"/><path id="_Compound_Path_3" data-name="&lt;Compound Path&gt;" class="cls-2" d="M43.8,51H19.28V48.6c2.84,0,5.15-2,5.15-4.37V32.45c0-3.71,3.36-6.73,7.5-6.73H43.8L45,26.9V49.78ZM25,48.6H42.63V28.08H31.93c-2.84,0-5.15,2-5.15,4.37V44.23A6.31,6.31,0,0,1,25,48.6Z"/><path id="_Path_4" data-name="&lt;Path&gt;" class="cls-3" d="M31.44,26.9c3.49,0,6.32,2.48,6.32,5.55V71.09c0,3.07,2.83,5.55,6.32,5.55H77.16V32.45c0-3.07-2.83-5.55-6.32-5.55Z"/><path id="_Compound_Path_4" data-name="&lt;Compound Path&gt;" class="cls-2" d="M77.16,77.82H44.09c-4.14,0-7.5-3-7.5-6.73V32.45c0-2.41-2.31-4.37-5.15-4.37V25.72H70.84c4.14,0,7.5,3,7.5,6.73V76.64Zm-40-49.74a6.31,6.31,0,0,1,1.81,4.37V71.09c0,2.41,2.31,4.37,5.15,4.37H76v-43c0-2.41-2.31-4.37-5.15-4.37Z"/><path id="_Path_5" data-name="&lt;Path&gt;" class="cls-1" d="M89.52,68.08v3c0,3.07-2.83,5.55-6.32,5.55H43.8c3.49,0,6.32-2.48,6.32-5.55v-3Z"/><path id="_Compound_Path_5" data-name="&lt;Compound Path&gt;" class="cls-2" d="M83.19,77.82H43.8V75.47c2.84,0,5.15-2,5.15-4.37v-3l1.18-1.18H89.52l1.18,1.18v3C90.7,74.8,87.33,77.82,83.19,77.82ZM49.5,75.47h33.7c2.84,0,5.15-2,5.15-4.37V69.26h-37v1.83A6.31,6.31,0,0,1,49.5,75.47Z"/><line class="cls-4" x1="47.64" y1="42.08" x2="70.64" y2="42.08"/><line class="cls-4" x1="23.64" y1="19.08" x2="46.64" y2="19.08"/><line class="cls-4" x1="23.64" y1="13.08" x2="46.64" y2="13.08"/><line class="cls-4" x1="47.64" y1="48.58" x2="70.64" y2="48.58"/><line class="cls-4" x1="47.64" y1="54.58" x2="70.64" y2="54.58"/><line class="cls-4" x1="47.64" y1="60.58" x2="70.64" y2="60.58"/><circle class="cls-5" cx="88.13" cy="62.41" r="19.01"/><path class="cls-6" d="M94.88,61H89.8V55.93a1.69,1.69,0,0,0-3.39,0V61H81.33a1.69,1.69,0,1,0,0,3.39h5.08v5.08a1.69,1.69,0,0,0,3.39,0V64.4h5.08a1.69,1.69,0,1,0,0-3.39Z"/></g></g></svg>