<svg xmlns="http://www.w3.org/2000/svg" viewBox="0 0 101.92 63.33"><defs><style>.cls-1,.cls-5{fill:#fff;}.cls-2{fill:#f90;}.cls-3{fill:#472e27;}.cls-4,.cls-6{fill:none;}.cls-4,.cls-5{stroke:#472e27;}.cls-4,.cls-5,.cls-6{stroke-linecap:round;stroke-linejoin:round;}.cls-4{stroke-width:2.5px;}.cls-5{stroke-width:2px;}.cls-6{stroke:#2eceb3;stroke-width:6px;}.cls-7{fill:#ffb24d;}</style></defs><title>step2</title><g id="Layer_2" data-name="Layer 2"><g id="Layer_1-2" data-name="Layer 1"><rect class="cls-1" y="43.56" width="13.09" height="13.09"/><rect class="cls-2" y="23.17" width="13.09" height="13.09"/><rect class="cls-2" y="47.17" width="13.09" height="13.09"/><path class="cls-3" d="M3.51,36.81a1.1,1.1,0,0,1-.88-.5l-2-2.72a1.93,1.93,0,0,1,0-2.23,1,1,0,0,1,1.72,0l1,1.43L7,27.24A1,1,0,0,1,8.69,27a1.92,1.92,0,0,1,.17,2.23l-4.41,7a1.14,1.14,0,0,1-.89.58Z"/><line class="cls-4" x1="19.11" y1="24.96" x2="48.11" y2="24.96"/><line class="cls-4" x1="19.11" y1="31.46" x2="48.11" y2="31.46"/><line class="cls-4" x1="19.21" y1="37.46" x2="28.31" y2="37.46"/><line class="cls-4" x1="19.11" y1="48.96" x2="48.11" y2="48.96"/><line class="cls-4" x1="19.11" y1="55.46" x2="48.11" y2="55.46"/><line class="cls-4" x1="19.21" y1="61.46" x2="28.31" y2="61.46"/><circle class="cls-5" cx="70.25" cy="31.67" r="30.67"/><path class="cls-6" d="M95.11,26.83A25.32,25.32,0,1,1,78.4,7.69"/><rect class="cls-7" x="56.49" y="29.79" width="27.74" height="3.4" rx="1.7" ry="1.7" transform="translate(2.24 67.56) rotate(-52.01)"/><path class="cls-3" d="M62.87,43.62a2.55,2.55,0,0,1-2-4.12l15-19.19a2.55,2.55,0,0,1,4,3.14l-15,19.19A2.55,2.55,0,0,1,62.87,43.62ZM77.86,21a.85.85,0,0,0-.67.33l-15,19.19a.86.86,0,0,0,.15,1.19.85.85,0,0,0,1.19-.15l15-19.19h0A.85.85,0,0,0,77.86,21Z"/><circle class="cls-7" cx="77.41" cy="36.83" r="2.52"/><path class="cls-3" d="M77.41,40.2a3.37,3.37,0,1,1,3.37-3.37A3.37,3.37,0,0,1,77.41,40.2Zm0-5a1.67,1.67,0,1,0,1.67,1.67A1.67,1.67,0,0,0,77.41,35.17Z"/><circle class="cls-7" cx="63.82" cy="25.79" r="2.52"/><path class="cls-3" d="M63.82,29.16a3.37,3.37,0,1,1,3.37-3.37A3.37,3.37,0,0,1,63.82,29.16Zm0-5a1.67,1.67,0,1,0,1.67,1.67A1.67,1.67,0,0,0,63.82,24.12Z"/></g></g></svg>