<?xml version="1.0" encoding="utf-8"?>
<?xml-stylesheet type="text/css" href="../css/beavver-home.css"?>
<!-- Generator: Adobe Illustrator 21.1.0, SVG Export Plug-In . SVG Version: 6.00 Build 0)  -->
<svg version="1.1" id="Layer_1" xmlns="http://www.w3.org/2000/svg" xmlns:xlink="http://www.w3.org/1999/xlink" x="0px" y="0px"
	 viewBox="0 0 1920 1080" style="enable-background:new 0 0 1920 1080;" xml:space="preserve">
<style type="text/css">
	.st0{fill:#e8e8e8;}
        @keyframes cloudsAnim {
            0% { transform: translate(0px, 0px); }
            50% { transform: translate(100px, 0px); }
            100% { transform: translate(0px, 0px); }
        }
    
       @keyframes cloudsAnim1 {
            0% { transform: translate(300px, 150px); }
            50% { transform: translate(200px, 150px); }
            100% { transform: translate(300px, 150px); }
        } 
    
       @keyframes cloudsAnim2 {
            0% { transform: translate(50px, 70px); }
            50% { transform: translate(150px, 70px); }
            100% { transform: translate(50px, 70px); }
        }
         
        @keyframes cloudsAnim3 {
            0% { transform: translate(100px, 0px); }
            50% { transform: translate(200px, 0px); }
            100% { transform: translate(100px, 0px); }
        }
    
       @keyframes cloudsAnim4 {
            0% { transform: translate(-10px, 50px); }
            50% { transform: translate(-150px, 50px); }
            100% { transform: translate(-10px, 50px); }
        } 
    
       @keyframes cloudsAnim5 {
            0% { transform: translate(100px, 0px); }
            50% { transform: translate(0px, 0px); }
            100% { transform: translate(100px, 0px); }
        }    
        
        #TopLeft {
            animation: cloudsAnim 7s ease-in-out;
            animation-iteration-count: infinite;
            transform-origin: bottom;
        }
    
        #MidLeft {
            animation: cloudsAnim1 5s ease-in-out;
            animation-iteration-count: infinite;
            transform-origin: bottom;
        }
    
        #BtmLeft {
            animation: cloudsAnim2 5s ease-in-out;
            animation-iteration-count: infinite;
            transform-origin: bottom;
        }    
  
        #TopRight {
            animation: cloudsAnim3 7s ease-in-out;
            animation-iteration-count: infinite;
            transform-origin: bottom;
        }
    
        #MidRight {
            animation: cloudsAnim4 5s ease-in-out;
            animation-iteration-count: infinite;
            transform-origin: bottom;
        }
    
        #BtmRight {
            animation: cloudsAnim5 4s ease-in-out;
            animation-iteration-count: infinite;
            transform-origin: bottom;
        }     
    
</style>
<g id="TopLeft">
	<g id="Layer_1-2">
		<path class="st0" d="M228.1,145.2h-16.8c-0.3-6.2-5.6-11-11.8-10.6c-1.7,0.1-3.4,0.6-4.8,1.4c0-0.4,0-0.7,0-1.1
			c0-11.6-9.4-21.1-21-21.2c-3.3,0-6.6,0.8-9.6,2.2c-5.8-15.1-22.7-22.7-37.9-17c-12.7,4.8-20.4,17.7-18.7,31.1
			c-7.9-1.7-15.6,3.2-17.3,11.1c-1.1,4.9,0.5,10.1,4.1,13.6c1.1,2.5,3.5,4.1,6.2,4.1h127.5c3.8,0.2,6.9-2.7,7.1-6.5
			c0.2-3.8-2.7-6.9-6.5-7.1C228.5,145.2,228.3,145.2,228.1,145.2L228.1,145.2z"/>
	</g>
</g>
<g id="MidRight">
	<g id="Layer_1-2_4_">
		<path class="st0" d="M1848.9,444.4h-16.8c-0.3-6.2-5.6-11-11.8-10.6c-1.7,0.1-3.4,0.6-4.8,1.4c0-0.4,0-0.7,0-1.1
			c0-11.6-9.4-21.1-21-21.2c-3.3,0-6.6,0.8-9.6,2.2c-5.8-15.1-22.7-22.7-37.9-17c-12.7,4.8-20.4,17.7-18.7,31.1
			c-7.9-1.7-15.6,3.2-17.3,11.1c-1.1,4.9,0.5,10.1,4.1,13.6c1.1,2.5,3.5,4.1,6.2,4.1h127.5c3.8,0.2,6.9-2.7,7.1-6.5
			c0.2-3.8-2.7-6.9-6.5-7.1C1849.3,444.4,1849.1,444.4,1848.9,444.4L1848.9,444.4z"/>
	</g>
</g>
<g id="MidLeft">
	<g id="Layer_1-2_1_">
		<path class="st0" d="M284.9,543.3h-12.1c-0.2-4.5-4-7.9-8.5-7.6c-1.2,0.1-2.4,0.4-3.5,1c0-0.3,0-0.5,0-0.8
			c0-8.4-6.7-15.2-15.1-15.2c-2.4,0-4.7,0.5-6.9,1.6c-4.1-10.9-16.3-16.4-27.2-12.2c-9.1,3.5-14.7,12.7-13.4,22.4
			c-5.6-1.2-11.2,2.3-12.5,8c-0.8,3.5,0.3,7.2,2.9,9.8c0.8,1.8,2.5,2.9,4.5,2.9h91.7c2.7,0.1,5-2,5.1-4.7c0.1-2.7-2-5-4.7-5.1
			C285.2,543.3,285,543.3,284.9,543.3L284.9,543.3z"/>
	</g>
</g>
<g id="TopRight">
	<g id="Layer_1-2_3_">
		<path class="st0" d="M1674.1,252.1H1662c-0.2-4.5-4-7.9-8.5-7.6c-1.2,0.1-2.4,0.4-3.5,1c0-0.3,0-0.5,0-0.8
			c0-8.4-6.7-15.2-15.1-15.2c-2.4,0-4.7,0.5-6.9,1.6c-4.1-10.9-16.3-16.4-27.2-12.2c-9.1,3.5-14.7,12.7-13.4,22.4
			c-5.6-1.2-11.2,2.3-12.5,8c-0.8,3.5,0.3,7.2,2.9,9.8c0.8,1.8,2.5,2.9,4.5,2.9h91.7c2.7,0.1,5-2,5.1-4.7c0.1-2.7-2-5-4.7-5.1
			C1674.4,252.1,1674.2,252.1,1674.1,252.1L1674.1,252.1z"/>
	</g>
</g>
<g id="BtmLeft">
	<g id="Layer_1-2_2_">
		<path class="st0" d="M199.9,868.7h-14.4c-0.3-5.3-4.8-9.4-10.1-9.1c-1.5,0.1-2.9,0.5-4.2,1.2c0-0.3,0-0.6,0-1
			c0-10-8-18.2-18.1-18.2c-2.9,0-5.7,0.7-8.2,1.9c-5-13-19.5-19.6-32.6-14.6c-10.9,4.1-17.5,15.2-16,26.7
			c-6.8-1.5-13.4,2.8-14.9,9.5c-0.9,4.2,0.4,8.6,3.5,11.7c0.9,2.1,3,3.5,5.3,3.5h109.6c3.2,0.1,6-2.3,6.1-5.6c0.1-3.2-2.3-6-5.6-6.1
			C200.2,868.7,200,868.7,199.9,868.7L199.9,868.7z"/>
	</g>
</g>
<g id="BtmRight">
	<g id="Layer_1-2_5_">
		<path class="st0" d="M1795.5,913.3H1781c-0.3-5.3-4.8-9.4-10.1-9.1c-1.5,0.1-2.9,0.5-4.2,1.2c0-0.3,0-0.6,0-1
			c0-10-8-18.2-18.1-18.2c-2.9,0-5.7,0.7-8.2,1.9c-5-13-19.5-19.6-32.6-14.6c-10.9,4.1-17.5,15.2-16,26.7
			c-6.8-1.5-13.4,2.8-14.9,9.5c-0.9,4.2,0.4,8.6,3.5,11.7c0.9,2.1,3,3.5,5.3,3.5h109.6c3.2,0.1,6-2.3,6.1-5.6c0.1-3.2-2.3-6-5.6-6.1
			C1795.8,913.3,1795.6,913.3,1795.5,913.3L1795.5,913.3z"/>
	</g>
</g>
</svg>
