<svg xmlns="http://www.w3.org/2000/svg" viewBox="0 0 107.6 103.22"><defs><style>.cls-1{fill:#fff;}.cls-2{fill:#472e27;}.cls-3{fill:#ffb24d;}.cls-4{fill:#2eceb3;}.cls-5{fill:#f90;}.cls-6{fill:none;stroke:#472e27;stroke-linecap:round;stroke-linejoin:round;stroke-width:2.5px;}</style></defs><title>writing-tips</title><g id="Layer_2" data-name="Layer 2"><g id="Layer_1-2" data-name="Layer 1"><path class="cls-1" d="M1,46.91A35.42,35.42,0,1,0,36.4,11.51,35.42,35.42,0,0,0,1,46.91Z"/><path class="cls-2" d="M36.4,83.31a36.38,36.38,0,1,1,6.54-72.17,1,1,0,1,1-.34,1.9,34.86,34.86,0,0,0-6.2-.55A34.45,34.45,0,1,0,50.86,78.2,1,1,0,0,1,51.67,80,36.06,36.06,0,0,1,36.4,83.31Zm18.28-5.07a1,1,0,0,1-.5-1.79c.64-.39,1.27-.8,1.89-1.23a1,1,0,0,1,1.1,1.58c-.65.45-1.32.89-2,1.3A1,1,0,0,1,54.67,78.23Zm4.4-3.13a1,1,0,0,1-.62-1.71,34.46,34.46,0,0,0-7.31-57.61A1,1,0,0,1,52,14a36.39,36.39,0,0,1,7.72,60.84A1,1,0,0,1,59.07,75.1ZM48,14.42a1,1,0,0,1-.32-.05c-.7-.24-1.43-.47-2.15-.67A1,1,0,0,1,46,11.84c.77.21,1.53.45,2.27.7A1,1,0,0,1,48,14.42Z"/><path class="cls-2" d="M36.4,72.36A25.44,25.44,0,1,1,61.84,46.91,25.47,25.47,0,0,1,36.4,72.36Zm0-49a23.51,23.51,0,1,0,23.52,23.5A23.53,23.53,0,0,0,36.4,23.41Z"/><path class="cls-3" d="M24.18,46.91A12.21,12.21,0,1,0,36.4,34.72,12.22,12.22,0,0,0,24.18,46.91Z"/><path class="cls-2" d="M36.4,59.91a13,13,0,0,1-13-13,.79.79,0,0,1,.77-.8.75.75,0,0,1,.77.75v.05a11.44,11.44,0,1,0,2.91-7.61.77.77,0,1,1-1.15-1A13,13,0,1,1,36.4,59.91ZM24.55,44.71l-.19,0a.77.77,0,0,1-.56-.94,13,13,0,0,1,.78-2.22.77.77,0,1,1,1.4.64,11.42,11.42,0,0,0-.68,2A.77.77,0,0,1,24.55,44.71Z"/><polygon class="cls-4" points="65.49 18.63 72.97 20.9 82.86 11.03 75.38 8.75 65.49 18.63"/><path class="cls-2" d="M73,21.86a1,1,0,0,1-.28,0l-7.48-2.27a1,1,0,0,1-.4-1.61L74.7,8.07a1,1,0,0,1,1-.24l7.48,2.28a1,1,0,0,1,.4,1.61l-9.89,9.87A1,1,0,0,1,73,21.86Zm-5.65-3.69L72.7,19.8,81,11.48,75.65,9.84Z"/><polygon class="cls-4" points="65.71 18.31 63.43 10.83 73.31 0.96 75.58 8.44 65.71 18.31"/><path class="cls-2" d="M65.71,19.28a1,1,0,0,1-.23,0,1,1,0,0,1-.69-.65L62.5,11.11a1,1,0,0,1,.24-1L72.62.28A1,1,0,0,1,73.54,0a1,1,0,0,1,.69.66l2.28,7.47a1,1,0,0,1-.24,1L66.39,19A1,1,0,0,1,65.71,19.28ZM64.52,11.1l1.65,5.39,8.33-8.33L72.85,2.78Z"/><path class="cls-2" d="M36.25,48.92a1,1,0,0,1-.68-1.65L77.08,5.67A1,1,0,1,1,78.45,7L36.93,48.64A1,1,0,0,1,36.25,48.92Z"/><line class="cls-4" x1="71.26" y1="13.78" x2="74.17" y2="14.82"/><path class="cls-2" d="M74.17,15.79a1,1,0,0,1-.32-.06l-2.91-1a1,1,0,1,1,.65-1.82l2.91,1a1,1,0,0,1-.32,1.87Z"/><polygon class="cls-1" points="106.52 102.14 59.9 102.14 59.9 39.98 98.07 39.98 98.65 40.05 106.52 48.4 106.52 102.14"/><path class="cls-2" d="M106.52,103.22H59.9a1.08,1.08,0,0,1-1.08-1.08V40A1.08,1.08,0,0,1,59.9,38.9H98.2l.57.07a1.08,1.08,0,0,1,.66.33l7.87,8.36a1.08,1.08,0,0,1,.29.74v53.74A1.08,1.08,0,0,1,106.52,103.22ZM61,101.06h44.46V48.83l-7.31-7.76H61Z"/><polygon class="cls-1" points="98.94 40.05 98.07 48.69 106.14 48.69 98.94 40.05"/><path class="cls-2" d="M106.14,49.77H98.07A1.08,1.08,0,0,1,97,48.59l.86-8.64a1.08,1.08,0,0,1,1.91-.58L107,48a1.08,1.08,0,0,1-.83,1.77Zm-6.87-2.16h4.57l-4.08-4.89Z"/><rect class="cls-1" x="65.28" y="76.55" width="13.09" height="13.09"/><rect class="cls-5" x="65.28" y="56.16" width="13.09" height="13.09"/><rect class="cls-5" x="65.28" y="80.16" width="13.09" height="13.09"/><path class="cls-2" d="M68.79,69.8a1.1,1.1,0,0,1-.88-.5l-2-2.72a1.93,1.93,0,0,1,0-2.23,1,1,0,0,1,1.72,0l1,1.43,3.54-5.6A1,1,0,0,1,74,60a1.92,1.92,0,0,1,.17,2.23l-4.41,7a1.14,1.14,0,0,1-.89.58Z"/><line class="cls-6" x1="84.4" y1="57.95" x2="101.9" y2="57.95"/><line class="cls-6" x1="84.4" y1="64.45" x2="101.9" y2="64.45"/><line class="cls-6" x1="84.45" y1="70.45" x2="89.94" y2="70.45"/><line class="cls-6" x1="84.4" y1="81.95" x2="101.9" y2="81.95"/><line class="cls-6" x1="84.4" y1="88.45" x2="101.9" y2="88.45"/><line class="cls-6" x1="84.45" y1="94.45" x2="89.94" y2="94.45"/><line class="cls-6" x1="67.4" y1="83.45" x2="74.4" y2="89.95"/><line class="cls-6" x1="74.15" y1="83.2" x2="67.65" y2="90.2"/></g></g></svg>